M48
INCH,TZ
T1C0.0157
T2C0.0236
T3C0.0394
T4C0.0433
%
G90
G05
T1
X41400Y-35400
X41400Y-38200
X42400Y-42700
X43486Y-61182
X43900Y-47500
X44016Y-46654
X45080Y-49720
X45984Y-54724
X46024Y-51614
X47271Y-47336
X47480Y-53622
X47596Y-61201
X48150Y-53622
X48800Y-50020
X48819Y-52018
X49580Y-51280
X50551Y-40551
X50833Y-61201
X50906Y-47126
X50950Y-51186
X52000Y-43800
X52008Y-54173
X52047Y-41181
X52100Y-51200
X52100Y-55600
X52100Y-58300
X52520Y-40433
X52610Y-53650
X52615Y-48200
X52800Y-44331
X53110Y-42717
X53200Y-48900
X53300Y-51200
X53500Y-61200
X54660Y-48940
X54800Y-43000
X55000Y-37300
T2
X41600Y-42700
X42717Y-51280
X43701Y-39862
T3
X41800Y-44200
X41800Y-45200
X41800Y-46200
X41800Y-47200
X41800Y-48200
X41800Y-49200
X42618Y-52657
X42618Y-53445
X46031Y-48500
X47031Y-48500
X48031Y-48500
X49031Y-48500
X50031Y-48500
X54823Y-38976
X54823Y-39764
X54823Y-40551
X54823Y-41339
X54823Y-44587
X54823Y-45374
X54823Y-46161
X54823Y-46949
X54823Y-50394
X54823Y-51181
X54823Y-51969
X54823Y-52756
T4
X41600Y-55441
X41600Y-58000
X43372Y-55441
X43372Y-58000
X53600Y-55541
X53600Y-58100
X55372Y-55541
X55372Y-58100
T0
M30
