G04 #@! TF.GenerationSoftware,KiCad,Pcbnew,(6.0.1)*
G04 #@! TF.CreationDate,2022-03-01T20:17:54-08:00*
G04 #@! TF.ProjectId,ESP32-Lora,45535033-322d-44c6-9f72-612e6b696361,rev?*
G04 #@! TF.SameCoordinates,Original*
G04 #@! TF.FileFunction,Copper,L2,Bot*
G04 #@! TF.FilePolarity,Positive*
%FSLAX46Y46*%
G04 Gerber Fmt 4.6, Leading zero omitted, Abs format (unit mm)*
G04 Created by KiCad (PCBNEW (6.0.1)) date 2022-03-01 20:17:54*
%MOMM*%
%LPD*%
G01*
G04 APERTURE LIST*
G04 #@! TA.AperFunction,ComponentPad*
%ADD10C,1.500000*%
G04 #@! TD*
G04 #@! TA.AperFunction,ComponentPad*
%ADD11C,2.000000*%
G04 #@! TD*
G04 #@! TA.AperFunction,ComponentPad*
%ADD12R,1.700000X1.700000*%
G04 #@! TD*
G04 #@! TA.AperFunction,ComponentPad*
%ADD13O,1.700000X1.700000*%
G04 #@! TD*
G04 #@! TA.AperFunction,ViaPad*
%ADD14C,0.800000*%
G04 #@! TD*
G04 #@! TA.AperFunction,ViaPad*
%ADD15C,1.200000*%
G04 #@! TD*
G04 #@! TA.AperFunction,Conductor*
%ADD16C,0.250000*%
G04 #@! TD*
G04 #@! TA.AperFunction,Conductor*
%ADD17C,0.750000*%
G04 #@! TD*
G04 APERTURE END LIST*
D10*
X139250000Y-105000000D03*
X139250000Y-103000000D03*
X139250000Y-101000000D03*
X139250000Y-99000000D03*
D11*
X105664000Y-147320000D03*
X110164000Y-147320000D03*
X110164000Y-140820000D03*
X105664000Y-140820000D03*
D10*
X139250000Y-119250000D03*
X139250000Y-117250000D03*
X139250000Y-115250000D03*
X139250000Y-113250000D03*
D11*
X136144000Y-147574000D03*
X140644000Y-147574000D03*
X140644000Y-141074000D03*
X136144000Y-141074000D03*
D10*
X108250000Y-133750000D03*
X108250000Y-135750000D03*
D12*
X116920000Y-123190000D03*
D13*
X119460000Y-123190000D03*
X122000000Y-123190000D03*
X124540000Y-123190000D03*
X127080000Y-123190000D03*
D10*
X139250000Y-134000000D03*
X139250000Y-132000000D03*
X139250000Y-130000000D03*
X139250000Y-128000000D03*
D12*
X106172000Y-124968000D03*
D13*
X106172000Y-122428000D03*
X106172000Y-119888000D03*
X106172000Y-117348000D03*
X106172000Y-114808000D03*
X106172000Y-112268000D03*
D14*
X107696000Y-108458000D03*
X135382000Y-130048000D03*
X129115495Y-155451740D03*
X110455105Y-155401307D03*
X132334000Y-141224000D03*
X111506000Y-120650000D03*
X132334000Y-148082000D03*
X135890000Y-155448000D03*
X123952000Y-127050800D03*
X139192000Y-109220000D03*
X132334000Y-130048000D03*
X114503200Y-126288800D03*
X120894837Y-155451740D03*
X105156000Y-97028000D03*
X138836400Y-124307600D03*
X139700000Y-94742000D03*
X125933200Y-130251200D03*
X105156000Y-89916000D03*
D15*
X105664000Y-108458000D03*
X111000000Y-101250000D03*
D14*
X116800000Y-139000000D03*
D15*
X108500000Y-130250000D03*
D14*
X120067299Y-120232701D03*
X111800000Y-118500000D03*
X134900000Y-108500000D03*
X134112000Y-112600000D03*
X133400000Y-102700000D03*
X135128000Y-124206000D03*
X129412299Y-130012299D03*
X132080000Y-111252000D03*
X122300000Y-136200000D03*
X133629200Y-136270800D03*
X133641500Y-122428000D03*
X124000000Y-132124500D03*
X128400000Y-103000000D03*
X132200000Y-104600000D03*
X132100000Y-137600000D03*
X116900000Y-131100000D03*
X129300000Y-119700000D03*
X120600000Y-136200000D03*
D16*
X103378000Y-112051457D02*
X103378000Y-138534000D01*
X107696000Y-108458000D02*
X106971457Y-108458000D01*
X106971457Y-108458000D02*
X103378000Y-112051457D01*
X103378000Y-138534000D02*
X105664000Y-140820000D01*
D17*
X142600000Y-134300000D02*
X142600000Y-117200000D01*
X108250000Y-130500000D02*
X108500000Y-130250000D01*
X116800000Y-139000000D02*
X137900000Y-139000000D01*
X105664000Y-108458000D02*
X105664000Y-105086000D01*
X137900000Y-139000000D02*
X142600000Y-134300000D01*
X140650000Y-115250000D02*
X139250000Y-115250000D01*
X111550000Y-133750000D02*
X116800000Y-139000000D01*
X142600000Y-117200000D02*
X140650000Y-115250000D01*
X109500000Y-101250000D02*
X111000000Y-101250000D01*
X108250000Y-133750000D02*
X108250000Y-130500000D01*
X108250000Y-133750000D02*
X111550000Y-133750000D01*
X105664000Y-105086000D02*
X109500000Y-101250000D01*
D16*
X116920000Y-123120000D02*
X116900000Y-123100000D01*
X119767299Y-120232701D02*
X120067299Y-120232701D01*
X116920000Y-123190000D02*
X116920000Y-123120000D01*
X116900000Y-123100000D02*
X119767299Y-120232701D01*
X112600000Y-119300000D02*
X111800000Y-118500000D01*
X124540000Y-123190000D02*
X120650000Y-119300000D01*
X120650000Y-119300000D02*
X112600000Y-119300000D01*
X138450000Y-119250000D02*
X139250000Y-119250000D01*
X134900000Y-108500000D02*
X134900000Y-115700000D01*
X134900000Y-115700000D02*
X138450000Y-119250000D01*
X134112000Y-112600000D02*
X134112000Y-103412000D01*
X134112000Y-103412000D02*
X133400000Y-102700000D01*
X134124500Y-125175500D02*
X134158500Y-125175500D01*
X135128000Y-125878000D02*
X135128000Y-124206000D01*
X129412299Y-130012299D02*
X129412299Y-129887701D01*
X129412299Y-129887701D02*
X134124500Y-125175500D01*
X134158500Y-125175500D02*
X135128000Y-124206000D01*
X139250000Y-130000000D02*
X135128000Y-125878000D01*
X132080000Y-111252000D02*
X133350000Y-112522000D01*
X140542000Y-132000000D02*
X139250000Y-132000000D01*
X134900000Y-132000000D02*
X139250000Y-132000000D01*
X133350000Y-115824000D02*
X141224000Y-123698000D01*
X122300000Y-136200000D02*
X130700000Y-136200000D01*
X133350000Y-112522000D02*
X133350000Y-115824000D01*
X130700000Y-136200000D02*
X134900000Y-132000000D01*
X141224000Y-131318000D02*
X140542000Y-132000000D01*
X141224000Y-123698000D02*
X141224000Y-131318000D01*
X132600000Y-123469500D02*
X132600000Y-125500000D01*
X124000000Y-132124500D02*
X125975500Y-132124500D01*
X138277600Y-136245600D02*
X139250000Y-135273200D01*
X133629200Y-136270800D02*
X133629600Y-136270800D01*
X133629600Y-136270800D02*
X133654800Y-136245600D01*
X133654800Y-136245600D02*
X138277600Y-136245600D01*
X139250000Y-135273200D02*
X139250000Y-134000000D01*
X133641500Y-122428000D02*
X132600000Y-123469500D01*
X125975500Y-132124500D02*
X132600000Y-125500000D01*
X131400000Y-99000000D02*
X139250000Y-99000000D01*
X128400000Y-103000000D02*
X128400000Y-102000000D01*
X128400000Y-102000000D02*
X131400000Y-99000000D01*
X132200000Y-104600000D02*
X132200000Y-102200000D01*
X132200000Y-102200000D02*
X133400000Y-101000000D01*
X133400000Y-101000000D02*
X139250000Y-101000000D01*
X116900000Y-136200000D02*
X118300000Y-137600000D01*
X118300000Y-137600000D02*
X132100000Y-137600000D01*
X116900000Y-131100000D02*
X116900000Y-136200000D01*
X129300000Y-124500000D02*
X129300000Y-119700000D01*
X124700000Y-129100000D02*
X129300000Y-124500000D01*
X124700000Y-130300000D02*
X124700000Y-129100000D01*
X120600000Y-134400000D02*
X124700000Y-130300000D01*
X120600000Y-136200000D02*
X120600000Y-134400000D01*
G04 #@! TA.AperFunction,Conductor*
G36*
X139970057Y-86509500D02*
G01*
X139984858Y-86511805D01*
X139984861Y-86511805D01*
X139993730Y-86513186D01*
X140013054Y-86510659D01*
X140035570Y-86509747D01*
X140336100Y-86524512D01*
X140348394Y-86525722D01*
X140675139Y-86574191D01*
X140687249Y-86576599D01*
X141007674Y-86656861D01*
X141019507Y-86660451D01*
X141330494Y-86771725D01*
X141341918Y-86776456D01*
X141640523Y-86917685D01*
X141651428Y-86923514D01*
X141934745Y-87093328D01*
X141945026Y-87100198D01*
X142210329Y-87296960D01*
X142219887Y-87304804D01*
X142464630Y-87526626D01*
X142473374Y-87535370D01*
X142695196Y-87780113D01*
X142703040Y-87789671D01*
X142899802Y-88054974D01*
X142906672Y-88065255D01*
X143056346Y-88314970D01*
X143076486Y-88348572D01*
X143082315Y-88359477D01*
X143223544Y-88658082D01*
X143228275Y-88669506D01*
X143339549Y-88980493D01*
X143343138Y-88992324D01*
X143408036Y-89251409D01*
X143423399Y-89312743D01*
X143425809Y-89324861D01*
X143474277Y-89651601D01*
X143475489Y-89663907D01*
X143489890Y-89957062D01*
X143488543Y-89982624D01*
X143488195Y-89984857D01*
X143488195Y-89984861D01*
X143486814Y-89993730D01*
X143487978Y-90002632D01*
X143487978Y-90002635D01*
X143490936Y-90025251D01*
X143492000Y-90041589D01*
X143492000Y-116541819D01*
X143471998Y-116609940D01*
X143418342Y-116656433D01*
X143348068Y-116666537D01*
X143283488Y-116637043D01*
X143268080Y-116621113D01*
X143259555Y-116610585D01*
X143259545Y-116610574D01*
X143257472Y-116608014D01*
X143243427Y-116593969D01*
X143238886Y-116589184D01*
X143198856Y-116544726D01*
X143198855Y-116544725D01*
X143194434Y-116539815D01*
X143183574Y-116531925D01*
X143168546Y-116519088D01*
X141330912Y-114681454D01*
X141318075Y-114666426D01*
X141310185Y-114655566D01*
X141260816Y-114611114D01*
X141256031Y-114606573D01*
X141241986Y-114592528D01*
X141239409Y-114590441D01*
X141226554Y-114580031D01*
X141221538Y-114575747D01*
X141177080Y-114535717D01*
X141177075Y-114535713D01*
X141172169Y-114531296D01*
X141160552Y-114524589D01*
X141144259Y-114513391D01*
X141138971Y-114509109D01*
X141133839Y-114504953D01*
X141074637Y-114474787D01*
X141068867Y-114471654D01*
X141017055Y-114441740D01*
X141017050Y-114441738D01*
X141011331Y-114438436D01*
X141005051Y-114436395D01*
X141005043Y-114436392D01*
X140998579Y-114434292D01*
X140980317Y-114426728D01*
X140974251Y-114423637D01*
X140974242Y-114423634D01*
X140968363Y-114420638D01*
X140957672Y-114417773D01*
X140904196Y-114403444D01*
X140897894Y-114401578D01*
X140834702Y-114381046D01*
X140821372Y-114379645D01*
X140801929Y-114376042D01*
X140788971Y-114372570D01*
X140782381Y-114372225D01*
X140782377Y-114372224D01*
X140738427Y-114369921D01*
X140722628Y-114369093D01*
X140716069Y-114368577D01*
X140696306Y-114366500D01*
X140676445Y-114366500D01*
X140669850Y-114366327D01*
X140610098Y-114363195D01*
X140610094Y-114363195D01*
X140603507Y-114362850D01*
X140590253Y-114364949D01*
X140570544Y-114366500D01*
X140198477Y-114366500D01*
X140130356Y-114346498D01*
X140109382Y-114329595D01*
X140062038Y-114282251D01*
X140057527Y-114279092D01*
X139886158Y-114159097D01*
X139886152Y-114159093D01*
X139881654Y-114155944D01*
X139742671Y-114091136D01*
X139706826Y-114066037D01*
X139262811Y-113622021D01*
X139248868Y-113614408D01*
X139247034Y-113614539D01*
X139240420Y-113618790D01*
X138793175Y-114066036D01*
X138757330Y-114091135D01*
X138724316Y-114106530D01*
X138623334Y-114153618D01*
X138623331Y-114153620D01*
X138618347Y-114155944D01*
X138613840Y-114159100D01*
X138613838Y-114159101D01*
X138442473Y-114279092D01*
X138442470Y-114279094D01*
X138437962Y-114282251D01*
X138282251Y-114437962D01*
X138279094Y-114442470D01*
X138279092Y-114442473D01*
X138159101Y-114613838D01*
X138155944Y-114618347D01*
X138153621Y-114623329D01*
X138153618Y-114623334D01*
X138129788Y-114674439D01*
X138062880Y-114817924D01*
X138005885Y-115030629D01*
X137986693Y-115250000D01*
X138005885Y-115469371D01*
X138062880Y-115682076D01*
X138096446Y-115754058D01*
X138153618Y-115876666D01*
X138153621Y-115876671D01*
X138155944Y-115881653D01*
X138159100Y-115886160D01*
X138159101Y-115886162D01*
X138212694Y-115962700D01*
X138282251Y-116062038D01*
X138381118Y-116160905D01*
X138415144Y-116223217D01*
X138410079Y-116294032D01*
X138381118Y-116339095D01*
X138282251Y-116437962D01*
X138279094Y-116442470D01*
X138279092Y-116442473D01*
X138161379Y-116610585D01*
X138155944Y-116618347D01*
X138153621Y-116623329D01*
X138153618Y-116623334D01*
X138116078Y-116703840D01*
X138062880Y-116817924D01*
X138005885Y-117030629D01*
X137986693Y-117250000D01*
X138005885Y-117469371D01*
X138007308Y-117474681D01*
X138045453Y-117617039D01*
X138043763Y-117688016D01*
X138003969Y-117746812D01*
X137938705Y-117774760D01*
X137868691Y-117762987D01*
X137834651Y-117738746D01*
X135570405Y-115474500D01*
X135536379Y-115412188D01*
X135533500Y-115385405D01*
X135533500Y-113255475D01*
X137987674Y-113255475D01*
X138005901Y-113463804D01*
X138007804Y-113474599D01*
X138061928Y-113676595D01*
X138065674Y-113686887D01*
X138154054Y-113876417D01*
X138159534Y-113885907D01*
X138188411Y-113927149D01*
X138198887Y-113935523D01*
X138212334Y-113928455D01*
X138877979Y-113262811D01*
X138884356Y-113251132D01*
X139614408Y-113251132D01*
X139614539Y-113252966D01*
X139618790Y-113259580D01*
X140288391Y-113929180D01*
X140300161Y-113935607D01*
X140312176Y-113926311D01*
X140340466Y-113885907D01*
X140345946Y-113876417D01*
X140434326Y-113686887D01*
X140438072Y-113676595D01*
X140492196Y-113474599D01*
X140494099Y-113463804D01*
X140512326Y-113255475D01*
X140512326Y-113244525D01*
X140494099Y-113036196D01*
X140492196Y-113025401D01*
X140438072Y-112823405D01*
X140434326Y-112813113D01*
X140345946Y-112623583D01*
X140340466Y-112614093D01*
X140311589Y-112572851D01*
X140301113Y-112564477D01*
X140287666Y-112571545D01*
X139622021Y-113237189D01*
X139614408Y-113251132D01*
X138884356Y-113251132D01*
X138885592Y-113248868D01*
X138885461Y-113247034D01*
X138881210Y-113240420D01*
X138211609Y-112570820D01*
X138199839Y-112564393D01*
X138187824Y-112573689D01*
X138159534Y-112614093D01*
X138154054Y-112623583D01*
X138065674Y-112813113D01*
X138061928Y-112823405D01*
X138007804Y-113025401D01*
X138005901Y-113036196D01*
X137987674Y-113244525D01*
X137987674Y-113255475D01*
X135533500Y-113255475D01*
X135533500Y-112198887D01*
X138564477Y-112198887D01*
X138571545Y-112212334D01*
X139237189Y-112877979D01*
X139251132Y-112885592D01*
X139252966Y-112885461D01*
X139259580Y-112881210D01*
X139929180Y-112211609D01*
X139935607Y-112199839D01*
X139926313Y-112187825D01*
X139885912Y-112159536D01*
X139876416Y-112154053D01*
X139686887Y-112065674D01*
X139676595Y-112061928D01*
X139474599Y-112007804D01*
X139463804Y-112005901D01*
X139255475Y-111987674D01*
X139244525Y-111987674D01*
X139036196Y-112005901D01*
X139025401Y-112007804D01*
X138823405Y-112061928D01*
X138813113Y-112065674D01*
X138623583Y-112154054D01*
X138614093Y-112159534D01*
X138572851Y-112188411D01*
X138564477Y-112198887D01*
X135533500Y-112198887D01*
X135533500Y-109202524D01*
X135553502Y-109134403D01*
X135565858Y-109118221D01*
X135639040Y-109036944D01*
X135734527Y-108871556D01*
X135793542Y-108689928D01*
X135797297Y-108654206D01*
X135812814Y-108506565D01*
X135813504Y-108500000D01*
X135793542Y-108310072D01*
X135734527Y-108128444D01*
X135639040Y-107963056D01*
X135545929Y-107859645D01*
X135515675Y-107826045D01*
X135515674Y-107826044D01*
X135511253Y-107821134D01*
X135356752Y-107708882D01*
X135350724Y-107706198D01*
X135350722Y-107706197D01*
X135188319Y-107633891D01*
X135188318Y-107633891D01*
X135182288Y-107631206D01*
X135054502Y-107604044D01*
X135001944Y-107592872D01*
X135001939Y-107592872D01*
X134995487Y-107591500D01*
X134871500Y-107591500D01*
X134803379Y-107571498D01*
X134756886Y-107517842D01*
X134745500Y-107465500D01*
X134745500Y-106050161D01*
X138564393Y-106050161D01*
X138573687Y-106062175D01*
X138614088Y-106090464D01*
X138623584Y-106095947D01*
X138813113Y-106184326D01*
X138823405Y-106188072D01*
X139025401Y-106242196D01*
X139036196Y-106244099D01*
X139244525Y-106262326D01*
X139255475Y-106262326D01*
X139463804Y-106244099D01*
X139474599Y-106242196D01*
X139676595Y-106188072D01*
X139686887Y-106184326D01*
X139876416Y-106095947D01*
X139885912Y-106090464D01*
X139927148Y-106061590D01*
X139935523Y-106051112D01*
X139928457Y-106037668D01*
X139262811Y-105372021D01*
X139248868Y-105364408D01*
X139247034Y-105364539D01*
X139240420Y-105368790D01*
X138570820Y-106038391D01*
X138564393Y-106050161D01*
X134745500Y-106050161D01*
X134745500Y-105005475D01*
X137987674Y-105005475D01*
X138005901Y-105213804D01*
X138007804Y-105224599D01*
X138061928Y-105426595D01*
X138065674Y-105436887D01*
X138154054Y-105626417D01*
X138159534Y-105635907D01*
X138188411Y-105677149D01*
X138198887Y-105685523D01*
X138212334Y-105678455D01*
X138877979Y-105012811D01*
X138884356Y-105001132D01*
X139614408Y-105001132D01*
X139614539Y-105002966D01*
X139618790Y-105009580D01*
X140288391Y-105679180D01*
X140300161Y-105685607D01*
X140312176Y-105676311D01*
X140340466Y-105635907D01*
X140345946Y-105626417D01*
X140434326Y-105436887D01*
X140438072Y-105426595D01*
X140492196Y-105224599D01*
X140494099Y-105213804D01*
X140512326Y-105005475D01*
X140512326Y-104994525D01*
X140494099Y-104786196D01*
X140492196Y-104775401D01*
X140438072Y-104573405D01*
X140434326Y-104563113D01*
X140345946Y-104373583D01*
X140340466Y-104364093D01*
X140311589Y-104322851D01*
X140301113Y-104314477D01*
X140287666Y-104321545D01*
X139622021Y-104987189D01*
X139614408Y-105001132D01*
X138884356Y-105001132D01*
X138885592Y-104998868D01*
X138885461Y-104997034D01*
X138881210Y-104990420D01*
X138211609Y-104320820D01*
X138199839Y-104314393D01*
X138187824Y-104323689D01*
X138159534Y-104364093D01*
X138154054Y-104373583D01*
X138065674Y-104563113D01*
X138061928Y-104573405D01*
X138007804Y-104775401D01*
X138005901Y-104786196D01*
X137987674Y-104994525D01*
X137987674Y-105005475D01*
X134745500Y-105005475D01*
X134745500Y-103490767D01*
X134746027Y-103479584D01*
X134747702Y-103472091D01*
X134745562Y-103404014D01*
X134745500Y-103400055D01*
X134745500Y-103372144D01*
X134744995Y-103368144D01*
X134744062Y-103356301D01*
X134742922Y-103320030D01*
X134742673Y-103312111D01*
X134737021Y-103292657D01*
X134733013Y-103273300D01*
X134731468Y-103261070D01*
X134731468Y-103261069D01*
X134730474Y-103253203D01*
X134727555Y-103245830D01*
X134714196Y-103212088D01*
X134710351Y-103200858D01*
X134700229Y-103166017D01*
X134700229Y-103166016D01*
X134698018Y-103158407D01*
X134693985Y-103151588D01*
X134693983Y-103151583D01*
X134687707Y-103140972D01*
X134679012Y-103123224D01*
X134671552Y-103104383D01*
X134645564Y-103068613D01*
X134639048Y-103058693D01*
X134620580Y-103027465D01*
X134620578Y-103027462D01*
X134616542Y-103020638D01*
X134602221Y-103006317D01*
X134589380Y-102991283D01*
X134582132Y-102981307D01*
X134577472Y-102974893D01*
X134543401Y-102946707D01*
X134534622Y-102938718D01*
X134347122Y-102751218D01*
X134313096Y-102688906D01*
X134310907Y-102675293D01*
X134294232Y-102516635D01*
X134294232Y-102516633D01*
X134293542Y-102510072D01*
X134234527Y-102328444D01*
X134139040Y-102163056D01*
X134031871Y-102044032D01*
X134015675Y-102026045D01*
X134015674Y-102026044D01*
X134011253Y-102021134D01*
X133882927Y-101927899D01*
X133862094Y-101912763D01*
X133862093Y-101912762D01*
X133856752Y-101908882D01*
X133850724Y-101906198D01*
X133850722Y-101906197D01*
X133779769Y-101874607D01*
X133725673Y-101828627D01*
X133705024Y-101760700D01*
X133724376Y-101692391D01*
X133777587Y-101645390D01*
X133831018Y-101633500D01*
X138091646Y-101633500D01*
X138159767Y-101653502D01*
X138194858Y-101687228D01*
X138205617Y-101702593D01*
X138276109Y-101803266D01*
X138282251Y-101812038D01*
X138381118Y-101910905D01*
X138415144Y-101973217D01*
X138410079Y-102044032D01*
X138381118Y-102089095D01*
X138282251Y-102187962D01*
X138279094Y-102192470D01*
X138279092Y-102192473D01*
X138160741Y-102361496D01*
X138155944Y-102368347D01*
X138153621Y-102373329D01*
X138153618Y-102373334D01*
X138145477Y-102390793D01*
X138062880Y-102567924D01*
X138005885Y-102780629D01*
X137986693Y-103000000D01*
X138005885Y-103219371D01*
X138062880Y-103432076D01*
X138084718Y-103478907D01*
X138153618Y-103626666D01*
X138153621Y-103626671D01*
X138155944Y-103631653D01*
X138159100Y-103636160D01*
X138159101Y-103636162D01*
X138269483Y-103793803D01*
X138282251Y-103812038D01*
X138437962Y-103967749D01*
X138442471Y-103970906D01*
X138442473Y-103970908D01*
X138613842Y-104090903D01*
X138613848Y-104090907D01*
X138618346Y-104094056D01*
X138757329Y-104158864D01*
X138793174Y-104183963D01*
X139237189Y-104627979D01*
X139251132Y-104635592D01*
X139252966Y-104635461D01*
X139259580Y-104631210D01*
X139706826Y-104183963D01*
X139742671Y-104158864D01*
X139881654Y-104094056D01*
X139886152Y-104090907D01*
X139886158Y-104090903D01*
X140057527Y-103970908D01*
X140057529Y-103970906D01*
X140062038Y-103967749D01*
X140217749Y-103812038D01*
X140230518Y-103793803D01*
X140340899Y-103636162D01*
X140340900Y-103636160D01*
X140344056Y-103631653D01*
X140346379Y-103626671D01*
X140346382Y-103626666D01*
X140415282Y-103478907D01*
X140437120Y-103432076D01*
X140494115Y-103219371D01*
X140513307Y-103000000D01*
X140494115Y-102780629D01*
X140437120Y-102567924D01*
X140354523Y-102390793D01*
X140346382Y-102373334D01*
X140346379Y-102373329D01*
X140344056Y-102368347D01*
X140339259Y-102361496D01*
X140220908Y-102192473D01*
X140220906Y-102192470D01*
X140217749Y-102187962D01*
X140118882Y-102089095D01*
X140084856Y-102026783D01*
X140089921Y-101955968D01*
X140118882Y-101910905D01*
X140217749Y-101812038D01*
X140223892Y-101803266D01*
X140340899Y-101636162D01*
X140340900Y-101636160D01*
X140344056Y-101631653D01*
X140346379Y-101626671D01*
X140346382Y-101626666D01*
X140403424Y-101504337D01*
X140437120Y-101432076D01*
X140494115Y-101219371D01*
X140513307Y-101000000D01*
X140494115Y-100780629D01*
X140437120Y-100567924D01*
X140374807Y-100434292D01*
X140346382Y-100373334D01*
X140346379Y-100373329D01*
X140344056Y-100368347D01*
X140336180Y-100357099D01*
X140220908Y-100192473D01*
X140220906Y-100192470D01*
X140217749Y-100187962D01*
X140118882Y-100089095D01*
X140084856Y-100026783D01*
X140089921Y-99955968D01*
X140118882Y-99910905D01*
X140217749Y-99812038D01*
X140305142Y-99687229D01*
X140340899Y-99636162D01*
X140340900Y-99636160D01*
X140344056Y-99631653D01*
X140346379Y-99626671D01*
X140346382Y-99626666D01*
X140434795Y-99437061D01*
X140437120Y-99432076D01*
X140494115Y-99219371D01*
X140513307Y-99000000D01*
X140494115Y-98780629D01*
X140437120Y-98567924D01*
X140376316Y-98437528D01*
X140346382Y-98373334D01*
X140346379Y-98373329D01*
X140344056Y-98368347D01*
X140336180Y-98357099D01*
X140220908Y-98192473D01*
X140220906Y-98192470D01*
X140217749Y-98187962D01*
X140062038Y-98032251D01*
X139881654Y-97905944D01*
X139682076Y-97812880D01*
X139469371Y-97755885D01*
X139250000Y-97736693D01*
X139030629Y-97755885D01*
X138817924Y-97812880D01*
X138724562Y-97856415D01*
X138623334Y-97903618D01*
X138623329Y-97903621D01*
X138618347Y-97905944D01*
X138613840Y-97909100D01*
X138613838Y-97909101D01*
X138442473Y-98029092D01*
X138442470Y-98029094D01*
X138437962Y-98032251D01*
X138282251Y-98187962D01*
X138279094Y-98192470D01*
X138279092Y-98192473D01*
X138194859Y-98312771D01*
X138139402Y-98357099D01*
X138091646Y-98366500D01*
X131478768Y-98366500D01*
X131467585Y-98365973D01*
X131460092Y-98364298D01*
X131452166Y-98364547D01*
X131452165Y-98364547D01*
X131392002Y-98366438D01*
X131388044Y-98366500D01*
X131360144Y-98366500D01*
X131356154Y-98367004D01*
X131344320Y-98367936D01*
X131300111Y-98369326D01*
X131292495Y-98371539D01*
X131292493Y-98371539D01*
X131280652Y-98374979D01*
X131261293Y-98378988D01*
X131259983Y-98379154D01*
X131241203Y-98381526D01*
X131233837Y-98384442D01*
X131233831Y-98384444D01*
X131200098Y-98397800D01*
X131188868Y-98401645D01*
X131154017Y-98411770D01*
X131146407Y-98413981D01*
X131139584Y-98418016D01*
X131128966Y-98424295D01*
X131111213Y-98432992D01*
X131103568Y-98436019D01*
X131092383Y-98440448D01*
X131085968Y-98445109D01*
X131056612Y-98466437D01*
X131046695Y-98472951D01*
X131008638Y-98495458D01*
X130994317Y-98509779D01*
X130979284Y-98522619D01*
X130962893Y-98534528D01*
X130957842Y-98540634D01*
X130934702Y-98568605D01*
X130926712Y-98577384D01*
X128007747Y-101496348D01*
X127999461Y-101503888D01*
X127992982Y-101508000D01*
X127987557Y-101513777D01*
X127946357Y-101557651D01*
X127943602Y-101560493D01*
X127923865Y-101580230D01*
X127921385Y-101583427D01*
X127913682Y-101592447D01*
X127883414Y-101624679D01*
X127879595Y-101631625D01*
X127879593Y-101631628D01*
X127873652Y-101642434D01*
X127862801Y-101658953D01*
X127850386Y-101674959D01*
X127847241Y-101682228D01*
X127847238Y-101682232D01*
X127832826Y-101715537D01*
X127827609Y-101726187D01*
X127806305Y-101764940D01*
X127804334Y-101772615D01*
X127804334Y-101772616D01*
X127801267Y-101784562D01*
X127794863Y-101803266D01*
X127786819Y-101821855D01*
X127785580Y-101829678D01*
X127785577Y-101829688D01*
X127779901Y-101865524D01*
X127777495Y-101877144D01*
X127776189Y-101882232D01*
X127766500Y-101919970D01*
X127766500Y-101940224D01*
X127764949Y-101959934D01*
X127761780Y-101979943D01*
X127762526Y-101987835D01*
X127765941Y-102023961D01*
X127766500Y-102035819D01*
X127766500Y-102297476D01*
X127746498Y-102365597D01*
X127734142Y-102381779D01*
X127660960Y-102463056D01*
X127565473Y-102628444D01*
X127506458Y-102810072D01*
X127486496Y-103000000D01*
X127487186Y-103006565D01*
X127501313Y-103140972D01*
X127506458Y-103189928D01*
X127565473Y-103371556D01*
X127660960Y-103536944D01*
X127665378Y-103541851D01*
X127665379Y-103541852D01*
X127784325Y-103673955D01*
X127788747Y-103678866D01*
X127943248Y-103791118D01*
X127949276Y-103793802D01*
X127949278Y-103793803D01*
X127980103Y-103807527D01*
X128117712Y-103868794D01*
X128211112Y-103888647D01*
X128298056Y-103907128D01*
X128298061Y-103907128D01*
X128304513Y-103908500D01*
X128495487Y-103908500D01*
X128501939Y-103907128D01*
X128501944Y-103907128D01*
X128588887Y-103888647D01*
X128682288Y-103868794D01*
X128819897Y-103807527D01*
X128850722Y-103793803D01*
X128850724Y-103793802D01*
X128856752Y-103791118D01*
X129011253Y-103678866D01*
X129015675Y-103673955D01*
X129134621Y-103541852D01*
X129134622Y-103541851D01*
X129139040Y-103536944D01*
X129234527Y-103371556D01*
X129293542Y-103189928D01*
X129298688Y-103140972D01*
X129312814Y-103006565D01*
X129313504Y-103000000D01*
X129293542Y-102810072D01*
X129234527Y-102628444D01*
X129139040Y-102463056D01*
X129073974Y-102390793D01*
X129043257Y-102326785D01*
X129052022Y-102256332D01*
X129078516Y-102217388D01*
X131625499Y-99670405D01*
X131687811Y-99636379D01*
X131714594Y-99633500D01*
X138091646Y-99633500D01*
X138159767Y-99653502D01*
X138194858Y-99687228D01*
X138282251Y-99812038D01*
X138381118Y-99910905D01*
X138415144Y-99973217D01*
X138410079Y-100044032D01*
X138381118Y-100089095D01*
X138282251Y-100187962D01*
X138279094Y-100192470D01*
X138279092Y-100192473D01*
X138194859Y-100312771D01*
X138139402Y-100357099D01*
X138091646Y-100366500D01*
X133478767Y-100366500D01*
X133467584Y-100365973D01*
X133460091Y-100364298D01*
X133452165Y-100364547D01*
X133452164Y-100364547D01*
X133392014Y-100366438D01*
X133388055Y-100366500D01*
X133360144Y-100366500D01*
X133356210Y-100366997D01*
X133356209Y-100366997D01*
X133356144Y-100367005D01*
X133344307Y-100367938D01*
X133313024Y-100368921D01*
X133308029Y-100369078D01*
X133300110Y-100369327D01*
X133290138Y-100372224D01*
X133280658Y-100374978D01*
X133261306Y-100378986D01*
X133256091Y-100379645D01*
X133241203Y-100381526D01*
X133233834Y-100384443D01*
X133233832Y-100384444D01*
X133200097Y-100397800D01*
X133188869Y-100401645D01*
X133146407Y-100413982D01*
X133139585Y-100418016D01*
X133139579Y-100418019D01*
X133128968Y-100424294D01*
X133111218Y-100432990D01*
X133099756Y-100437528D01*
X133099751Y-100437531D01*
X133092383Y-100440448D01*
X133085968Y-100445109D01*
X133056625Y-100466427D01*
X133046707Y-100472943D01*
X133043564Y-100474802D01*
X133008637Y-100495458D01*
X132994313Y-100509782D01*
X132979281Y-100522621D01*
X132962893Y-100534528D01*
X132935265Y-100567924D01*
X132934712Y-100568593D01*
X132926722Y-100577373D01*
X131807747Y-101696348D01*
X131799461Y-101703888D01*
X131792982Y-101708000D01*
X131787557Y-101713777D01*
X131746357Y-101757651D01*
X131743602Y-101760493D01*
X131723865Y-101780230D01*
X131721385Y-101783427D01*
X131713682Y-101792447D01*
X131683414Y-101824679D01*
X131679595Y-101831625D01*
X131679593Y-101831628D01*
X131673652Y-101842434D01*
X131662801Y-101858953D01*
X131650386Y-101874959D01*
X131647241Y-101882228D01*
X131647238Y-101882232D01*
X131632826Y-101915537D01*
X131627609Y-101926187D01*
X131606305Y-101964940D01*
X131604334Y-101972615D01*
X131604334Y-101972616D01*
X131601267Y-101984562D01*
X131594863Y-102003266D01*
X131586819Y-102021855D01*
X131585580Y-102029678D01*
X131585577Y-102029688D01*
X131579901Y-102065524D01*
X131577495Y-102077144D01*
X131566500Y-102119970D01*
X131566500Y-102140224D01*
X131564949Y-102159934D01*
X131561780Y-102179943D01*
X131562526Y-102187835D01*
X131565941Y-102223961D01*
X131566500Y-102235819D01*
X131566500Y-103897476D01*
X131546498Y-103965597D01*
X131534142Y-103981779D01*
X131460960Y-104063056D01*
X131365473Y-104228444D01*
X131306458Y-104410072D01*
X131305768Y-104416633D01*
X131305768Y-104416635D01*
X131296013Y-104509446D01*
X131286496Y-104600000D01*
X131306458Y-104789928D01*
X131365473Y-104971556D01*
X131460960Y-105136944D01*
X131465378Y-105141851D01*
X131465379Y-105141852D01*
X131477702Y-105155538D01*
X131588747Y-105278866D01*
X131743248Y-105391118D01*
X131749276Y-105393802D01*
X131749278Y-105393803D01*
X131911681Y-105466109D01*
X131917712Y-105468794D01*
X132011113Y-105488647D01*
X132098056Y-105507128D01*
X132098061Y-105507128D01*
X132104513Y-105508500D01*
X132295487Y-105508500D01*
X132301939Y-105507128D01*
X132301944Y-105507128D01*
X132388887Y-105488647D01*
X132482288Y-105468794D01*
X132488319Y-105466109D01*
X132650722Y-105393803D01*
X132650724Y-105393802D01*
X132656752Y-105391118D01*
X132811253Y-105278866D01*
X132922298Y-105155538D01*
X132934621Y-105141852D01*
X132934622Y-105141851D01*
X132939040Y-105136944D01*
X133034527Y-104971556D01*
X133093542Y-104789928D01*
X133113504Y-104600000D01*
X133103987Y-104509446D01*
X133094232Y-104416635D01*
X133094232Y-104416633D01*
X133093542Y-104410072D01*
X133034527Y-104228444D01*
X132939040Y-104063056D01*
X132865863Y-103981785D01*
X132835147Y-103917779D01*
X132833500Y-103897476D01*
X132833500Y-103636278D01*
X132853502Y-103568157D01*
X132907158Y-103521664D01*
X132977432Y-103511560D01*
X133010747Y-103521171D01*
X133117712Y-103568794D01*
X133211112Y-103588647D01*
X133298056Y-103607128D01*
X133298061Y-103607128D01*
X133304513Y-103608500D01*
X133352500Y-103608500D01*
X133420621Y-103628502D01*
X133467114Y-103682158D01*
X133478500Y-103734500D01*
X133478500Y-111450405D01*
X133458498Y-111518526D01*
X133404842Y-111565019D01*
X133334568Y-111575123D01*
X133269988Y-111545629D01*
X133263405Y-111539500D01*
X133027122Y-111303217D01*
X132993096Y-111240905D01*
X132990907Y-111227292D01*
X132974232Y-111068635D01*
X132974232Y-111068633D01*
X132973542Y-111062072D01*
X132914527Y-110880444D01*
X132819040Y-110715056D01*
X132691253Y-110573134D01*
X132536752Y-110460882D01*
X132530724Y-110458198D01*
X132530722Y-110458197D01*
X132368319Y-110385891D01*
X132368318Y-110385891D01*
X132362288Y-110383206D01*
X132268887Y-110363353D01*
X132181944Y-110344872D01*
X132181939Y-110344872D01*
X132175487Y-110343500D01*
X131984513Y-110343500D01*
X131978061Y-110344872D01*
X131978056Y-110344872D01*
X131891113Y-110363353D01*
X131797712Y-110383206D01*
X131791682Y-110385891D01*
X131791681Y-110385891D01*
X131629278Y-110458197D01*
X131629276Y-110458198D01*
X131623248Y-110460882D01*
X131468747Y-110573134D01*
X131340960Y-110715056D01*
X131245473Y-110880444D01*
X131186458Y-111062072D01*
X131185768Y-111068633D01*
X131185768Y-111068635D01*
X131178709Y-111135800D01*
X131166496Y-111252000D01*
X131167186Y-111258565D01*
X131185463Y-111432457D01*
X131186458Y-111441928D01*
X131245473Y-111623556D01*
X131248776Y-111629278D01*
X131248777Y-111629279D01*
X131254723Y-111639577D01*
X131340960Y-111788944D01*
X131345378Y-111793851D01*
X131345379Y-111793852D01*
X131410375Y-111866037D01*
X131468747Y-111930866D01*
X131524574Y-111971427D01*
X131607120Y-112031400D01*
X131623248Y-112043118D01*
X131629276Y-112045802D01*
X131629278Y-112045803D01*
X131709078Y-112081332D01*
X131797712Y-112120794D01*
X131891113Y-112140647D01*
X131978056Y-112159128D01*
X131978061Y-112159128D01*
X131984513Y-112160500D01*
X132040406Y-112160500D01*
X132108527Y-112180502D01*
X132129501Y-112197405D01*
X132679595Y-112747499D01*
X132713621Y-112809811D01*
X132716500Y-112836594D01*
X132716500Y-115745233D01*
X132715973Y-115756416D01*
X132714298Y-115763909D01*
X132714547Y-115771835D01*
X132714547Y-115771836D01*
X132716438Y-115831986D01*
X132716500Y-115835945D01*
X132716500Y-115863856D01*
X132716997Y-115867790D01*
X132716997Y-115867791D01*
X132717005Y-115867856D01*
X132717938Y-115879693D01*
X132719327Y-115923889D01*
X132724978Y-115943339D01*
X132728987Y-115962700D01*
X132731526Y-115982797D01*
X132734445Y-115990168D01*
X132734445Y-115990170D01*
X132747804Y-116023912D01*
X132751649Y-116035142D01*
X132763982Y-116077593D01*
X132768015Y-116084412D01*
X132768017Y-116084417D01*
X132774293Y-116095028D01*
X132782988Y-116112776D01*
X132790448Y-116131617D01*
X132795110Y-116138033D01*
X132795110Y-116138034D01*
X132816436Y-116167387D01*
X132822952Y-116177307D01*
X132834961Y-116197612D01*
X132845458Y-116215362D01*
X132859779Y-116229683D01*
X132872619Y-116244716D01*
X132884528Y-116261107D01*
X132918605Y-116289298D01*
X132927384Y-116297288D01*
X140553595Y-123923499D01*
X140587621Y-123985811D01*
X140590500Y-124012594D01*
X140590500Y-127328498D01*
X140570498Y-127396619D01*
X140516842Y-127443112D01*
X140446568Y-127453216D01*
X140381988Y-127423722D01*
X140350305Y-127381748D01*
X140346382Y-127373334D01*
X140346379Y-127373329D01*
X140344056Y-127368347D01*
X140340899Y-127363838D01*
X140220908Y-127192473D01*
X140220906Y-127192470D01*
X140217749Y-127187962D01*
X140062038Y-127032251D01*
X139881654Y-126905944D01*
X139682076Y-126812880D01*
X139469371Y-126755885D01*
X139250000Y-126736693D01*
X139030629Y-126755885D01*
X138817924Y-126812880D01*
X138724562Y-126856415D01*
X138623334Y-126903618D01*
X138623329Y-126903621D01*
X138618347Y-126905944D01*
X138613840Y-126909100D01*
X138613838Y-126909101D01*
X138442473Y-127029092D01*
X138442470Y-127029094D01*
X138437962Y-127032251D01*
X138282251Y-127187962D01*
X138279094Y-127192470D01*
X138279092Y-127192473D01*
X138159101Y-127363838D01*
X138155944Y-127368347D01*
X138153621Y-127373329D01*
X138153618Y-127373334D01*
X138116369Y-127453216D01*
X138062880Y-127567924D01*
X138061456Y-127573237D01*
X138061456Y-127573238D01*
X138045601Y-127632410D01*
X138008650Y-127693033D01*
X137944789Y-127724054D01*
X137874294Y-127715626D01*
X137834799Y-127688894D01*
X135798405Y-125652500D01*
X135764379Y-125590188D01*
X135761500Y-125563405D01*
X135761500Y-124908524D01*
X135781502Y-124840403D01*
X135793858Y-124824221D01*
X135867040Y-124742944D01*
X135942353Y-124612498D01*
X135959223Y-124583279D01*
X135959224Y-124583278D01*
X135962527Y-124577556D01*
X136021542Y-124395928D01*
X136034305Y-124274500D01*
X136040814Y-124212565D01*
X136041504Y-124206000D01*
X136036429Y-124157715D01*
X136022232Y-124022635D01*
X136022232Y-124022633D01*
X136021542Y-124016072D01*
X135962527Y-123834444D01*
X135867040Y-123669056D01*
X135739253Y-123527134D01*
X135621545Y-123441614D01*
X135590094Y-123418763D01*
X135590093Y-123418762D01*
X135584752Y-123414882D01*
X135578724Y-123412198D01*
X135578722Y-123412197D01*
X135416319Y-123339891D01*
X135416318Y-123339891D01*
X135410288Y-123337206D01*
X135289300Y-123311489D01*
X135229944Y-123298872D01*
X135229939Y-123298872D01*
X135223487Y-123297500D01*
X135032513Y-123297500D01*
X135026061Y-123298872D01*
X135026056Y-123298872D01*
X134966700Y-123311489D01*
X134845712Y-123337206D01*
X134839682Y-123339891D01*
X134839681Y-123339891D01*
X134677278Y-123412197D01*
X134677276Y-123412198D01*
X134671248Y-123414882D01*
X134665907Y-123418762D01*
X134665906Y-123418763D01*
X134634455Y-123441614D01*
X134516747Y-123527134D01*
X134388960Y-123669056D01*
X134293473Y-123834444D01*
X134234458Y-124016072D01*
X134219328Y-124160031D01*
X134217093Y-124181292D01*
X134190080Y-124246949D01*
X134180879Y-124257217D01*
X133981662Y-124456433D01*
X133838735Y-124599360D01*
X133816796Y-124615831D01*
X133816882Y-124615949D01*
X133799450Y-124628614D01*
X133781112Y-124641937D01*
X133771195Y-124648451D01*
X133733138Y-124670958D01*
X133718817Y-124685279D01*
X133703784Y-124698119D01*
X133687393Y-124710028D01*
X133682342Y-124716134D01*
X133659202Y-124744105D01*
X133651212Y-124752884D01*
X133448595Y-124955501D01*
X133386283Y-124989527D01*
X133315468Y-124984462D01*
X133258632Y-124941915D01*
X133233821Y-124875395D01*
X133233500Y-124866406D01*
X133233500Y-123784094D01*
X133253502Y-123715973D01*
X133270405Y-123694999D01*
X133591999Y-123373405D01*
X133654311Y-123339379D01*
X133681094Y-123336500D01*
X133736987Y-123336500D01*
X133743439Y-123335128D01*
X133743444Y-123335128D01*
X133837491Y-123315137D01*
X133923788Y-123296794D01*
X133929819Y-123294109D01*
X134092222Y-123221803D01*
X134092224Y-123221802D01*
X134098252Y-123219118D01*
X134252753Y-123106866D01*
X134257920Y-123101128D01*
X134376121Y-122969852D01*
X134376122Y-122969851D01*
X134380540Y-122964944D01*
X134452431Y-122840425D01*
X134472723Y-122805279D01*
X134472724Y-122805278D01*
X134476027Y-122799556D01*
X134535042Y-122617928D01*
X134545684Y-122516680D01*
X134554314Y-122434565D01*
X134555004Y-122428000D01*
X134547274Y-122354457D01*
X134535732Y-122244635D01*
X134535732Y-122244633D01*
X134535042Y-122238072D01*
X134476027Y-122056444D01*
X134380540Y-121891056D01*
X134362627Y-121871161D01*
X134257175Y-121754045D01*
X134257174Y-121754044D01*
X134252753Y-121749134D01*
X134098252Y-121636882D01*
X134092224Y-121634198D01*
X134092222Y-121634197D01*
X133929819Y-121561891D01*
X133929818Y-121561891D01*
X133923788Y-121559206D01*
X133830387Y-121539353D01*
X133743444Y-121520872D01*
X133743439Y-121520872D01*
X133736987Y-121519500D01*
X133546013Y-121519500D01*
X133539561Y-121520872D01*
X133539556Y-121520872D01*
X133452613Y-121539353D01*
X133359212Y-121559206D01*
X133353182Y-121561891D01*
X133353181Y-121561891D01*
X133190778Y-121634197D01*
X133190776Y-121634198D01*
X133184748Y-121636882D01*
X133030247Y-121749134D01*
X133025826Y-121754044D01*
X133025825Y-121754045D01*
X132920374Y-121871161D01*
X132902460Y-121891056D01*
X132806973Y-122056444D01*
X132747958Y-122238072D01*
X132731497Y-122394695D01*
X132730593Y-122403292D01*
X132703580Y-122468949D01*
X132694378Y-122479217D01*
X132207747Y-122965848D01*
X132199461Y-122973388D01*
X132192982Y-122977500D01*
X132187557Y-122983277D01*
X132146357Y-123027151D01*
X132143602Y-123029993D01*
X132123865Y-123049730D01*
X132121385Y-123052927D01*
X132113682Y-123061947D01*
X132083414Y-123094179D01*
X132079595Y-123101125D01*
X132079593Y-123101128D01*
X132073652Y-123111934D01*
X132062801Y-123128453D01*
X132050386Y-123144459D01*
X132047241Y-123151728D01*
X132047238Y-123151732D01*
X132032826Y-123185037D01*
X132027609Y-123195687D01*
X132006305Y-123234440D01*
X132004334Y-123242115D01*
X132004334Y-123242116D01*
X132001267Y-123254062D01*
X131994863Y-123272766D01*
X131986819Y-123291355D01*
X131985580Y-123299178D01*
X131985577Y-123299188D01*
X131979901Y-123335024D01*
X131977495Y-123346644D01*
X131968472Y-123381789D01*
X131966500Y-123389470D01*
X131966500Y-123409724D01*
X131964949Y-123429434D01*
X131961780Y-123449443D01*
X131962526Y-123457335D01*
X131965941Y-123493461D01*
X131966500Y-123505319D01*
X131966500Y-125185406D01*
X131946498Y-125253527D01*
X131929595Y-125274501D01*
X125750000Y-131454095D01*
X125687688Y-131488121D01*
X125660905Y-131491000D01*
X124709094Y-131491000D01*
X124640973Y-131470998D01*
X124594480Y-131417342D01*
X124584376Y-131347068D01*
X124613870Y-131282488D01*
X124619999Y-131275905D01*
X125092247Y-130803657D01*
X125100537Y-130796113D01*
X125107018Y-130792000D01*
X125153659Y-130742332D01*
X125156413Y-130739491D01*
X125176135Y-130719769D01*
X125178612Y-130716576D01*
X125186317Y-130707555D01*
X125190783Y-130702799D01*
X125216586Y-130675321D01*
X125220407Y-130668371D01*
X125226346Y-130657568D01*
X125237202Y-130641041D01*
X125244757Y-130631302D01*
X125244758Y-130631300D01*
X125249614Y-130625040D01*
X125267174Y-130584460D01*
X125272391Y-130573812D01*
X125289875Y-130542009D01*
X125289876Y-130542007D01*
X125293695Y-130535060D01*
X125298733Y-130515437D01*
X125305137Y-130496734D01*
X125310033Y-130485420D01*
X125310033Y-130485419D01*
X125313181Y-130478145D01*
X125314420Y-130470322D01*
X125314423Y-130470312D01*
X125320099Y-130434476D01*
X125322505Y-130422856D01*
X125331528Y-130387711D01*
X125331528Y-130387710D01*
X125333500Y-130380030D01*
X125333500Y-130359776D01*
X125335051Y-130340065D01*
X125336980Y-130327886D01*
X125338220Y-130320057D01*
X125336975Y-130306881D01*
X125334059Y-130276039D01*
X125333500Y-130264181D01*
X125333500Y-129414594D01*
X125353502Y-129346473D01*
X125370405Y-129325499D01*
X129692247Y-125003657D01*
X129700537Y-124996113D01*
X129707018Y-124992000D01*
X129753659Y-124942332D01*
X129756413Y-124939491D01*
X129776134Y-124919770D01*
X129778612Y-124916575D01*
X129786318Y-124907553D01*
X129811158Y-124881101D01*
X129816586Y-124875321D01*
X129826346Y-124857568D01*
X129837199Y-124841045D01*
X129844753Y-124831306D01*
X129849613Y-124825041D01*
X129867176Y-124784457D01*
X129872383Y-124773827D01*
X129893695Y-124735060D01*
X129895666Y-124727383D01*
X129895668Y-124727378D01*
X129898732Y-124715442D01*
X129905138Y-124696730D01*
X129910034Y-124685417D01*
X129913181Y-124678145D01*
X129920097Y-124634481D01*
X129922504Y-124622860D01*
X129931528Y-124587711D01*
X129931528Y-124587710D01*
X129933500Y-124580030D01*
X129933500Y-124559769D01*
X129935051Y-124540058D01*
X129936979Y-124527885D01*
X129938219Y-124520057D01*
X129934059Y-124476046D01*
X129933500Y-124464189D01*
X129933500Y-120402524D01*
X129953502Y-120334403D01*
X129965858Y-120318221D01*
X130039040Y-120236944D01*
X130130971Y-120077715D01*
X130131223Y-120077279D01*
X130131224Y-120077278D01*
X130134527Y-120071556D01*
X130193542Y-119889928D01*
X130200225Y-119826348D01*
X130212814Y-119706565D01*
X130213504Y-119700000D01*
X130193542Y-119510072D01*
X130134527Y-119328444D01*
X130039040Y-119163056D01*
X129915996Y-119026401D01*
X129915675Y-119026045D01*
X129915674Y-119026044D01*
X129911253Y-119021134D01*
X129756752Y-118908882D01*
X129750724Y-118906198D01*
X129750722Y-118906197D01*
X129588319Y-118833891D01*
X129588318Y-118833891D01*
X129582288Y-118831206D01*
X129488887Y-118811353D01*
X129401944Y-118792872D01*
X129401939Y-118792872D01*
X129395487Y-118791500D01*
X129204513Y-118791500D01*
X129198061Y-118792872D01*
X129198056Y-118792872D01*
X129111113Y-118811353D01*
X129017712Y-118831206D01*
X129011682Y-118833891D01*
X129011681Y-118833891D01*
X128849278Y-118906197D01*
X128849276Y-118906198D01*
X128843248Y-118908882D01*
X128688747Y-119021134D01*
X128684326Y-119026044D01*
X128684325Y-119026045D01*
X128684005Y-119026401D01*
X128560960Y-119163056D01*
X128465473Y-119328444D01*
X128406458Y-119510072D01*
X128386496Y-119700000D01*
X128387186Y-119706565D01*
X128399776Y-119826348D01*
X128406458Y-119889928D01*
X128465473Y-120071556D01*
X128468776Y-120077278D01*
X128468777Y-120077279D01*
X128469029Y-120077715D01*
X128560960Y-120236944D01*
X128634137Y-120318215D01*
X128664853Y-120382221D01*
X128666500Y-120402524D01*
X128666500Y-122912618D01*
X128646498Y-122980739D01*
X128592842Y-123027232D01*
X128522568Y-123037336D01*
X128457988Y-123007842D01*
X128418296Y-122943314D01*
X128371214Y-122755875D01*
X128367894Y-122746124D01*
X128282972Y-122550814D01*
X128278105Y-122541739D01*
X128162426Y-122362926D01*
X128156136Y-122354757D01*
X128012806Y-122197240D01*
X128005273Y-122190215D01*
X127838139Y-122058222D01*
X127829552Y-122052517D01*
X127643117Y-121949599D01*
X127633705Y-121945369D01*
X127432959Y-121874280D01*
X127422988Y-121871646D01*
X127351837Y-121858972D01*
X127338540Y-121860432D01*
X127334000Y-121874989D01*
X127334000Y-124508517D01*
X127338064Y-124522359D01*
X127351478Y-124524393D01*
X127358184Y-124523534D01*
X127368262Y-124521392D01*
X127572255Y-124460191D01*
X127581842Y-124456433D01*
X127773095Y-124362739D01*
X127781945Y-124357464D01*
X127955328Y-124233792D01*
X127963200Y-124227139D01*
X128114052Y-124076812D01*
X128120730Y-124068965D01*
X128245003Y-123896020D01*
X128250313Y-123887183D01*
X128344670Y-123696267D01*
X128348469Y-123686672D01*
X128410376Y-123482915D01*
X128412555Y-123472834D01*
X128415578Y-123449873D01*
X128444300Y-123384946D01*
X128503565Y-123345854D01*
X128574557Y-123345009D01*
X128634735Y-123382679D01*
X128664995Y-123446904D01*
X128666500Y-123466319D01*
X128666500Y-124185405D01*
X128646498Y-124253526D01*
X128629595Y-124274500D01*
X124307747Y-128596348D01*
X124299461Y-128603888D01*
X124292982Y-128608000D01*
X124287557Y-128613777D01*
X124246357Y-128657651D01*
X124243602Y-128660493D01*
X124223865Y-128680230D01*
X124221385Y-128683427D01*
X124213682Y-128692447D01*
X124183414Y-128724679D01*
X124179595Y-128731625D01*
X124179593Y-128731628D01*
X124173652Y-128742434D01*
X124162801Y-128758953D01*
X124150386Y-128774959D01*
X124147241Y-128782228D01*
X124147238Y-128782232D01*
X124132826Y-128815537D01*
X124127609Y-128826187D01*
X124106305Y-128864940D01*
X124104334Y-128872615D01*
X124104334Y-128872616D01*
X124101267Y-128884562D01*
X124094863Y-128903266D01*
X124086819Y-128921855D01*
X124085580Y-128929678D01*
X124085577Y-128929688D01*
X124079901Y-128965524D01*
X124077495Y-128977144D01*
X124066500Y-129019970D01*
X124066500Y-129040224D01*
X124064949Y-129059934D01*
X124061780Y-129079943D01*
X124062526Y-129087835D01*
X124065941Y-129123961D01*
X124066500Y-129135819D01*
X124066500Y-129985406D01*
X124046498Y-130053527D01*
X124029595Y-130074501D01*
X120207747Y-133896348D01*
X120199461Y-133903888D01*
X120192982Y-133908000D01*
X120187557Y-133913777D01*
X120146357Y-133957651D01*
X120143602Y-133960493D01*
X120123865Y-133980230D01*
X120121385Y-133983427D01*
X120113682Y-133992447D01*
X120083414Y-134024679D01*
X120079595Y-134031625D01*
X120079593Y-134031628D01*
X120073652Y-134042434D01*
X120062801Y-134058953D01*
X120050386Y-134074959D01*
X120047241Y-134082228D01*
X120047238Y-134082232D01*
X120032826Y-134115537D01*
X120027609Y-134126187D01*
X120006305Y-134164940D01*
X120004334Y-134172615D01*
X120004334Y-134172616D01*
X120001267Y-134184562D01*
X119994863Y-134203266D01*
X119986819Y-134221855D01*
X119985580Y-134229678D01*
X119985577Y-134229688D01*
X119979901Y-134265524D01*
X119977495Y-134277144D01*
X119966500Y-134319970D01*
X119966500Y-134340224D01*
X119964949Y-134359934D01*
X119961780Y-134379943D01*
X119962526Y-134387835D01*
X119965941Y-134423961D01*
X119966500Y-134435819D01*
X119966500Y-135497476D01*
X119946498Y-135565597D01*
X119934142Y-135581779D01*
X119860960Y-135663056D01*
X119765473Y-135828444D01*
X119706458Y-136010072D01*
X119705768Y-136016633D01*
X119705768Y-136016635D01*
X119699017Y-136080872D01*
X119686496Y-136200000D01*
X119706458Y-136389928D01*
X119765473Y-136571556D01*
X119768776Y-136577278D01*
X119768777Y-136577279D01*
X119785176Y-136605683D01*
X119860960Y-136736944D01*
X119878291Y-136756192D01*
X119909007Y-136820198D01*
X119900242Y-136890651D01*
X119854779Y-136945182D01*
X119784653Y-136966500D01*
X118614594Y-136966500D01*
X118546473Y-136946498D01*
X118525503Y-136929599D01*
X117570403Y-135974498D01*
X117536379Y-135912188D01*
X117533500Y-135885405D01*
X117533500Y-131802524D01*
X117553502Y-131734403D01*
X117565858Y-131718221D01*
X117639040Y-131636944D01*
X117720727Y-131495458D01*
X117731223Y-131477279D01*
X117731224Y-131477278D01*
X117734527Y-131471556D01*
X117793542Y-131289928D01*
X117813504Y-131100000D01*
X117798366Y-130955968D01*
X117794232Y-130916635D01*
X117794232Y-130916633D01*
X117793542Y-130910072D01*
X117734527Y-130728444D01*
X117729519Y-130719769D01*
X117681248Y-130636162D01*
X117639040Y-130563056D01*
X117579324Y-130496734D01*
X117515675Y-130426045D01*
X117515674Y-130426044D01*
X117511253Y-130421134D01*
X117356752Y-130308882D01*
X117350724Y-130306198D01*
X117350722Y-130306197D01*
X117188319Y-130233891D01*
X117188318Y-130233891D01*
X117182288Y-130231206D01*
X117075489Y-130208505D01*
X117001944Y-130192872D01*
X117001939Y-130192872D01*
X116995487Y-130191500D01*
X116804513Y-130191500D01*
X116798061Y-130192872D01*
X116798056Y-130192872D01*
X116724511Y-130208505D01*
X116617712Y-130231206D01*
X116611682Y-130233891D01*
X116611681Y-130233891D01*
X116449278Y-130306197D01*
X116449276Y-130306198D01*
X116443248Y-130308882D01*
X116288747Y-130421134D01*
X116284326Y-130426044D01*
X116284325Y-130426045D01*
X116220677Y-130496734D01*
X116160960Y-130563056D01*
X116118752Y-130636162D01*
X116070482Y-130719769D01*
X116065473Y-130728444D01*
X116006458Y-130910072D01*
X116005768Y-130916633D01*
X116005768Y-130916635D01*
X116001634Y-130955968D01*
X115986496Y-131100000D01*
X116006458Y-131289928D01*
X116065473Y-131471556D01*
X116068776Y-131477278D01*
X116068777Y-131477279D01*
X116079273Y-131495458D01*
X116160960Y-131636944D01*
X116234137Y-131718215D01*
X116264853Y-131782221D01*
X116266500Y-131802524D01*
X116266500Y-136121233D01*
X116265973Y-136132416D01*
X116264298Y-136139909D01*
X116264547Y-136147835D01*
X116264547Y-136147836D01*
X116266438Y-136207986D01*
X116266500Y-136211945D01*
X116266500Y-136239856D01*
X116266997Y-136243790D01*
X116266997Y-136243791D01*
X116267005Y-136243856D01*
X116267938Y-136255693D01*
X116269327Y-136299889D01*
X116274978Y-136319339D01*
X116278987Y-136338700D01*
X116281526Y-136358797D01*
X116284445Y-136366168D01*
X116284445Y-136366170D01*
X116297804Y-136399912D01*
X116301649Y-136411142D01*
X116308732Y-136435523D01*
X116313982Y-136453593D01*
X116318015Y-136460412D01*
X116318017Y-136460417D01*
X116324293Y-136471028D01*
X116332988Y-136488776D01*
X116340448Y-136507617D01*
X116345110Y-136514033D01*
X116345110Y-136514034D01*
X116366436Y-136543387D01*
X116372952Y-136553307D01*
X116383745Y-136571556D01*
X116395458Y-136591362D01*
X116409779Y-136605683D01*
X116422619Y-136620716D01*
X116434528Y-136637107D01*
X116468605Y-136665298D01*
X116477384Y-136673288D01*
X117705500Y-137901405D01*
X117739526Y-137963717D01*
X117734461Y-138034533D01*
X117691914Y-138091368D01*
X117625394Y-138116179D01*
X117616405Y-138116500D01*
X117218148Y-138116500D01*
X117150027Y-138096498D01*
X117129053Y-138079595D01*
X112230912Y-133181454D01*
X112218075Y-133166426D01*
X112210185Y-133155566D01*
X112160816Y-133111114D01*
X112156031Y-133106573D01*
X112141986Y-133092528D01*
X112139409Y-133090441D01*
X112126554Y-133080031D01*
X112121538Y-133075747D01*
X112077080Y-133035717D01*
X112077075Y-133035713D01*
X112072169Y-133031296D01*
X112060552Y-133024589D01*
X112044259Y-133013391D01*
X112038971Y-133009109D01*
X112033839Y-133004953D01*
X111974637Y-132974787D01*
X111968867Y-132971654D01*
X111917055Y-132941740D01*
X111917050Y-132941738D01*
X111911331Y-132938436D01*
X111905051Y-132936395D01*
X111905043Y-132936392D01*
X111898579Y-132934292D01*
X111880317Y-132926728D01*
X111874251Y-132923637D01*
X111874242Y-132923634D01*
X111868363Y-132920638D01*
X111857672Y-132917773D01*
X111804196Y-132903444D01*
X111797894Y-132901578D01*
X111734702Y-132881046D01*
X111721372Y-132879645D01*
X111701929Y-132876042D01*
X111688971Y-132872570D01*
X111682381Y-132872225D01*
X111682377Y-132872224D01*
X111638427Y-132869921D01*
X111622628Y-132869093D01*
X111616069Y-132868577D01*
X111596306Y-132866500D01*
X111576445Y-132866500D01*
X111569850Y-132866327D01*
X111510098Y-132863195D01*
X111510094Y-132863195D01*
X111503507Y-132862850D01*
X111490253Y-132864949D01*
X111470544Y-132866500D01*
X109259500Y-132866500D01*
X109191379Y-132846498D01*
X109144886Y-132792842D01*
X109133500Y-132740500D01*
X109133500Y-131224095D01*
X109153502Y-131155974D01*
X109178931Y-131127221D01*
X109282748Y-131040877D01*
X109287186Y-131037186D01*
X109417458Y-130880551D01*
X109495664Y-130740905D01*
X109514180Y-130707842D01*
X109514181Y-130707840D01*
X109517004Y-130702799D01*
X109518860Y-130697332D01*
X109518862Y-130697327D01*
X109580634Y-130515352D01*
X109580635Y-130515347D01*
X109582490Y-130509883D01*
X109611723Y-130308263D01*
X109613249Y-130250000D01*
X109601860Y-130126049D01*
X109595137Y-130052880D01*
X109595136Y-130052877D01*
X109594608Y-130047126D01*
X109539307Y-129851047D01*
X109528680Y-129829496D01*
X109451756Y-129673510D01*
X109449201Y-129668329D01*
X109430796Y-129643681D01*
X109330758Y-129509715D01*
X109330758Y-129509714D01*
X109327305Y-129505091D01*
X109193874Y-129381748D01*
X109181943Y-129370719D01*
X109181940Y-129370717D01*
X109177703Y-129366800D01*
X109112245Y-129325499D01*
X109010288Y-129261169D01*
X109010283Y-129261167D01*
X109005404Y-129258088D01*
X108816180Y-129182595D01*
X108616366Y-129142849D01*
X108610592Y-129142773D01*
X108610588Y-129142773D01*
X108507452Y-129141424D01*
X108412655Y-129140183D01*
X108406958Y-129141162D01*
X108406957Y-129141162D01*
X108217567Y-129173705D01*
X108211870Y-129174684D01*
X108020734Y-129245198D01*
X108015773Y-129248150D01*
X108015772Y-129248150D01*
X107885761Y-129325499D01*
X107845649Y-129349363D01*
X107692478Y-129483690D01*
X107688911Y-129488215D01*
X107688906Y-129488220D01*
X107626073Y-129567924D01*
X107566351Y-129643681D01*
X107471492Y-129823978D01*
X107411078Y-130018543D01*
X107387132Y-130220859D01*
X107387510Y-130226624D01*
X107389678Y-130259702D01*
X107384324Y-130302528D01*
X107384459Y-130302557D01*
X107384123Y-130304139D01*
X107383780Y-130306881D01*
X107383086Y-130309016D01*
X107383084Y-130309025D01*
X107381046Y-130315298D01*
X107380356Y-130321863D01*
X107379645Y-130328628D01*
X107376042Y-130348071D01*
X107372570Y-130361029D01*
X107372225Y-130367619D01*
X107372224Y-130367623D01*
X107369921Y-130411573D01*
X107369125Y-130426765D01*
X107369093Y-130427367D01*
X107368577Y-130433931D01*
X107366500Y-130453694D01*
X107366500Y-130473555D01*
X107366327Y-130480150D01*
X107363438Y-130535283D01*
X107362850Y-130546493D01*
X107363882Y-130553007D01*
X107364949Y-130559744D01*
X107366500Y-130579456D01*
X107366500Y-132801523D01*
X107346498Y-132869644D01*
X107329595Y-132890618D01*
X107282251Y-132937962D01*
X107279094Y-132942470D01*
X107279092Y-132942473D01*
X107159101Y-133113838D01*
X107155944Y-133118347D01*
X107153621Y-133123329D01*
X107153618Y-133123334D01*
X107106415Y-133224562D01*
X107062880Y-133317924D01*
X107005885Y-133530629D01*
X106986693Y-133750000D01*
X107005885Y-133969371D01*
X107062880Y-134182076D01*
X107065205Y-134187061D01*
X107153618Y-134376666D01*
X107153621Y-134376671D01*
X107155944Y-134381653D01*
X107159100Y-134386160D01*
X107159101Y-134386162D01*
X107274531Y-134551012D01*
X107282251Y-134562038D01*
X107437962Y-134717749D01*
X107442471Y-134720906D01*
X107442473Y-134720908D01*
X107613842Y-134840903D01*
X107613848Y-134840907D01*
X107618346Y-134844056D01*
X107757329Y-134908864D01*
X107793174Y-134933963D01*
X108237189Y-135377979D01*
X108251132Y-135385592D01*
X108252966Y-135385461D01*
X108259580Y-135381210D01*
X108706826Y-134933963D01*
X108742671Y-134908864D01*
X108881654Y-134844056D01*
X108886152Y-134840907D01*
X108886158Y-134840903D01*
X109057527Y-134720908D01*
X109057529Y-134720906D01*
X109062038Y-134717749D01*
X109109382Y-134670405D01*
X109171694Y-134636379D01*
X109198477Y-134633500D01*
X111131852Y-134633500D01*
X111199973Y-134653502D01*
X111220947Y-134670405D01*
X116012994Y-139462452D01*
X116033018Y-139488547D01*
X116060960Y-139536944D01*
X116065378Y-139541851D01*
X116065379Y-139541852D01*
X116167375Y-139655130D01*
X116188747Y-139678866D01*
X116343248Y-139791118D01*
X116349276Y-139793802D01*
X116349278Y-139793803D01*
X116511681Y-139866109D01*
X116517712Y-139868794D01*
X116587712Y-139883673D01*
X116698056Y-139907128D01*
X116698061Y-139907128D01*
X116704513Y-139908500D01*
X116895487Y-139908500D01*
X116901939Y-139907128D01*
X116901944Y-139907128D01*
X117000150Y-139886253D01*
X117026347Y-139883500D01*
X134903659Y-139883500D01*
X134971780Y-139903502D01*
X135018273Y-139957158D01*
X135028377Y-140027432D01*
X134999470Y-140091330D01*
X134919824Y-140184584D01*
X134917245Y-140188792D01*
X134917241Y-140188798D01*
X134846736Y-140303852D01*
X134795760Y-140387037D01*
X134793867Y-140391607D01*
X134793865Y-140391611D01*
X134706789Y-140601833D01*
X134704895Y-140606406D01*
X134703740Y-140611218D01*
X134653616Y-140820000D01*
X134649465Y-140837289D01*
X134630835Y-141074000D01*
X134649465Y-141310711D01*
X134704895Y-141541594D01*
X134706788Y-141546165D01*
X134706789Y-141546167D01*
X134775966Y-141713175D01*
X134795760Y-141760963D01*
X134798346Y-141765183D01*
X134917241Y-141959202D01*
X134917245Y-141959208D01*
X134919824Y-141963416D01*
X135074031Y-142143969D01*
X135254584Y-142298176D01*
X135258792Y-142300755D01*
X135258798Y-142300759D01*
X135452817Y-142419654D01*
X135457037Y-142422240D01*
X135461607Y-142424133D01*
X135461611Y-142424135D01*
X135671833Y-142511211D01*
X135676406Y-142513105D01*
X135756609Y-142532360D01*
X135902476Y-142567380D01*
X135902482Y-142567381D01*
X135907289Y-142568535D01*
X136144000Y-142587165D01*
X136380711Y-142568535D01*
X136385518Y-142567381D01*
X136385524Y-142567380D01*
X136531391Y-142532360D01*
X136611594Y-142513105D01*
X136616167Y-142511211D01*
X136826389Y-142424135D01*
X136826393Y-142424133D01*
X136830963Y-142422240D01*
X136835183Y-142419654D01*
X137029202Y-142300759D01*
X137029208Y-142300755D01*
X137033416Y-142298176D01*
X137213969Y-142143969D01*
X137368176Y-141963416D01*
X137370755Y-141959208D01*
X137370759Y-141959202D01*
X137489654Y-141765183D01*
X137492240Y-141760963D01*
X137512035Y-141713175D01*
X137581211Y-141546167D01*
X137581212Y-141546165D01*
X137583105Y-141541594D01*
X137638535Y-141310711D01*
X137657165Y-141074000D01*
X139130835Y-141074000D01*
X139149465Y-141310711D01*
X139204895Y-141541594D01*
X139206788Y-141546165D01*
X139206789Y-141546167D01*
X139275966Y-141713175D01*
X139295760Y-141760963D01*
X139298346Y-141765183D01*
X139417241Y-141959202D01*
X139417245Y-141959208D01*
X139419824Y-141963416D01*
X139574031Y-142143969D01*
X139754584Y-142298176D01*
X139758792Y-142300755D01*
X139758798Y-142300759D01*
X139952817Y-142419654D01*
X139957037Y-142422240D01*
X139961607Y-142424133D01*
X139961611Y-142424135D01*
X140171833Y-142511211D01*
X140176406Y-142513105D01*
X140256609Y-142532360D01*
X140402476Y-142567380D01*
X140402482Y-142567381D01*
X140407289Y-142568535D01*
X140644000Y-142587165D01*
X140880711Y-142568535D01*
X140885518Y-142567381D01*
X140885524Y-142567380D01*
X141031391Y-142532360D01*
X141111594Y-142513105D01*
X141116167Y-142511211D01*
X141326389Y-142424135D01*
X141326393Y-142424133D01*
X141330963Y-142422240D01*
X141335183Y-142419654D01*
X141529202Y-142300759D01*
X141529208Y-142300755D01*
X141533416Y-142298176D01*
X141713969Y-142143969D01*
X141868176Y-141963416D01*
X141870755Y-141959208D01*
X141870759Y-141959202D01*
X141989654Y-141765183D01*
X141992240Y-141760963D01*
X142012035Y-141713175D01*
X142081211Y-141546167D01*
X142081212Y-141546165D01*
X142083105Y-141541594D01*
X142138535Y-141310711D01*
X142157165Y-141074000D01*
X142138535Y-140837289D01*
X142134385Y-140820000D01*
X142084260Y-140611218D01*
X142083105Y-140606406D01*
X142081211Y-140601833D01*
X141994135Y-140391611D01*
X141994133Y-140391607D01*
X141992240Y-140387037D01*
X141941264Y-140303852D01*
X141870759Y-140188798D01*
X141870755Y-140188792D01*
X141868176Y-140184584D01*
X141713969Y-140004031D01*
X141533416Y-139849824D01*
X141529208Y-139847245D01*
X141529202Y-139847241D01*
X141335183Y-139728346D01*
X141330963Y-139725760D01*
X141326393Y-139723867D01*
X141326389Y-139723865D01*
X141116167Y-139636789D01*
X141116165Y-139636788D01*
X141111594Y-139634895D01*
X141031391Y-139615640D01*
X140885524Y-139580620D01*
X140885518Y-139580619D01*
X140880711Y-139579465D01*
X140644000Y-139560835D01*
X140407289Y-139579465D01*
X140402482Y-139580619D01*
X140402476Y-139580620D01*
X140256609Y-139615640D01*
X140176406Y-139634895D01*
X140171835Y-139636788D01*
X140171833Y-139636789D01*
X139961611Y-139723865D01*
X139961607Y-139723867D01*
X139957037Y-139725760D01*
X139952817Y-139728346D01*
X139758798Y-139847241D01*
X139758792Y-139847245D01*
X139754584Y-139849824D01*
X139574031Y-140004031D01*
X139419824Y-140184584D01*
X139417245Y-140188792D01*
X139417241Y-140188798D01*
X139346736Y-140303852D01*
X139295760Y-140387037D01*
X139293867Y-140391607D01*
X139293865Y-140391611D01*
X139206789Y-140601833D01*
X139204895Y-140606406D01*
X139203740Y-140611218D01*
X139153616Y-140820000D01*
X139149465Y-140837289D01*
X139130835Y-141074000D01*
X137657165Y-141074000D01*
X137638535Y-140837289D01*
X137634385Y-140820000D01*
X137584260Y-140611218D01*
X137583105Y-140606406D01*
X137581211Y-140601833D01*
X137494135Y-140391611D01*
X137494133Y-140391607D01*
X137492240Y-140387037D01*
X137441264Y-140303852D01*
X137370759Y-140188798D01*
X137370755Y-140188792D01*
X137368176Y-140184584D01*
X137288530Y-140091330D01*
X137259499Y-140026541D01*
X137270104Y-139956341D01*
X137316979Y-139903019D01*
X137384341Y-139883500D01*
X137820543Y-139883500D01*
X137840255Y-139885051D01*
X137853507Y-139887150D01*
X137860094Y-139886805D01*
X137860098Y-139886805D01*
X137919850Y-139883673D01*
X137926445Y-139883500D01*
X137946306Y-139883500D01*
X137966069Y-139881423D01*
X137972628Y-139880907D01*
X137988427Y-139880079D01*
X138032377Y-139877776D01*
X138032381Y-139877775D01*
X138038971Y-139877430D01*
X138051929Y-139873958D01*
X138071372Y-139870355D01*
X138071795Y-139870311D01*
X138084702Y-139868954D01*
X138147894Y-139848422D01*
X138154196Y-139846556D01*
X138211985Y-139831071D01*
X138218363Y-139829362D01*
X138224242Y-139826366D01*
X138224251Y-139826363D01*
X138230317Y-139823272D01*
X138248579Y-139815708D01*
X138255043Y-139813608D01*
X138255051Y-139813605D01*
X138261331Y-139811564D01*
X138267050Y-139808262D01*
X138267055Y-139808260D01*
X138318867Y-139778346D01*
X138324637Y-139775213D01*
X138383839Y-139745047D01*
X138394259Y-139736609D01*
X138410552Y-139725411D01*
X138410903Y-139725209D01*
X138422169Y-139718704D01*
X138427075Y-139714287D01*
X138427080Y-139714283D01*
X138471538Y-139674253D01*
X138476554Y-139669969D01*
X138489409Y-139659559D01*
X138489412Y-139659556D01*
X138491986Y-139657472D01*
X138506031Y-139643427D01*
X138510816Y-139638886D01*
X138555274Y-139598856D01*
X138555275Y-139598855D01*
X138560185Y-139594434D01*
X138568075Y-139583574D01*
X138580912Y-139568546D01*
X143168542Y-134980915D01*
X143183577Y-134968074D01*
X143189084Y-134964073D01*
X143189090Y-134964068D01*
X143194434Y-134960185D01*
X143238895Y-134910806D01*
X143243436Y-134906021D01*
X143257472Y-134891985D01*
X143259545Y-134889425D01*
X143259555Y-134889414D01*
X143268080Y-134878886D01*
X143326494Y-134838534D01*
X143397451Y-134836168D01*
X143458423Y-134872541D01*
X143490051Y-134936104D01*
X143492000Y-134958180D01*
X143492000Y-152950672D01*
X143490500Y-152970056D01*
X143486814Y-152993730D01*
X143489274Y-153012539D01*
X143489341Y-153013050D01*
X143490253Y-153035570D01*
X143479364Y-153257216D01*
X143475489Y-153336094D01*
X143474278Y-153348394D01*
X143451320Y-153503164D01*
X143425811Y-153675130D01*
X143423401Y-153687249D01*
X143399278Y-153783552D01*
X143343139Y-154007674D01*
X143339549Y-154019507D01*
X143228275Y-154330494D01*
X143223544Y-154341918D01*
X143177386Y-154439511D01*
X143104504Y-154593609D01*
X143082315Y-154640523D01*
X143076486Y-154651428D01*
X142906672Y-154934745D01*
X142899802Y-154945026D01*
X142703040Y-155210329D01*
X142695196Y-155219887D01*
X142473374Y-155464630D01*
X142464630Y-155473374D01*
X142219887Y-155695196D01*
X142210329Y-155703040D01*
X141945026Y-155899802D01*
X141934745Y-155906672D01*
X141651428Y-156076486D01*
X141640523Y-156082315D01*
X141341918Y-156223544D01*
X141330494Y-156228275D01*
X141019507Y-156339549D01*
X141007676Y-156343138D01*
X140687249Y-156423401D01*
X140675139Y-156425809D01*
X140348394Y-156474278D01*
X140336098Y-156475489D01*
X140247344Y-156479849D01*
X140042938Y-156489890D01*
X140017376Y-156488543D01*
X140015143Y-156488195D01*
X140015139Y-156488195D01*
X140006270Y-156486814D01*
X139997368Y-156487978D01*
X139997365Y-156487978D01*
X139978083Y-156490500D01*
X139975728Y-156490808D01*
X139974749Y-156490936D01*
X139958411Y-156492000D01*
X106049328Y-156492000D01*
X106029943Y-156490500D01*
X106015142Y-156488195D01*
X106015139Y-156488195D01*
X106006270Y-156486814D01*
X105986946Y-156489341D01*
X105964430Y-156490253D01*
X105663900Y-156475488D01*
X105651606Y-156474278D01*
X105324861Y-156425809D01*
X105312751Y-156423401D01*
X104992324Y-156343138D01*
X104980493Y-156339549D01*
X104669506Y-156228275D01*
X104658082Y-156223544D01*
X104359477Y-156082315D01*
X104348572Y-156076486D01*
X104065255Y-155906672D01*
X104054974Y-155899802D01*
X103789671Y-155703040D01*
X103780113Y-155695196D01*
X103535370Y-155473374D01*
X103526626Y-155464630D01*
X103304804Y-155219887D01*
X103296960Y-155210329D01*
X103100198Y-154945026D01*
X103093328Y-154934745D01*
X102923514Y-154651428D01*
X102917685Y-154640523D01*
X102895497Y-154593609D01*
X102822614Y-154439511D01*
X102776456Y-154341918D01*
X102771725Y-154330494D01*
X102660451Y-154019507D01*
X102656861Y-154007674D01*
X102600722Y-153783552D01*
X102576599Y-153687249D01*
X102574189Y-153675130D01*
X102548681Y-153503164D01*
X102525722Y-153348394D01*
X102524511Y-153336093D01*
X102510293Y-153046665D01*
X102511886Y-153019586D01*
X102512264Y-153017340D01*
X102512265Y-153017331D01*
X102513071Y-153012539D01*
X102513224Y-153000000D01*
X104386526Y-153000000D01*
X104406391Y-153252403D01*
X104465495Y-153498591D01*
X104467388Y-153503162D01*
X104467389Y-153503164D01*
X104541157Y-153681255D01*
X104562384Y-153732502D01*
X104694672Y-153948376D01*
X104859102Y-154140898D01*
X105051624Y-154305328D01*
X105267498Y-154437616D01*
X105272068Y-154439509D01*
X105272072Y-154439511D01*
X105496836Y-154532611D01*
X105501409Y-154534505D01*
X105586032Y-154554821D01*
X105742784Y-154592454D01*
X105742790Y-154592455D01*
X105747597Y-154593609D01*
X105847416Y-154601465D01*
X105934345Y-154608307D01*
X105934352Y-154608307D01*
X105936801Y-154608500D01*
X106063199Y-154608500D01*
X106065648Y-154608307D01*
X106065655Y-154608307D01*
X106152584Y-154601465D01*
X106252403Y-154593609D01*
X106257210Y-154592455D01*
X106257216Y-154592454D01*
X106413968Y-154554821D01*
X106498591Y-154534505D01*
X106503164Y-154532611D01*
X106727928Y-154439511D01*
X106727932Y-154439509D01*
X106732502Y-154437616D01*
X106948376Y-154305328D01*
X107140898Y-154140898D01*
X107305328Y-153948376D01*
X107437616Y-153732502D01*
X107458844Y-153681255D01*
X107532611Y-153503164D01*
X107532612Y-153503162D01*
X107534505Y-153498591D01*
X107593609Y-153252403D01*
X107613474Y-153000000D01*
X138386526Y-153000000D01*
X138406391Y-153252403D01*
X138465495Y-153498591D01*
X138467388Y-153503162D01*
X138467389Y-153503164D01*
X138541157Y-153681255D01*
X138562384Y-153732502D01*
X138694672Y-153948376D01*
X138859102Y-154140898D01*
X139051624Y-154305328D01*
X139267498Y-154437616D01*
X139272068Y-154439509D01*
X139272072Y-154439511D01*
X139496836Y-154532611D01*
X139501409Y-154534505D01*
X139586032Y-154554821D01*
X139742784Y-154592454D01*
X139742790Y-154592455D01*
X139747597Y-154593609D01*
X139847416Y-154601465D01*
X139934345Y-154608307D01*
X139934352Y-154608307D01*
X139936801Y-154608500D01*
X140063199Y-154608500D01*
X140065648Y-154608307D01*
X140065655Y-154608307D01*
X140152584Y-154601465D01*
X140252403Y-154593609D01*
X140257210Y-154592455D01*
X140257216Y-154592454D01*
X140413968Y-154554821D01*
X140498591Y-154534505D01*
X140503164Y-154532611D01*
X140727928Y-154439511D01*
X140727932Y-154439509D01*
X140732502Y-154437616D01*
X140948376Y-154305328D01*
X141140898Y-154140898D01*
X141305328Y-153948376D01*
X141437616Y-153732502D01*
X141458844Y-153681255D01*
X141532611Y-153503164D01*
X141532612Y-153503162D01*
X141534505Y-153498591D01*
X141593609Y-153252403D01*
X141613474Y-153000000D01*
X141593609Y-152747597D01*
X141534505Y-152501409D01*
X141437616Y-152267498D01*
X141305328Y-152051624D01*
X141140898Y-151859102D01*
X140948376Y-151694672D01*
X140732502Y-151562384D01*
X140727932Y-151560491D01*
X140727928Y-151560489D01*
X140503164Y-151467389D01*
X140503162Y-151467388D01*
X140498591Y-151465495D01*
X140413968Y-151445179D01*
X140257216Y-151407546D01*
X140257210Y-151407545D01*
X140252403Y-151406391D01*
X140152584Y-151398535D01*
X140065655Y-151391693D01*
X140065648Y-151391693D01*
X140063199Y-151391500D01*
X139936801Y-151391500D01*
X139934352Y-151391693D01*
X139934345Y-151391693D01*
X139847416Y-151398535D01*
X139747597Y-151406391D01*
X139742790Y-151407545D01*
X139742784Y-151407546D01*
X139586032Y-151445179D01*
X139501409Y-151465495D01*
X139496838Y-151467388D01*
X139496836Y-151467389D01*
X139272072Y-151560489D01*
X139272068Y-151560491D01*
X139267498Y-151562384D01*
X139051624Y-151694672D01*
X138859102Y-151859102D01*
X138694672Y-152051624D01*
X138562384Y-152267498D01*
X138465495Y-152501409D01*
X138406391Y-152747597D01*
X138386526Y-153000000D01*
X107613474Y-153000000D01*
X107593609Y-152747597D01*
X107534505Y-152501409D01*
X107437616Y-152267498D01*
X107305328Y-152051624D01*
X107140898Y-151859102D01*
X106948376Y-151694672D01*
X106732502Y-151562384D01*
X106727932Y-151560491D01*
X106727928Y-151560489D01*
X106503164Y-151467389D01*
X106503162Y-151467388D01*
X106498591Y-151465495D01*
X106413968Y-151445179D01*
X106257216Y-151407546D01*
X106257210Y-151407545D01*
X106252403Y-151406391D01*
X106152584Y-151398535D01*
X106065655Y-151391693D01*
X106065648Y-151391693D01*
X106063199Y-151391500D01*
X105936801Y-151391500D01*
X105934352Y-151391693D01*
X105934345Y-151391693D01*
X105847416Y-151398535D01*
X105747597Y-151406391D01*
X105742790Y-151407545D01*
X105742784Y-151407546D01*
X105586032Y-151445179D01*
X105501409Y-151465495D01*
X105496838Y-151467388D01*
X105496836Y-151467389D01*
X105272072Y-151560489D01*
X105272068Y-151560491D01*
X105267498Y-151562384D01*
X105051624Y-151694672D01*
X104859102Y-151859102D01*
X104694672Y-152051624D01*
X104562384Y-152267498D01*
X104465495Y-152501409D01*
X104406391Y-152747597D01*
X104386526Y-153000000D01*
X102513224Y-153000000D01*
X102509273Y-152972412D01*
X102508000Y-152954549D01*
X102508000Y-148552670D01*
X104796160Y-148552670D01*
X104801887Y-148560320D01*
X104973042Y-148665205D01*
X104981837Y-148669687D01*
X105191988Y-148756734D01*
X105201373Y-148759783D01*
X105422554Y-148812885D01*
X105432301Y-148814428D01*
X105659070Y-148832275D01*
X105668930Y-148832275D01*
X105895699Y-148814428D01*
X105905446Y-148812885D01*
X106126627Y-148759783D01*
X106136012Y-148756734D01*
X106346163Y-148669687D01*
X106354958Y-148665205D01*
X106522445Y-148562568D01*
X106531907Y-148552110D01*
X106528124Y-148543334D01*
X105676812Y-147692022D01*
X105662868Y-147684408D01*
X105661035Y-147684539D01*
X105654420Y-147688790D01*
X104802920Y-148540290D01*
X104796160Y-148552670D01*
X102508000Y-148552670D01*
X102508000Y-147324930D01*
X104151725Y-147324930D01*
X104169572Y-147551699D01*
X104171115Y-147561446D01*
X104224217Y-147782627D01*
X104227266Y-147792012D01*
X104314313Y-148002163D01*
X104318795Y-148010958D01*
X104421432Y-148178445D01*
X104431890Y-148187907D01*
X104440666Y-148184124D01*
X105291978Y-147332812D01*
X105298356Y-147321132D01*
X106028408Y-147321132D01*
X106028539Y-147322965D01*
X106032790Y-147329580D01*
X106884290Y-148181080D01*
X106896670Y-148187840D01*
X106904320Y-148182113D01*
X107009205Y-148010958D01*
X107013687Y-148002163D01*
X107100734Y-147792012D01*
X107103783Y-147782627D01*
X107156885Y-147561446D01*
X107158428Y-147551699D01*
X107176275Y-147324930D01*
X107176275Y-147320000D01*
X108650835Y-147320000D01*
X108669465Y-147556711D01*
X108670619Y-147561518D01*
X108670620Y-147561524D01*
X108700122Y-147684408D01*
X108724895Y-147787594D01*
X108726788Y-147792165D01*
X108726789Y-147792167D01*
X108813772Y-148002163D01*
X108815760Y-148006963D01*
X108818346Y-148011183D01*
X108937241Y-148205202D01*
X108937245Y-148205208D01*
X108939824Y-148209416D01*
X109094031Y-148389969D01*
X109274584Y-148544176D01*
X109278792Y-148546755D01*
X109278798Y-148546759D01*
X109472084Y-148665205D01*
X109477037Y-148668240D01*
X109481607Y-148670133D01*
X109481611Y-148670135D01*
X109691833Y-148757211D01*
X109696406Y-148759105D01*
X109776609Y-148778360D01*
X109922476Y-148813380D01*
X109922482Y-148813381D01*
X109927289Y-148814535D01*
X110164000Y-148833165D01*
X110400711Y-148814535D01*
X110405518Y-148813381D01*
X110405524Y-148813380D01*
X110433473Y-148806670D01*
X135276160Y-148806670D01*
X135281887Y-148814320D01*
X135453042Y-148919205D01*
X135461837Y-148923687D01*
X135671988Y-149010734D01*
X135681373Y-149013783D01*
X135902554Y-149066885D01*
X135912301Y-149068428D01*
X136139070Y-149086275D01*
X136148930Y-149086275D01*
X136375699Y-149068428D01*
X136385446Y-149066885D01*
X136606627Y-149013783D01*
X136616012Y-149010734D01*
X136826163Y-148923687D01*
X136834958Y-148919205D01*
X137002445Y-148816568D01*
X137011400Y-148806670D01*
X139776160Y-148806670D01*
X139781887Y-148814320D01*
X139953042Y-148919205D01*
X139961837Y-148923687D01*
X140171988Y-149010734D01*
X140181373Y-149013783D01*
X140402554Y-149066885D01*
X140412301Y-149068428D01*
X140639070Y-149086275D01*
X140648930Y-149086275D01*
X140875699Y-149068428D01*
X140885446Y-149066885D01*
X141106627Y-149013783D01*
X141116012Y-149010734D01*
X141326163Y-148923687D01*
X141334958Y-148919205D01*
X141502445Y-148816568D01*
X141511907Y-148806110D01*
X141508124Y-148797334D01*
X140656812Y-147946022D01*
X140642868Y-147938408D01*
X140641035Y-147938539D01*
X140634420Y-147942790D01*
X139782920Y-148794290D01*
X139776160Y-148806670D01*
X137011400Y-148806670D01*
X137011907Y-148806110D01*
X137008124Y-148797334D01*
X136156812Y-147946022D01*
X136142868Y-147938408D01*
X136141035Y-147938539D01*
X136134420Y-147942790D01*
X135282920Y-148794290D01*
X135276160Y-148806670D01*
X110433473Y-148806670D01*
X110551391Y-148778360D01*
X110631594Y-148759105D01*
X110636167Y-148757211D01*
X110846389Y-148670135D01*
X110846393Y-148670133D01*
X110850963Y-148668240D01*
X110855916Y-148665205D01*
X111049202Y-148546759D01*
X111049208Y-148546755D01*
X111053416Y-148544176D01*
X111233969Y-148389969D01*
X111388176Y-148209416D01*
X111390755Y-148205208D01*
X111390759Y-148205202D01*
X111509654Y-148011183D01*
X111512240Y-148006963D01*
X111514229Y-148002163D01*
X111601211Y-147792167D01*
X111601212Y-147792165D01*
X111603105Y-147787594D01*
X111627878Y-147684408D01*
X111653201Y-147578930D01*
X134631725Y-147578930D01*
X134649572Y-147805699D01*
X134651115Y-147815446D01*
X134704217Y-148036627D01*
X134707266Y-148046012D01*
X134794313Y-148256163D01*
X134798795Y-148264958D01*
X134901432Y-148432445D01*
X134911890Y-148441907D01*
X134920666Y-148438124D01*
X135771978Y-147586812D01*
X135778356Y-147575132D01*
X136508408Y-147575132D01*
X136508539Y-147576965D01*
X136512790Y-147583580D01*
X137364290Y-148435080D01*
X137376670Y-148441840D01*
X137384320Y-148436113D01*
X137489205Y-148264958D01*
X137493687Y-148256163D01*
X137580734Y-148046012D01*
X137583783Y-148036627D01*
X137636885Y-147815446D01*
X137638428Y-147805699D01*
X137656275Y-147578930D01*
X139131725Y-147578930D01*
X139149572Y-147805699D01*
X139151115Y-147815446D01*
X139204217Y-148036627D01*
X139207266Y-148046012D01*
X139294313Y-148256163D01*
X139298795Y-148264958D01*
X139401432Y-148432445D01*
X139411890Y-148441907D01*
X139420666Y-148438124D01*
X140271978Y-147586812D01*
X140278356Y-147575132D01*
X141008408Y-147575132D01*
X141008539Y-147576965D01*
X141012790Y-147583580D01*
X141864290Y-148435080D01*
X141876670Y-148441840D01*
X141884320Y-148436113D01*
X141989205Y-148264958D01*
X141993687Y-148256163D01*
X142080734Y-148046012D01*
X142083783Y-148036627D01*
X142136885Y-147815446D01*
X142138428Y-147805699D01*
X142156275Y-147578930D01*
X142156275Y-147569070D01*
X142138428Y-147342301D01*
X142136885Y-147332554D01*
X142083783Y-147111373D01*
X142080734Y-147101988D01*
X141993687Y-146891837D01*
X141989205Y-146883042D01*
X141886568Y-146715555D01*
X141876110Y-146706093D01*
X141867334Y-146709876D01*
X141016022Y-147561188D01*
X141008408Y-147575132D01*
X140278356Y-147575132D01*
X140279592Y-147572868D01*
X140279461Y-147571035D01*
X140275210Y-147564420D01*
X139423710Y-146712920D01*
X139411330Y-146706160D01*
X139403680Y-146711887D01*
X139298795Y-146883042D01*
X139294313Y-146891837D01*
X139207266Y-147101988D01*
X139204217Y-147111373D01*
X139151115Y-147332554D01*
X139149572Y-147342301D01*
X139131725Y-147569070D01*
X139131725Y-147578930D01*
X137656275Y-147578930D01*
X137656275Y-147569070D01*
X137638428Y-147342301D01*
X137636885Y-147332554D01*
X137583783Y-147111373D01*
X137580734Y-147101988D01*
X137493687Y-146891837D01*
X137489205Y-146883042D01*
X137386568Y-146715555D01*
X137376110Y-146706093D01*
X137367334Y-146709876D01*
X136516022Y-147561188D01*
X136508408Y-147575132D01*
X135778356Y-147575132D01*
X135779592Y-147572868D01*
X135779461Y-147571035D01*
X135775210Y-147564420D01*
X134923710Y-146712920D01*
X134911330Y-146706160D01*
X134903680Y-146711887D01*
X134798795Y-146883042D01*
X134794313Y-146891837D01*
X134707266Y-147101988D01*
X134704217Y-147111373D01*
X134651115Y-147332554D01*
X134649572Y-147342301D01*
X134631725Y-147569070D01*
X134631725Y-147578930D01*
X111653201Y-147578930D01*
X111657380Y-147561524D01*
X111657381Y-147561518D01*
X111658535Y-147556711D01*
X111677165Y-147320000D01*
X111658535Y-147083289D01*
X111603105Y-146852406D01*
X111546420Y-146715555D01*
X111514135Y-146637611D01*
X111514133Y-146637607D01*
X111512240Y-146633037D01*
X111509654Y-146628817D01*
X111390759Y-146434798D01*
X111390755Y-146434792D01*
X111388176Y-146430584D01*
X111312424Y-146341890D01*
X135276093Y-146341890D01*
X135279876Y-146350666D01*
X136131188Y-147201978D01*
X136145132Y-147209592D01*
X136146965Y-147209461D01*
X136153580Y-147205210D01*
X137005080Y-146353710D01*
X137011534Y-146341890D01*
X139776093Y-146341890D01*
X139779876Y-146350666D01*
X140631188Y-147201978D01*
X140645132Y-147209592D01*
X140646965Y-147209461D01*
X140653580Y-147205210D01*
X141505080Y-146353710D01*
X141511840Y-146341330D01*
X141506113Y-146333680D01*
X141334958Y-146228795D01*
X141326163Y-146224313D01*
X141116012Y-146137266D01*
X141106627Y-146134217D01*
X140885446Y-146081115D01*
X140875699Y-146079572D01*
X140648930Y-146061725D01*
X140639070Y-146061725D01*
X140412301Y-146079572D01*
X140402554Y-146081115D01*
X140181373Y-146134217D01*
X140171988Y-146137266D01*
X139961837Y-146224313D01*
X139953042Y-146228795D01*
X139785555Y-146331432D01*
X139776093Y-146341890D01*
X137011534Y-146341890D01*
X137011840Y-146341330D01*
X137006113Y-146333680D01*
X136834958Y-146228795D01*
X136826163Y-146224313D01*
X136616012Y-146137266D01*
X136606627Y-146134217D01*
X136385446Y-146081115D01*
X136375699Y-146079572D01*
X136148930Y-146061725D01*
X136139070Y-146061725D01*
X135912301Y-146079572D01*
X135902554Y-146081115D01*
X135681373Y-146134217D01*
X135671988Y-146137266D01*
X135461837Y-146224313D01*
X135453042Y-146228795D01*
X135285555Y-146331432D01*
X135276093Y-146341890D01*
X111312424Y-146341890D01*
X111233969Y-146250031D01*
X111053416Y-146095824D01*
X111049208Y-146093245D01*
X111049202Y-146093241D01*
X110855183Y-145974346D01*
X110850963Y-145971760D01*
X110846393Y-145969867D01*
X110846389Y-145969865D01*
X110636167Y-145882789D01*
X110636165Y-145882788D01*
X110631594Y-145880895D01*
X110551391Y-145861640D01*
X110405524Y-145826620D01*
X110405518Y-145826619D01*
X110400711Y-145825465D01*
X110164000Y-145806835D01*
X109927289Y-145825465D01*
X109922482Y-145826619D01*
X109922476Y-145826620D01*
X109776609Y-145861640D01*
X109696406Y-145880895D01*
X109691835Y-145882788D01*
X109691833Y-145882789D01*
X109481611Y-145969865D01*
X109481607Y-145969867D01*
X109477037Y-145971760D01*
X109472817Y-145974346D01*
X109278798Y-146093241D01*
X109278792Y-146093245D01*
X109274584Y-146095824D01*
X109094031Y-146250031D01*
X108939824Y-146430584D01*
X108937245Y-146434792D01*
X108937241Y-146434798D01*
X108818346Y-146628817D01*
X108815760Y-146633037D01*
X108813867Y-146637607D01*
X108813865Y-146637611D01*
X108781580Y-146715555D01*
X108724895Y-146852406D01*
X108669465Y-147083289D01*
X108650835Y-147320000D01*
X107176275Y-147320000D01*
X107176275Y-147315070D01*
X107158428Y-147088301D01*
X107156885Y-147078554D01*
X107103783Y-146857373D01*
X107100734Y-146847988D01*
X107013687Y-146637837D01*
X107009205Y-146629042D01*
X106906568Y-146461555D01*
X106896110Y-146452093D01*
X106887334Y-146455876D01*
X106036022Y-147307188D01*
X106028408Y-147321132D01*
X105298356Y-147321132D01*
X105299592Y-147318868D01*
X105299461Y-147317035D01*
X105295210Y-147310420D01*
X104443710Y-146458920D01*
X104431330Y-146452160D01*
X104423680Y-146457887D01*
X104318795Y-146629042D01*
X104314313Y-146637837D01*
X104227266Y-146847988D01*
X104224217Y-146857373D01*
X104171115Y-147078554D01*
X104169572Y-147088301D01*
X104151725Y-147315070D01*
X104151725Y-147324930D01*
X102508000Y-147324930D01*
X102508000Y-146087890D01*
X104796093Y-146087890D01*
X104799876Y-146096666D01*
X105651188Y-146947978D01*
X105665132Y-146955592D01*
X105666965Y-146955461D01*
X105673580Y-146951210D01*
X106525080Y-146099710D01*
X106531840Y-146087330D01*
X106526113Y-146079680D01*
X106354958Y-145974795D01*
X106346163Y-145970313D01*
X106136012Y-145883266D01*
X106126627Y-145880217D01*
X105905446Y-145827115D01*
X105895699Y-145825572D01*
X105668930Y-145807725D01*
X105659070Y-145807725D01*
X105432301Y-145825572D01*
X105422554Y-145827115D01*
X105201373Y-145880217D01*
X105191988Y-145883266D01*
X104981837Y-145970313D01*
X104973042Y-145974795D01*
X104805555Y-146077432D01*
X104796093Y-146087890D01*
X102508000Y-146087890D01*
X102508000Y-138704474D01*
X102528002Y-138636353D01*
X102581658Y-138589860D01*
X102651932Y-138579756D01*
X102716512Y-138609250D01*
X102754896Y-138668976D01*
X102756888Y-138678528D01*
X102758532Y-138684932D01*
X102759526Y-138692797D01*
X102762445Y-138700168D01*
X102762445Y-138700170D01*
X102775804Y-138733912D01*
X102779649Y-138745142D01*
X102791982Y-138787593D01*
X102796015Y-138794412D01*
X102796017Y-138794417D01*
X102802293Y-138805028D01*
X102810988Y-138822776D01*
X102818448Y-138841617D01*
X102823110Y-138848033D01*
X102823110Y-138848034D01*
X102844436Y-138877387D01*
X102850952Y-138887307D01*
X102873458Y-138925362D01*
X102887779Y-138939683D01*
X102900619Y-138954716D01*
X102912528Y-138971107D01*
X102918634Y-138976158D01*
X102946605Y-138999298D01*
X102955384Y-139007288D01*
X104189636Y-140241540D01*
X104223662Y-140303852D01*
X104223060Y-140360049D01*
X104169465Y-140583289D01*
X104150835Y-140820000D01*
X104169465Y-141056711D01*
X104170619Y-141061518D01*
X104170620Y-141061524D01*
X104174799Y-141078930D01*
X104224895Y-141287594D01*
X104226788Y-141292165D01*
X104226789Y-141292167D01*
X104232427Y-141305777D01*
X104315760Y-141506963D01*
X104318346Y-141511183D01*
X104437241Y-141705202D01*
X104437245Y-141705208D01*
X104439824Y-141709416D01*
X104594031Y-141889969D01*
X104774584Y-142044176D01*
X104778792Y-142046755D01*
X104778798Y-142046759D01*
X104942665Y-142147177D01*
X104977037Y-142168240D01*
X104981607Y-142170133D01*
X104981611Y-142170135D01*
X105191833Y-142257211D01*
X105196406Y-142259105D01*
X105276609Y-142278360D01*
X105422476Y-142313380D01*
X105422482Y-142313381D01*
X105427289Y-142314535D01*
X105664000Y-142333165D01*
X105900711Y-142314535D01*
X105905518Y-142313381D01*
X105905524Y-142313380D01*
X106051391Y-142278360D01*
X106131594Y-142259105D01*
X106136167Y-142257211D01*
X106346389Y-142170135D01*
X106346393Y-142170133D01*
X106350963Y-142168240D01*
X106385335Y-142147177D01*
X106549202Y-142046759D01*
X106549208Y-142046755D01*
X106553416Y-142044176D01*
X106733969Y-141889969D01*
X106888176Y-141709416D01*
X106890755Y-141705208D01*
X106890759Y-141705202D01*
X107009654Y-141511183D01*
X107012240Y-141506963D01*
X107095574Y-141305777D01*
X107101211Y-141292167D01*
X107101212Y-141292165D01*
X107103105Y-141287594D01*
X107153201Y-141078930D01*
X107157380Y-141061524D01*
X107157381Y-141061518D01*
X107158535Y-141056711D01*
X107177165Y-140820000D01*
X108650835Y-140820000D01*
X108669465Y-141056711D01*
X108670619Y-141061518D01*
X108670620Y-141061524D01*
X108674799Y-141078930D01*
X108724895Y-141287594D01*
X108726788Y-141292165D01*
X108726789Y-141292167D01*
X108732427Y-141305777D01*
X108815760Y-141506963D01*
X108818346Y-141511183D01*
X108937241Y-141705202D01*
X108937245Y-141705208D01*
X108939824Y-141709416D01*
X109094031Y-141889969D01*
X109274584Y-142044176D01*
X109278792Y-142046755D01*
X109278798Y-142046759D01*
X109442665Y-142147177D01*
X109477037Y-142168240D01*
X109481607Y-142170133D01*
X109481611Y-142170135D01*
X109691833Y-142257211D01*
X109696406Y-142259105D01*
X109776609Y-142278360D01*
X109922476Y-142313380D01*
X109922482Y-142313381D01*
X109927289Y-142314535D01*
X110164000Y-142333165D01*
X110400711Y-142314535D01*
X110405518Y-142313381D01*
X110405524Y-142313380D01*
X110551391Y-142278360D01*
X110631594Y-142259105D01*
X110636167Y-142257211D01*
X110846389Y-142170135D01*
X110846393Y-142170133D01*
X110850963Y-142168240D01*
X110885335Y-142147177D01*
X111049202Y-142046759D01*
X111049208Y-142046755D01*
X111053416Y-142044176D01*
X111233969Y-141889969D01*
X111388176Y-141709416D01*
X111390755Y-141705208D01*
X111390759Y-141705202D01*
X111509654Y-141511183D01*
X111512240Y-141506963D01*
X111595574Y-141305777D01*
X111601211Y-141292167D01*
X111601212Y-141292165D01*
X111603105Y-141287594D01*
X111653201Y-141078930D01*
X111657380Y-141061524D01*
X111657381Y-141061518D01*
X111658535Y-141056711D01*
X111677165Y-140820000D01*
X111658535Y-140583289D01*
X111603105Y-140352406D01*
X111601211Y-140347833D01*
X111514135Y-140137611D01*
X111514133Y-140137607D01*
X111512240Y-140133037D01*
X111509654Y-140128817D01*
X111390759Y-139934798D01*
X111390755Y-139934792D01*
X111388176Y-139930584D01*
X111233969Y-139750031D01*
X111228134Y-139745047D01*
X111197290Y-139718704D01*
X111053416Y-139595824D01*
X111049208Y-139593245D01*
X111049202Y-139593241D01*
X110855183Y-139474346D01*
X110850963Y-139471760D01*
X110846393Y-139469867D01*
X110846389Y-139469865D01*
X110636167Y-139382789D01*
X110636165Y-139382788D01*
X110631594Y-139380895D01*
X110551391Y-139361640D01*
X110405524Y-139326620D01*
X110405518Y-139326619D01*
X110400711Y-139325465D01*
X110164000Y-139306835D01*
X109927289Y-139325465D01*
X109922482Y-139326619D01*
X109922476Y-139326620D01*
X109776609Y-139361640D01*
X109696406Y-139380895D01*
X109691835Y-139382788D01*
X109691833Y-139382789D01*
X109481611Y-139469865D01*
X109481607Y-139469867D01*
X109477037Y-139471760D01*
X109472817Y-139474346D01*
X109278798Y-139593241D01*
X109278792Y-139593245D01*
X109274584Y-139595824D01*
X109130710Y-139718704D01*
X109099867Y-139745047D01*
X109094031Y-139750031D01*
X108939824Y-139930584D01*
X108937245Y-139934792D01*
X108937241Y-139934798D01*
X108818346Y-140128817D01*
X108815760Y-140133037D01*
X108813867Y-140137607D01*
X108813865Y-140137611D01*
X108726789Y-140347833D01*
X108724895Y-140352406D01*
X108669465Y-140583289D01*
X108650835Y-140820000D01*
X107177165Y-140820000D01*
X107158535Y-140583289D01*
X107103105Y-140352406D01*
X107101211Y-140347833D01*
X107014135Y-140137611D01*
X107014133Y-140137607D01*
X107012240Y-140133037D01*
X107009654Y-140128817D01*
X106890759Y-139934798D01*
X106890755Y-139934792D01*
X106888176Y-139930584D01*
X106733969Y-139750031D01*
X106728134Y-139745047D01*
X106697290Y-139718704D01*
X106553416Y-139595824D01*
X106549208Y-139593245D01*
X106549202Y-139593241D01*
X106355183Y-139474346D01*
X106350963Y-139471760D01*
X106346393Y-139469867D01*
X106346389Y-139469865D01*
X106136167Y-139382789D01*
X106136165Y-139382788D01*
X106131594Y-139380895D01*
X106051391Y-139361640D01*
X105905524Y-139326620D01*
X105905518Y-139326619D01*
X105900711Y-139325465D01*
X105664000Y-139306835D01*
X105427289Y-139325465D01*
X105422482Y-139326619D01*
X105422476Y-139326620D01*
X105256896Y-139366373D01*
X105204049Y-139379060D01*
X105133142Y-139375513D01*
X105085541Y-139345636D01*
X104048405Y-138308500D01*
X104014379Y-138246188D01*
X104011500Y-138219405D01*
X104011500Y-136800161D01*
X107564393Y-136800161D01*
X107573687Y-136812175D01*
X107614088Y-136840464D01*
X107623584Y-136845947D01*
X107813113Y-136934326D01*
X107823405Y-136938072D01*
X108025401Y-136992196D01*
X108036196Y-136994099D01*
X108244525Y-137012326D01*
X108255475Y-137012326D01*
X108463804Y-136994099D01*
X108474599Y-136992196D01*
X108676595Y-136938072D01*
X108686887Y-136934326D01*
X108876416Y-136845947D01*
X108885912Y-136840464D01*
X108927148Y-136811590D01*
X108935523Y-136801112D01*
X108928457Y-136787668D01*
X108262811Y-136122021D01*
X108248868Y-136114408D01*
X108247034Y-136114539D01*
X108240420Y-136118790D01*
X107570820Y-136788391D01*
X107564393Y-136800161D01*
X104011500Y-136800161D01*
X104011500Y-135755475D01*
X106987674Y-135755475D01*
X107005901Y-135963804D01*
X107007804Y-135974599D01*
X107061928Y-136176595D01*
X107065674Y-136186887D01*
X107154054Y-136376417D01*
X107159534Y-136385907D01*
X107188411Y-136427149D01*
X107198887Y-136435523D01*
X107212334Y-136428455D01*
X107877979Y-135762811D01*
X107884356Y-135751132D01*
X108614408Y-135751132D01*
X108614539Y-135752966D01*
X108618790Y-135759580D01*
X109288391Y-136429180D01*
X109300161Y-136435607D01*
X109312176Y-136426311D01*
X109340466Y-136385907D01*
X109345946Y-136376417D01*
X109434326Y-136186887D01*
X109438072Y-136176595D01*
X109492196Y-135974599D01*
X109494099Y-135963804D01*
X109512326Y-135755475D01*
X109512326Y-135744525D01*
X109494099Y-135536196D01*
X109492196Y-135525401D01*
X109438072Y-135323405D01*
X109434326Y-135313113D01*
X109345946Y-135123583D01*
X109340466Y-135114093D01*
X109311589Y-135072851D01*
X109301113Y-135064477D01*
X109287666Y-135071545D01*
X108622021Y-135737189D01*
X108614408Y-135751132D01*
X107884356Y-135751132D01*
X107885592Y-135748868D01*
X107885461Y-135747034D01*
X107881210Y-135740420D01*
X107211609Y-135070820D01*
X107199839Y-135064393D01*
X107187824Y-135073689D01*
X107159534Y-135114093D01*
X107154054Y-135123583D01*
X107065674Y-135313113D01*
X107061928Y-135323405D01*
X107007804Y-135525401D01*
X107005901Y-135536196D01*
X106987674Y-135744525D01*
X106987674Y-135755475D01*
X104011500Y-135755475D01*
X104011500Y-112366051D01*
X104031502Y-112297930D01*
X104048405Y-112276956D01*
X104705855Y-111619506D01*
X104768167Y-111585480D01*
X104838982Y-111590545D01*
X104895818Y-111633092D01*
X104920629Y-111699612D01*
X104909238Y-111761651D01*
X104892688Y-111797305D01*
X104832989Y-112012570D01*
X104809251Y-112234695D01*
X104809548Y-112239848D01*
X104809548Y-112239851D01*
X104815011Y-112334590D01*
X104822110Y-112457715D01*
X104823247Y-112462761D01*
X104823248Y-112462767D01*
X104843119Y-112550939D01*
X104871222Y-112675639D01*
X104955266Y-112882616D01*
X104957965Y-112887020D01*
X105049380Y-113036196D01*
X105071987Y-113073088D01*
X105218250Y-113241938D01*
X105390126Y-113384632D01*
X105460595Y-113425811D01*
X105463445Y-113427476D01*
X105512169Y-113479114D01*
X105525240Y-113548897D01*
X105498509Y-113614669D01*
X105458055Y-113648027D01*
X105445607Y-113654507D01*
X105441474Y-113657610D01*
X105441471Y-113657612D01*
X105271100Y-113785530D01*
X105266965Y-113788635D01*
X105112629Y-113950138D01*
X104986743Y-114134680D01*
X104892688Y-114337305D01*
X104832989Y-114552570D01*
X104809251Y-114774695D01*
X104809548Y-114779848D01*
X104809548Y-114779851D01*
X104815011Y-114874590D01*
X104822110Y-114997715D01*
X104823247Y-115002761D01*
X104823248Y-115002767D01*
X104830762Y-115036106D01*
X104871222Y-115215639D01*
X104909461Y-115309811D01*
X104951032Y-115412188D01*
X104955266Y-115422616D01*
X105071987Y-115613088D01*
X105218250Y-115781938D01*
X105343789Y-115886162D01*
X105379693Y-115915970D01*
X105390126Y-115924632D01*
X105455272Y-115962700D01*
X105463445Y-115967476D01*
X105512169Y-116019114D01*
X105525240Y-116088897D01*
X105498509Y-116154669D01*
X105458055Y-116188027D01*
X105445607Y-116194507D01*
X105441474Y-116197610D01*
X105441471Y-116197612D01*
X105308715Y-116297288D01*
X105266965Y-116328635D01*
X105112629Y-116490138D01*
X104986743Y-116674680D01*
X104971003Y-116708590D01*
X104900325Y-116860853D01*
X104892688Y-116877305D01*
X104832989Y-117092570D01*
X104809251Y-117314695D01*
X104809548Y-117319848D01*
X104809548Y-117319851D01*
X104821611Y-117529053D01*
X104822110Y-117537715D01*
X104823247Y-117542761D01*
X104823248Y-117542767D01*
X104844275Y-117636069D01*
X104871222Y-117755639D01*
X104955266Y-117962616D01*
X104957965Y-117967020D01*
X105060737Y-118134729D01*
X105071987Y-118153088D01*
X105218250Y-118321938D01*
X105390126Y-118464632D01*
X105431666Y-118488906D01*
X105463445Y-118507476D01*
X105512169Y-118559114D01*
X105525240Y-118628897D01*
X105498509Y-118694669D01*
X105458055Y-118728027D01*
X105445607Y-118734507D01*
X105441474Y-118737610D01*
X105441471Y-118737612D01*
X105271445Y-118865271D01*
X105266965Y-118868635D01*
X105112629Y-119030138D01*
X104986743Y-119214680D01*
X104892688Y-119417305D01*
X104832989Y-119632570D01*
X104809251Y-119854695D01*
X104809548Y-119859848D01*
X104809548Y-119859851D01*
X104814948Y-119953502D01*
X104822110Y-120077715D01*
X104823247Y-120082761D01*
X104823248Y-120082767D01*
X104836600Y-120142012D01*
X104871222Y-120295639D01*
X104909461Y-120389811D01*
X104952009Y-120494594D01*
X104955266Y-120502616D01*
X104976919Y-120537951D01*
X105055144Y-120665602D01*
X105071987Y-120693088D01*
X105218250Y-120861938D01*
X105390126Y-121004632D01*
X105422961Y-121023819D01*
X105463445Y-121047476D01*
X105512169Y-121099114D01*
X105525240Y-121168897D01*
X105498509Y-121234669D01*
X105458055Y-121268027D01*
X105445607Y-121274507D01*
X105441474Y-121277610D01*
X105441471Y-121277612D01*
X105417247Y-121295800D01*
X105266965Y-121408635D01*
X105112629Y-121570138D01*
X104986743Y-121754680D01*
X104950017Y-121833800D01*
X104898441Y-121944912D01*
X104892688Y-121957305D01*
X104832989Y-122172570D01*
X104809251Y-122394695D01*
X104809548Y-122399848D01*
X104809548Y-122399851D01*
X104821744Y-122611365D01*
X104822110Y-122617715D01*
X104823247Y-122622761D01*
X104823248Y-122622767D01*
X104840971Y-122701406D01*
X104871222Y-122835639D01*
X104955266Y-123042616D01*
X104965016Y-123058527D01*
X105065072Y-123221803D01*
X105071987Y-123233088D01*
X105218250Y-123401938D01*
X105222230Y-123405242D01*
X105226981Y-123409187D01*
X105266616Y-123468090D01*
X105268113Y-123539071D01*
X105230997Y-123599593D01*
X105190724Y-123624112D01*
X105075295Y-123667385D01*
X104958739Y-123754739D01*
X104871385Y-123871295D01*
X104820255Y-124007684D01*
X104813500Y-124069866D01*
X104813500Y-125866134D01*
X104820255Y-125928316D01*
X104871385Y-126064705D01*
X104958739Y-126181261D01*
X105075295Y-126268615D01*
X105211684Y-126319745D01*
X105273866Y-126326500D01*
X107070134Y-126326500D01*
X107132316Y-126319745D01*
X107268705Y-126268615D01*
X107385261Y-126181261D01*
X107472615Y-126064705D01*
X107523745Y-125928316D01*
X107530500Y-125866134D01*
X107530500Y-124069866D01*
X107523745Y-124007684D01*
X107472615Y-123871295D01*
X107385261Y-123754739D01*
X107268705Y-123667385D01*
X107256132Y-123662672D01*
X107150203Y-123622960D01*
X107093439Y-123580318D01*
X107068739Y-123513756D01*
X107083947Y-123444408D01*
X107105493Y-123415727D01*
X107175611Y-123345854D01*
X107210096Y-123311489D01*
X107219670Y-123298166D01*
X107337435Y-123134277D01*
X107340453Y-123130077D01*
X107345129Y-123120617D01*
X107437136Y-122934453D01*
X107437137Y-122934451D01*
X107439430Y-122929811D01*
X107504370Y-122716069D01*
X107533529Y-122494590D01*
X107533639Y-122490074D01*
X107535074Y-122431365D01*
X107535074Y-122431361D01*
X107535156Y-122428000D01*
X107516852Y-122205361D01*
X107462431Y-121988702D01*
X107373354Y-121783840D01*
X107305078Y-121678302D01*
X107254822Y-121600617D01*
X107254820Y-121600614D01*
X107252014Y-121596277D01*
X107101670Y-121431051D01*
X107097619Y-121427852D01*
X107097615Y-121427848D01*
X106930414Y-121295800D01*
X106930410Y-121295798D01*
X106926359Y-121292598D01*
X106885053Y-121269796D01*
X106835084Y-121219364D01*
X106820312Y-121149921D01*
X106845428Y-121083516D01*
X106872780Y-121056909D01*
X106924611Y-121019938D01*
X107051860Y-120929173D01*
X107210096Y-120771489D01*
X107269594Y-120688689D01*
X107337435Y-120594277D01*
X107340453Y-120590077D01*
X107378478Y-120513140D01*
X107437136Y-120394453D01*
X107437137Y-120394451D01*
X107439430Y-120389811D01*
X107504370Y-120176069D01*
X107533529Y-119954590D01*
X107533959Y-119936980D01*
X107535074Y-119891365D01*
X107535074Y-119891361D01*
X107535156Y-119888000D01*
X107516852Y-119665361D01*
X107462431Y-119448702D01*
X107373354Y-119243840D01*
X107324792Y-119168774D01*
X107254822Y-119060617D01*
X107254820Y-119060614D01*
X107252014Y-119056277D01*
X107101670Y-118891051D01*
X107097619Y-118887852D01*
X107097615Y-118887848D01*
X106930414Y-118755800D01*
X106930410Y-118755798D01*
X106926359Y-118752598D01*
X106885053Y-118729796D01*
X106835084Y-118679364D01*
X106820312Y-118609921D01*
X106845428Y-118543516D01*
X106872780Y-118516909D01*
X106896485Y-118500000D01*
X110886496Y-118500000D01*
X110887186Y-118506565D01*
X110905348Y-118679364D01*
X110906458Y-118689928D01*
X110965473Y-118871556D01*
X111060960Y-119036944D01*
X111188747Y-119178866D01*
X111343248Y-119291118D01*
X111349276Y-119293802D01*
X111349278Y-119293803D01*
X111441200Y-119334729D01*
X111517712Y-119368794D01*
X111611112Y-119388647D01*
X111698056Y-119407128D01*
X111698061Y-119407128D01*
X111704513Y-119408500D01*
X111760405Y-119408500D01*
X111828526Y-119428502D01*
X111849500Y-119445405D01*
X112096348Y-119692253D01*
X112103888Y-119700539D01*
X112108000Y-119707018D01*
X112113777Y-119712443D01*
X112157651Y-119753643D01*
X112160493Y-119756398D01*
X112180230Y-119776135D01*
X112183427Y-119778615D01*
X112192447Y-119786318D01*
X112224679Y-119816586D01*
X112231625Y-119820405D01*
X112231628Y-119820407D01*
X112242434Y-119826348D01*
X112258953Y-119837199D01*
X112274959Y-119849614D01*
X112282228Y-119852759D01*
X112282232Y-119852762D01*
X112315537Y-119867174D01*
X112326187Y-119872391D01*
X112364940Y-119893695D01*
X112372615Y-119895666D01*
X112372616Y-119895666D01*
X112384562Y-119898733D01*
X112403267Y-119905137D01*
X112421855Y-119913181D01*
X112429678Y-119914420D01*
X112429688Y-119914423D01*
X112465524Y-119920099D01*
X112477144Y-119922505D01*
X112512289Y-119931528D01*
X112519970Y-119933500D01*
X112540224Y-119933500D01*
X112559934Y-119935051D01*
X112579943Y-119938220D01*
X112587835Y-119937474D01*
X112623961Y-119934059D01*
X112635819Y-119933500D01*
X118866406Y-119933500D01*
X118934527Y-119953502D01*
X118981020Y-120007158D01*
X118991124Y-120077432D01*
X118961630Y-120142012D01*
X118955503Y-120148593D01*
X118102768Y-121001327D01*
X117309500Y-121794595D01*
X117247188Y-121828621D01*
X117220405Y-121831500D01*
X116021866Y-121831500D01*
X115959684Y-121838255D01*
X115823295Y-121889385D01*
X115706739Y-121976739D01*
X115619385Y-122093295D01*
X115568255Y-122229684D01*
X115561500Y-122291866D01*
X115561500Y-124088134D01*
X115568255Y-124150316D01*
X115619385Y-124286705D01*
X115706739Y-124403261D01*
X115823295Y-124490615D01*
X115959684Y-124541745D01*
X116021866Y-124548500D01*
X117818134Y-124548500D01*
X117880316Y-124541745D01*
X118016705Y-124490615D01*
X118133261Y-124403261D01*
X118220615Y-124286705D01*
X118242799Y-124227529D01*
X118264598Y-124169382D01*
X118307240Y-124112618D01*
X118373802Y-124087918D01*
X118443150Y-124103126D01*
X118477817Y-124131114D01*
X118506250Y-124163938D01*
X118678126Y-124306632D01*
X118871000Y-124419338D01*
X119079692Y-124499030D01*
X119084760Y-124500061D01*
X119084763Y-124500062D01*
X119144252Y-124512165D01*
X119298597Y-124543567D01*
X119303772Y-124543757D01*
X119303774Y-124543757D01*
X119516673Y-124551564D01*
X119516677Y-124551564D01*
X119521837Y-124551753D01*
X119526957Y-124551097D01*
X119526959Y-124551097D01*
X119738288Y-124524025D01*
X119738289Y-124524025D01*
X119743416Y-124523368D01*
X119748366Y-124521883D01*
X119952429Y-124460661D01*
X119952434Y-124460659D01*
X119957384Y-124459174D01*
X120157994Y-124360896D01*
X120339860Y-124231173D01*
X120349140Y-124221926D01*
X120483616Y-124087918D01*
X120498096Y-124073489D01*
X120503141Y-124066469D01*
X120628453Y-123892077D01*
X120629776Y-123893028D01*
X120676645Y-123849857D01*
X120746580Y-123837625D01*
X120812026Y-123865144D01*
X120839875Y-123896994D01*
X120899987Y-123995088D01*
X121046250Y-124163938D01*
X121218126Y-124306632D01*
X121411000Y-124419338D01*
X121619692Y-124499030D01*
X121624760Y-124500061D01*
X121624763Y-124500062D01*
X121684252Y-124512165D01*
X121838597Y-124543567D01*
X121843772Y-124543757D01*
X121843774Y-124543757D01*
X122056673Y-124551564D01*
X122056677Y-124551564D01*
X122061837Y-124551753D01*
X122066957Y-124551097D01*
X122066959Y-124551097D01*
X122278288Y-124524025D01*
X122278289Y-124524025D01*
X122283416Y-124523368D01*
X122288366Y-124521883D01*
X122492429Y-124460661D01*
X122492434Y-124460659D01*
X122497384Y-124459174D01*
X122697994Y-124360896D01*
X122879860Y-124231173D01*
X122889140Y-124221926D01*
X123023616Y-124087918D01*
X123038096Y-124073489D01*
X123043141Y-124066469D01*
X123168453Y-123892077D01*
X123169776Y-123893028D01*
X123216645Y-123849857D01*
X123286580Y-123837625D01*
X123352026Y-123865144D01*
X123379875Y-123896994D01*
X123439987Y-123995088D01*
X123586250Y-124163938D01*
X123758126Y-124306632D01*
X123951000Y-124419338D01*
X124159692Y-124499030D01*
X124164760Y-124500061D01*
X124164763Y-124500062D01*
X124224252Y-124512165D01*
X124378597Y-124543567D01*
X124383772Y-124543757D01*
X124383774Y-124543757D01*
X124596673Y-124551564D01*
X124596677Y-124551564D01*
X124601837Y-124551753D01*
X124606957Y-124551097D01*
X124606959Y-124551097D01*
X124818288Y-124524025D01*
X124818289Y-124524025D01*
X124823416Y-124523368D01*
X124828366Y-124521883D01*
X125032429Y-124460661D01*
X125032434Y-124460659D01*
X125037384Y-124459174D01*
X125237994Y-124360896D01*
X125419860Y-124231173D01*
X125429140Y-124221926D01*
X125563616Y-124087918D01*
X125578096Y-124073489D01*
X125583141Y-124066469D01*
X125708453Y-123892077D01*
X125709640Y-123892930D01*
X125756960Y-123849362D01*
X125826897Y-123837145D01*
X125892338Y-123864678D01*
X125920166Y-123896511D01*
X125977694Y-123990388D01*
X125983777Y-123998699D01*
X126123213Y-124159667D01*
X126130580Y-124166883D01*
X126294434Y-124302916D01*
X126302881Y-124308831D01*
X126486756Y-124416279D01*
X126496042Y-124420729D01*
X126695001Y-124496703D01*
X126704899Y-124499579D01*
X126808250Y-124520606D01*
X126822299Y-124519410D01*
X126826000Y-124509065D01*
X126826000Y-121873102D01*
X126822082Y-121859758D01*
X126807806Y-121857771D01*
X126769324Y-121863660D01*
X126759288Y-121866051D01*
X126556868Y-121932212D01*
X126547359Y-121936209D01*
X126358463Y-122034542D01*
X126349738Y-122040036D01*
X126179433Y-122167905D01*
X126171726Y-122174748D01*
X126024590Y-122328717D01*
X126018109Y-122336722D01*
X125913498Y-122490074D01*
X125858587Y-122535076D01*
X125788062Y-122543247D01*
X125724315Y-122511993D01*
X125703618Y-122487509D01*
X125622822Y-122362617D01*
X125622820Y-122362614D01*
X125620014Y-122358277D01*
X125469670Y-122193051D01*
X125465619Y-122189852D01*
X125465615Y-122189848D01*
X125298414Y-122057800D01*
X125298410Y-122057798D01*
X125294359Y-122054598D01*
X125258028Y-122034542D01*
X125166387Y-121983954D01*
X125098789Y-121946638D01*
X125093920Y-121944914D01*
X125093916Y-121944912D01*
X124893087Y-121873795D01*
X124893083Y-121873794D01*
X124888212Y-121872069D01*
X124883119Y-121871162D01*
X124883116Y-121871161D01*
X124673373Y-121833800D01*
X124673367Y-121833799D01*
X124668284Y-121832894D01*
X124594452Y-121831992D01*
X124450081Y-121830228D01*
X124450079Y-121830228D01*
X124444911Y-121830165D01*
X124224091Y-121863955D01*
X124211532Y-121868060D01*
X124140568Y-121870210D01*
X124083294Y-121837389D01*
X121153652Y-118907747D01*
X121146112Y-118899461D01*
X121142000Y-118892982D01*
X121120054Y-118872373D01*
X121092349Y-118846357D01*
X121089507Y-118843602D01*
X121069770Y-118823865D01*
X121066573Y-118821385D01*
X121057551Y-118813680D01*
X121031100Y-118788841D01*
X121025321Y-118783414D01*
X121018375Y-118779595D01*
X121018372Y-118779593D01*
X121007566Y-118773652D01*
X120991047Y-118762801D01*
X120990583Y-118762441D01*
X120975041Y-118750386D01*
X120967772Y-118747241D01*
X120967768Y-118747238D01*
X120934463Y-118732826D01*
X120923813Y-118727609D01*
X120885060Y-118706305D01*
X120865437Y-118701267D01*
X120846734Y-118694863D01*
X120835420Y-118689967D01*
X120835419Y-118689967D01*
X120828145Y-118686819D01*
X120820322Y-118685580D01*
X120820312Y-118685577D01*
X120784476Y-118679901D01*
X120772856Y-118677495D01*
X120737711Y-118668472D01*
X120737710Y-118668472D01*
X120730030Y-118666500D01*
X120709776Y-118666500D01*
X120690065Y-118664949D01*
X120677886Y-118663020D01*
X120670057Y-118661780D01*
X120662165Y-118662526D01*
X120626039Y-118665941D01*
X120614181Y-118666500D01*
X112914594Y-118666500D01*
X112846473Y-118646498D01*
X112825499Y-118629595D01*
X112747122Y-118551218D01*
X112713096Y-118488906D01*
X112710907Y-118475293D01*
X112694232Y-118316635D01*
X112694232Y-118316633D01*
X112693542Y-118310072D01*
X112634527Y-118128444D01*
X112539040Y-117963056D01*
X112469805Y-117886162D01*
X112415675Y-117826045D01*
X112415674Y-117826044D01*
X112411253Y-117821134D01*
X112256752Y-117708882D01*
X112250724Y-117706198D01*
X112250722Y-117706197D01*
X112088319Y-117633891D01*
X112088318Y-117633891D01*
X112082288Y-117631206D01*
X111988887Y-117611353D01*
X111901944Y-117592872D01*
X111901939Y-117592872D01*
X111895487Y-117591500D01*
X111704513Y-117591500D01*
X111698061Y-117592872D01*
X111698056Y-117592872D01*
X111611113Y-117611353D01*
X111517712Y-117631206D01*
X111511682Y-117633891D01*
X111511681Y-117633891D01*
X111349278Y-117706197D01*
X111349276Y-117706198D01*
X111343248Y-117708882D01*
X111188747Y-117821134D01*
X111184326Y-117826044D01*
X111184325Y-117826045D01*
X111130196Y-117886162D01*
X111060960Y-117963056D01*
X110965473Y-118128444D01*
X110906458Y-118310072D01*
X110905768Y-118316633D01*
X110905768Y-118316635D01*
X110898527Y-118385529D01*
X110886496Y-118500000D01*
X106896485Y-118500000D01*
X106916603Y-118485650D01*
X107051860Y-118389173D01*
X107210096Y-118231489D01*
X107260816Y-118160905D01*
X107337435Y-118054277D01*
X107340453Y-118050077D01*
X107421465Y-117886162D01*
X107437136Y-117854453D01*
X107437137Y-117854451D01*
X107439430Y-117849811D01*
X107504370Y-117636069D01*
X107533529Y-117414590D01*
X107535156Y-117348000D01*
X107516852Y-117125361D01*
X107462431Y-116908702D01*
X107373354Y-116703840D01*
X107321272Y-116623334D01*
X107254822Y-116520617D01*
X107254820Y-116520614D01*
X107252014Y-116516277D01*
X107101670Y-116351051D01*
X107097619Y-116347852D01*
X107097615Y-116347848D01*
X106930414Y-116215800D01*
X106930410Y-116215798D01*
X106926359Y-116212598D01*
X106885053Y-116189796D01*
X106835084Y-116139364D01*
X106820312Y-116069921D01*
X106845428Y-116003516D01*
X106872780Y-115976909D01*
X106936445Y-115931497D01*
X107051860Y-115849173D01*
X107065135Y-115835945D01*
X107206435Y-115695137D01*
X107210096Y-115691489D01*
X107254239Y-115630058D01*
X107337435Y-115514277D01*
X107340453Y-115510077D01*
X107388833Y-115412188D01*
X107437136Y-115314453D01*
X107437137Y-115314451D01*
X107439430Y-115309811D01*
X107504370Y-115096069D01*
X107533529Y-114874590D01*
X107534914Y-114817924D01*
X107535074Y-114811365D01*
X107535074Y-114811361D01*
X107535156Y-114808000D01*
X107516852Y-114585361D01*
X107462431Y-114368702D01*
X107373354Y-114163840D01*
X107308040Y-114062880D01*
X107254822Y-113980617D01*
X107254820Y-113980614D01*
X107252014Y-113976277D01*
X107101670Y-113811051D01*
X107097619Y-113807852D01*
X107097615Y-113807848D01*
X106930414Y-113675800D01*
X106930410Y-113675798D01*
X106926359Y-113672598D01*
X106885053Y-113649796D01*
X106835084Y-113599364D01*
X106820312Y-113529921D01*
X106845428Y-113463516D01*
X106872780Y-113436909D01*
X106916603Y-113405650D01*
X107051860Y-113309173D01*
X107210096Y-113151489D01*
X107269594Y-113068689D01*
X107337435Y-112974277D01*
X107340453Y-112970077D01*
X107385971Y-112877979D01*
X107437136Y-112774453D01*
X107437137Y-112774451D01*
X107439430Y-112769811D01*
X107499888Y-112570820D01*
X107502865Y-112561023D01*
X107502865Y-112561021D01*
X107504370Y-112556069D01*
X107533529Y-112334590D01*
X107533611Y-112331240D01*
X107535074Y-112271365D01*
X107535074Y-112271361D01*
X107535156Y-112268000D01*
X107516852Y-112045361D01*
X107462431Y-111828702D01*
X107373354Y-111623840D01*
X107261154Y-111450405D01*
X107254822Y-111440617D01*
X107254820Y-111440614D01*
X107252014Y-111436277D01*
X107101670Y-111271051D01*
X107097619Y-111267852D01*
X107097615Y-111267848D01*
X106930414Y-111135800D01*
X106930410Y-111135798D01*
X106926359Y-111132598D01*
X106730789Y-111024638D01*
X106725920Y-111022914D01*
X106725916Y-111022912D01*
X106525087Y-110951795D01*
X106525083Y-110951794D01*
X106520212Y-110950069D01*
X106515119Y-110949162D01*
X106515116Y-110949161D01*
X106305373Y-110911800D01*
X106305367Y-110911799D01*
X106300284Y-110910894D01*
X106226452Y-110909992D01*
X106082081Y-110908228D01*
X106082079Y-110908228D01*
X106076911Y-110908165D01*
X105856091Y-110941955D01*
X105683340Y-110998419D01*
X105654672Y-111007789D01*
X105583708Y-111009940D01*
X105522847Y-110973384D01*
X105491410Y-110909727D01*
X105499380Y-110839179D01*
X105526432Y-110798929D01*
X107068742Y-109256619D01*
X107131054Y-109222593D01*
X107201869Y-109227658D01*
X107231896Y-109243777D01*
X107239248Y-109249118D01*
X107245276Y-109251802D01*
X107245278Y-109251803D01*
X107396498Y-109319130D01*
X107413712Y-109326794D01*
X107507113Y-109346647D01*
X107594056Y-109365128D01*
X107594061Y-109365128D01*
X107600513Y-109366500D01*
X107791487Y-109366500D01*
X107797939Y-109365128D01*
X107797944Y-109365128D01*
X107884887Y-109346647D01*
X107978288Y-109326794D01*
X107995502Y-109319130D01*
X108146722Y-109251803D01*
X108146724Y-109251802D01*
X108152752Y-109249118D01*
X108307253Y-109136866D01*
X108324048Y-109118213D01*
X108430621Y-108999852D01*
X108430622Y-108999851D01*
X108435040Y-108994944D01*
X108530527Y-108829556D01*
X108589542Y-108647928D01*
X108590612Y-108637753D01*
X108608814Y-108464565D01*
X108609504Y-108458000D01*
X108593956Y-108310072D01*
X108590232Y-108274635D01*
X108590232Y-108274633D01*
X108589542Y-108268072D01*
X108530527Y-108086444D01*
X108435040Y-107921056D01*
X108388984Y-107869905D01*
X108311675Y-107784045D01*
X108311674Y-107784044D01*
X108307253Y-107779134D01*
X108152752Y-107666882D01*
X108146724Y-107664198D01*
X108146722Y-107664197D01*
X107984319Y-107591891D01*
X107984318Y-107591891D01*
X107978288Y-107589206D01*
X107884887Y-107569353D01*
X107797944Y-107550872D01*
X107797939Y-107550872D01*
X107791487Y-107549500D01*
X107600513Y-107549500D01*
X107594061Y-107550872D01*
X107594056Y-107550872D01*
X107507112Y-107569353D01*
X107413712Y-107589206D01*
X107407682Y-107591891D01*
X107407681Y-107591891D01*
X107245278Y-107664197D01*
X107245276Y-107664198D01*
X107239248Y-107666882D01*
X107084747Y-107779134D01*
X107080332Y-107784037D01*
X107075420Y-107788460D01*
X107074059Y-107786949D01*
X107021812Y-107819136D01*
X106992583Y-107823523D01*
X106965604Y-107824371D01*
X106963458Y-107824438D01*
X106959501Y-107824500D01*
X106931601Y-107824500D01*
X106927611Y-107825004D01*
X106915777Y-107825936D01*
X106871568Y-107827326D01*
X106863952Y-107829539D01*
X106863950Y-107829539D01*
X106852109Y-107832979D01*
X106832750Y-107836988D01*
X106831440Y-107837154D01*
X106812660Y-107839526D01*
X106805294Y-107842442D01*
X106805288Y-107842444D01*
X106771555Y-107855800D01*
X106760325Y-107859645D01*
X106744763Y-107864166D01*
X106717865Y-107871981D01*
X106717262Y-107869905D01*
X106657846Y-107877230D01*
X106593872Y-107846443D01*
X106577326Y-107828287D01*
X106576609Y-107827326D01*
X106572541Y-107821879D01*
X106547810Y-107755329D01*
X106547500Y-107746491D01*
X106547500Y-105504148D01*
X106567502Y-105436027D01*
X106584405Y-105415053D01*
X109829053Y-102170405D01*
X109891365Y-102136379D01*
X109918148Y-102133500D01*
X110288640Y-102133500D01*
X110358642Y-102154735D01*
X110379653Y-102168774D01*
X110468803Y-102228342D01*
X110474106Y-102230620D01*
X110474109Y-102230622D01*
X110563115Y-102268862D01*
X110655987Y-102308763D01*
X110717673Y-102322721D01*
X110849055Y-102352450D01*
X110849060Y-102352451D01*
X110854692Y-102353725D01*
X110860463Y-102353952D01*
X110860465Y-102353952D01*
X110923470Y-102356427D01*
X111058263Y-102361723D01*
X111259883Y-102332490D01*
X111265347Y-102330635D01*
X111265352Y-102330634D01*
X111447327Y-102268862D01*
X111447332Y-102268860D01*
X111452799Y-102267004D01*
X111630551Y-102167458D01*
X111787186Y-102037186D01*
X111917458Y-101880551D01*
X111985486Y-101759079D01*
X112014180Y-101707842D01*
X112014181Y-101707840D01*
X112017004Y-101702799D01*
X112018860Y-101697332D01*
X112018862Y-101697327D01*
X112080634Y-101515352D01*
X112080635Y-101515347D01*
X112082490Y-101509883D01*
X112111723Y-101308263D01*
X112113249Y-101250000D01*
X112094608Y-101047126D01*
X112039307Y-100851047D01*
X112001963Y-100775319D01*
X111951756Y-100673510D01*
X111949201Y-100668329D01*
X111939671Y-100655566D01*
X111830758Y-100509715D01*
X111830758Y-100509714D01*
X111827305Y-100505091D01*
X111717344Y-100403444D01*
X111681943Y-100370719D01*
X111681940Y-100370717D01*
X111677703Y-100366800D01*
X111592072Y-100312771D01*
X111510288Y-100261169D01*
X111510283Y-100261167D01*
X111505404Y-100258088D01*
X111316180Y-100182595D01*
X111116366Y-100142849D01*
X111110592Y-100142773D01*
X111110588Y-100142773D01*
X111007452Y-100141424D01*
X110912655Y-100140183D01*
X110906958Y-100141162D01*
X110906957Y-100141162D01*
X110717567Y-100173705D01*
X110711870Y-100174684D01*
X110520734Y-100245198D01*
X110407155Y-100312771D01*
X110346621Y-100348785D01*
X110282198Y-100366500D01*
X109579450Y-100366500D01*
X109559739Y-100364949D01*
X109553009Y-100363883D01*
X109546493Y-100362851D01*
X109539905Y-100363196D01*
X109539901Y-100363196D01*
X109480162Y-100366327D01*
X109473568Y-100366500D01*
X109453694Y-100366500D01*
X109450421Y-100366844D01*
X109433929Y-100368577D01*
X109427354Y-100369094D01*
X109367624Y-100372224D01*
X109367620Y-100372225D01*
X109361029Y-100372570D01*
X109348071Y-100376042D01*
X109328628Y-100379645D01*
X109315298Y-100381046D01*
X109252106Y-100401578D01*
X109245804Y-100403444D01*
X109206477Y-100413982D01*
X109181637Y-100420638D01*
X109175758Y-100423634D01*
X109175749Y-100423637D01*
X109169683Y-100426728D01*
X109151421Y-100434292D01*
X109144957Y-100436392D01*
X109144949Y-100436395D01*
X109138669Y-100438436D01*
X109132950Y-100441738D01*
X109132945Y-100441740D01*
X109081133Y-100471654D01*
X109075363Y-100474787D01*
X109016161Y-100504953D01*
X109010198Y-100509782D01*
X109005741Y-100513391D01*
X108989448Y-100524589D01*
X108977831Y-100531296D01*
X108972925Y-100535713D01*
X108972920Y-100535717D01*
X108928462Y-100575747D01*
X108923446Y-100580031D01*
X108910591Y-100590441D01*
X108908014Y-100592528D01*
X108893969Y-100606573D01*
X108889184Y-100611114D01*
X108839815Y-100655566D01*
X108831925Y-100666426D01*
X108819088Y-100681454D01*
X105095454Y-104405088D01*
X105080426Y-104417925D01*
X105069566Y-104425815D01*
X105065145Y-104430725D01*
X105065144Y-104430726D01*
X105025114Y-104475184D01*
X105020573Y-104479969D01*
X105006528Y-104494014D01*
X105004444Y-104496588D01*
X105004441Y-104496591D01*
X104994031Y-104509446D01*
X104989747Y-104514462D01*
X104949717Y-104558920D01*
X104949713Y-104558925D01*
X104945296Y-104563831D01*
X104939769Y-104573405D01*
X104938589Y-104575448D01*
X104927391Y-104591741D01*
X104918953Y-104602161D01*
X104888787Y-104661363D01*
X104885654Y-104667133D01*
X104855740Y-104718945D01*
X104855738Y-104718950D01*
X104852436Y-104724669D01*
X104850395Y-104730949D01*
X104850392Y-104730957D01*
X104848292Y-104737421D01*
X104840728Y-104755683D01*
X104837637Y-104761749D01*
X104837634Y-104761758D01*
X104834638Y-104767637D01*
X104832929Y-104774015D01*
X104817444Y-104831804D01*
X104815578Y-104838106D01*
X104795046Y-104901298D01*
X104794356Y-104907866D01*
X104793645Y-104914628D01*
X104790042Y-104934071D01*
X104786570Y-104947029D01*
X104786225Y-104953619D01*
X104786224Y-104953623D01*
X104783093Y-105013367D01*
X104782577Y-105019931D01*
X104780500Y-105039694D01*
X104780500Y-105059555D01*
X104780327Y-105066150D01*
X104776850Y-105132493D01*
X104778949Y-105145744D01*
X104780500Y-105165456D01*
X104780500Y-107744374D01*
X104760498Y-107812495D01*
X104753451Y-107822379D01*
X104730351Y-107851681D01*
X104727662Y-107856792D01*
X104727660Y-107856795D01*
X104696433Y-107916148D01*
X104635492Y-108031978D01*
X104575078Y-108226543D01*
X104551132Y-108428859D01*
X104564457Y-108632151D01*
X104614605Y-108829610D01*
X104699898Y-109014624D01*
X104817479Y-109180997D01*
X104963410Y-109323157D01*
X104968208Y-109326363D01*
X104983813Y-109336790D01*
X105029339Y-109391268D01*
X105038186Y-109461711D01*
X105002904Y-109530649D01*
X102985747Y-111547805D01*
X102977461Y-111555345D01*
X102970982Y-111559457D01*
X102965557Y-111565234D01*
X102924357Y-111609108D01*
X102921602Y-111611950D01*
X102901865Y-111631687D01*
X102899385Y-111634884D01*
X102891682Y-111643904D01*
X102861414Y-111676136D01*
X102857595Y-111683082D01*
X102857593Y-111683085D01*
X102851652Y-111693891D01*
X102840801Y-111710410D01*
X102828386Y-111726416D01*
X102825241Y-111733685D01*
X102825238Y-111733689D01*
X102810826Y-111766994D01*
X102805609Y-111777644D01*
X102784305Y-111816397D01*
X102782334Y-111824072D01*
X102782334Y-111824073D01*
X102779267Y-111836019D01*
X102772863Y-111854723D01*
X102764819Y-111873312D01*
X102763580Y-111881135D01*
X102763579Y-111881138D01*
X102758449Y-111913528D01*
X102728036Y-111977681D01*
X102667767Y-112015207D01*
X102596778Y-112014193D01*
X102537606Y-111974959D01*
X102509039Y-111909964D01*
X102508000Y-111893816D01*
X102508000Y-90053207D01*
X102509746Y-90032303D01*
X102512264Y-90017335D01*
X102513071Y-90012539D01*
X102513224Y-90000000D01*
X102511048Y-89984804D01*
X102509927Y-89960763D01*
X102520282Y-89750000D01*
X138386526Y-89750000D01*
X138406391Y-90002403D01*
X138407545Y-90007210D01*
X138407546Y-90007216D01*
X138418588Y-90053207D01*
X138465495Y-90248591D01*
X138562384Y-90482502D01*
X138694672Y-90698376D01*
X138859102Y-90890898D01*
X139051624Y-91055328D01*
X139267498Y-91187616D01*
X139272068Y-91189509D01*
X139272072Y-91189511D01*
X139496836Y-91282611D01*
X139501409Y-91284505D01*
X139586032Y-91304821D01*
X139742784Y-91342454D01*
X139742790Y-91342455D01*
X139747597Y-91343609D01*
X139847416Y-91351465D01*
X139934345Y-91358307D01*
X139934352Y-91358307D01*
X139936801Y-91358500D01*
X140063199Y-91358500D01*
X140065648Y-91358307D01*
X140065655Y-91358307D01*
X140152584Y-91351465D01*
X140252403Y-91343609D01*
X140257210Y-91342455D01*
X140257216Y-91342454D01*
X140413968Y-91304821D01*
X140498591Y-91284505D01*
X140503164Y-91282611D01*
X140727928Y-91189511D01*
X140727932Y-91189509D01*
X140732502Y-91187616D01*
X140948376Y-91055328D01*
X141140898Y-90890898D01*
X141305328Y-90698376D01*
X141437616Y-90482502D01*
X141534505Y-90248591D01*
X141581412Y-90053207D01*
X141592454Y-90007216D01*
X141592455Y-90007210D01*
X141593609Y-90002403D01*
X141613474Y-89750000D01*
X141593609Y-89497597D01*
X141534505Y-89251409D01*
X141437616Y-89017498D01*
X141305328Y-88801624D01*
X141140898Y-88609102D01*
X140948376Y-88444672D01*
X140732502Y-88312384D01*
X140727932Y-88310491D01*
X140727928Y-88310489D01*
X140503164Y-88217389D01*
X140503162Y-88217388D01*
X140498591Y-88215495D01*
X140413968Y-88195179D01*
X140257216Y-88157546D01*
X140257210Y-88157545D01*
X140252403Y-88156391D01*
X140152584Y-88148535D01*
X140065655Y-88141693D01*
X140065648Y-88141693D01*
X140063199Y-88141500D01*
X139936801Y-88141500D01*
X139934352Y-88141693D01*
X139934345Y-88141693D01*
X139847416Y-88148535D01*
X139747597Y-88156391D01*
X139742790Y-88157545D01*
X139742784Y-88157546D01*
X139586032Y-88195179D01*
X139501409Y-88215495D01*
X139496838Y-88217388D01*
X139496836Y-88217389D01*
X139272072Y-88310489D01*
X139272068Y-88310491D01*
X139267498Y-88312384D01*
X139051624Y-88444672D01*
X138859102Y-88609102D01*
X138694672Y-88801624D01*
X138562384Y-89017498D01*
X138465495Y-89251409D01*
X138406391Y-89497597D01*
X138386526Y-89750000D01*
X102520282Y-89750000D01*
X102524512Y-89663900D01*
X102525723Y-89651601D01*
X102574191Y-89324861D01*
X102576601Y-89312743D01*
X102591965Y-89251409D01*
X102656862Y-88992324D01*
X102660451Y-88980493D01*
X102771725Y-88669506D01*
X102776456Y-88658082D01*
X102917685Y-88359477D01*
X102923514Y-88348572D01*
X102943655Y-88314970D01*
X103093328Y-88065255D01*
X103100198Y-88054974D01*
X103296960Y-87789671D01*
X103304804Y-87780113D01*
X103526626Y-87535370D01*
X103535370Y-87526626D01*
X103780113Y-87304804D01*
X103789671Y-87296960D01*
X104054974Y-87100198D01*
X104065255Y-87093328D01*
X104348572Y-86923514D01*
X104359477Y-86917685D01*
X104658082Y-86776456D01*
X104669506Y-86771725D01*
X104980493Y-86660451D01*
X104992326Y-86656861D01*
X105312751Y-86576599D01*
X105324861Y-86574191D01*
X105651606Y-86525722D01*
X105663902Y-86524511D01*
X105752656Y-86520151D01*
X105957062Y-86510110D01*
X105982624Y-86511457D01*
X105984857Y-86511805D01*
X105984861Y-86511805D01*
X105993730Y-86513186D01*
X106002632Y-86512022D01*
X106002635Y-86512022D01*
X106022791Y-86509386D01*
X106025252Y-86509064D01*
X106041589Y-86508000D01*
X139950672Y-86508000D01*
X139970057Y-86509500D01*
G37*
G04 #@! TD.AperFunction*
G04 #@! TA.AperFunction,Conductor*
G36*
X134418273Y-125881797D02*
G01*
X134475109Y-125924344D01*
X134497294Y-125976839D01*
X134497327Y-125977889D01*
X134502978Y-125997339D01*
X134506987Y-126016700D01*
X134509526Y-126036797D01*
X134512445Y-126044168D01*
X134512445Y-126044170D01*
X134525804Y-126077912D01*
X134529649Y-126089142D01*
X134541982Y-126131593D01*
X134546015Y-126138412D01*
X134546017Y-126138417D01*
X134552293Y-126149028D01*
X134560988Y-126166776D01*
X134568448Y-126185617D01*
X134573110Y-126192033D01*
X134573110Y-126192034D01*
X134594436Y-126221387D01*
X134600952Y-126231307D01*
X134623458Y-126269362D01*
X134637779Y-126283683D01*
X134650619Y-126298716D01*
X134662528Y-126315107D01*
X134675854Y-126326131D01*
X134696605Y-126343298D01*
X134705384Y-126351288D01*
X137981672Y-129627576D01*
X138015698Y-129689888D01*
X138014284Y-129749281D01*
X138007309Y-129775312D01*
X138007308Y-129775319D01*
X138005885Y-129780629D01*
X137986693Y-130000000D01*
X138005885Y-130219371D01*
X138062880Y-130432076D01*
X138097274Y-130505834D01*
X138153618Y-130626666D01*
X138153621Y-130626671D01*
X138155944Y-130631653D01*
X138159100Y-130636160D01*
X138159101Y-130636162D01*
X138278095Y-130806102D01*
X138282251Y-130812038D01*
X138381118Y-130910905D01*
X138415144Y-130973217D01*
X138410079Y-131044032D01*
X138381118Y-131089095D01*
X138282251Y-131187962D01*
X138210854Y-131289928D01*
X138194859Y-131312771D01*
X138139402Y-131357099D01*
X138091646Y-131366500D01*
X134978767Y-131366500D01*
X134967584Y-131365973D01*
X134960091Y-131364298D01*
X134952165Y-131364547D01*
X134952164Y-131364547D01*
X134892001Y-131366438D01*
X134888043Y-131366500D01*
X134860144Y-131366500D01*
X134856154Y-131367004D01*
X134844320Y-131367936D01*
X134800111Y-131369326D01*
X134792497Y-131371538D01*
X134792492Y-131371539D01*
X134780659Y-131374977D01*
X134761296Y-131378988D01*
X134741203Y-131381526D01*
X134733836Y-131384443D01*
X134733831Y-131384444D01*
X134700092Y-131397802D01*
X134688865Y-131401646D01*
X134646407Y-131413982D01*
X134639581Y-131418019D01*
X134628972Y-131424293D01*
X134611224Y-131432988D01*
X134592383Y-131440448D01*
X134585967Y-131445110D01*
X134585966Y-131445110D01*
X134556613Y-131466436D01*
X134546693Y-131472952D01*
X134515465Y-131491420D01*
X134515462Y-131491422D01*
X134508638Y-131495458D01*
X134494317Y-131509779D01*
X134479284Y-131522619D01*
X134462893Y-131534528D01*
X134457842Y-131540634D01*
X134434702Y-131568605D01*
X134426712Y-131577384D01*
X130474500Y-135529595D01*
X130412188Y-135563621D01*
X130385405Y-135566500D01*
X123008200Y-135566500D01*
X122940079Y-135546498D01*
X122920853Y-135530157D01*
X122920580Y-135530460D01*
X122915668Y-135526037D01*
X122911253Y-135521134D01*
X122859541Y-135483563D01*
X122762094Y-135412763D01*
X122762093Y-135412762D01*
X122756752Y-135408882D01*
X122750724Y-135406198D01*
X122750722Y-135406197D01*
X122588319Y-135333891D01*
X122588318Y-135333891D01*
X122582288Y-135331206D01*
X122488888Y-135311353D01*
X122401944Y-135292872D01*
X122401939Y-135292872D01*
X122395487Y-135291500D01*
X122204513Y-135291500D01*
X122198061Y-135292872D01*
X122198056Y-135292872D01*
X122111112Y-135311353D01*
X122017712Y-135331206D01*
X122011682Y-135333891D01*
X122011681Y-135333891D01*
X121849278Y-135406197D01*
X121849276Y-135406198D01*
X121843248Y-135408882D01*
X121688747Y-135521134D01*
X121684326Y-135526044D01*
X121684325Y-135526045D01*
X121619320Y-135598241D01*
X121560960Y-135663056D01*
X121557659Y-135668774D01*
X121553776Y-135674118D01*
X121552122Y-135672916D01*
X121507741Y-135715236D01*
X121438028Y-135728675D01*
X121372116Y-135702291D01*
X121347132Y-135673458D01*
X121346224Y-135674118D01*
X121342341Y-135668773D01*
X121339040Y-135663056D01*
X121265863Y-135581785D01*
X121235147Y-135517779D01*
X121233500Y-135497476D01*
X121233500Y-134714594D01*
X121253502Y-134646473D01*
X121270405Y-134625499D01*
X123154518Y-132741386D01*
X123216830Y-132707360D01*
X123287645Y-132712425D01*
X123337246Y-132746168D01*
X123388747Y-132803366D01*
X123483522Y-132872224D01*
X123508839Y-132890618D01*
X123543248Y-132915618D01*
X123549276Y-132918302D01*
X123549278Y-132918303D01*
X123676178Y-132974802D01*
X123717712Y-132993294D01*
X123811112Y-133013147D01*
X123898056Y-133031628D01*
X123898061Y-133031628D01*
X123904513Y-133033000D01*
X124095487Y-133033000D01*
X124101939Y-133031628D01*
X124101944Y-133031628D01*
X124188888Y-133013147D01*
X124282288Y-132993294D01*
X124323822Y-132974802D01*
X124450722Y-132918303D01*
X124450724Y-132918302D01*
X124456752Y-132915618D01*
X124491162Y-132890618D01*
X124605526Y-132807527D01*
X124611253Y-132803366D01*
X124615668Y-132798463D01*
X124620580Y-132794040D01*
X124621705Y-132795289D01*
X124675014Y-132762449D01*
X124708200Y-132758000D01*
X125896733Y-132758000D01*
X125907916Y-132758527D01*
X125915409Y-132760202D01*
X125923335Y-132759953D01*
X125923336Y-132759953D01*
X125983486Y-132758062D01*
X125987445Y-132758000D01*
X126015356Y-132758000D01*
X126019291Y-132757503D01*
X126019356Y-132757495D01*
X126031193Y-132756562D01*
X126063451Y-132755548D01*
X126067470Y-132755422D01*
X126075389Y-132755173D01*
X126094843Y-132749521D01*
X126114200Y-132745513D01*
X126126430Y-132743968D01*
X126126431Y-132743968D01*
X126134297Y-132742974D01*
X126141668Y-132740055D01*
X126141670Y-132740055D01*
X126175412Y-132726696D01*
X126186642Y-132722851D01*
X126221483Y-132712729D01*
X126221484Y-132712729D01*
X126229093Y-132710518D01*
X126235912Y-132706485D01*
X126235917Y-132706483D01*
X126246528Y-132700207D01*
X126264276Y-132691512D01*
X126283117Y-132684052D01*
X126318887Y-132658064D01*
X126328807Y-132651548D01*
X126360035Y-132633080D01*
X126360038Y-132633078D01*
X126366862Y-132629042D01*
X126381183Y-132614721D01*
X126396217Y-132601880D01*
X126406194Y-132594631D01*
X126412607Y-132589972D01*
X126440798Y-132555895D01*
X126448788Y-132547116D01*
X128474207Y-130521697D01*
X128536519Y-130487671D01*
X128607334Y-130492736D01*
X128664170Y-130535283D01*
X128666151Y-130538285D01*
X128669957Y-130543523D01*
X128673259Y-130549243D01*
X128677677Y-130554150D01*
X128677678Y-130554151D01*
X128770795Y-130657568D01*
X128801046Y-130691165D01*
X128900142Y-130763163D01*
X128947278Y-130797409D01*
X128955547Y-130803417D01*
X128961575Y-130806101D01*
X128961577Y-130806102D01*
X129123980Y-130878408D01*
X129130011Y-130881093D01*
X129223412Y-130900946D01*
X129310355Y-130919427D01*
X129310360Y-130919427D01*
X129316812Y-130920799D01*
X129507786Y-130920799D01*
X129514238Y-130919427D01*
X129514243Y-130919427D01*
X129601186Y-130900946D01*
X129694587Y-130881093D01*
X129700618Y-130878408D01*
X129863021Y-130806102D01*
X129863023Y-130806101D01*
X129869051Y-130803417D01*
X129877321Y-130797409D01*
X129924456Y-130763163D01*
X130023552Y-130691165D01*
X130053803Y-130657568D01*
X130146920Y-130554151D01*
X130146921Y-130554150D01*
X130151339Y-130549243D01*
X130246826Y-130383855D01*
X130305841Y-130202227D01*
X130306969Y-130191500D01*
X130325113Y-130018864D01*
X130325803Y-130012299D01*
X130323935Y-129994525D01*
X130318561Y-129943393D01*
X130331333Y-129873555D01*
X130354776Y-129841128D01*
X134285146Y-125910758D01*
X134347458Y-125876732D01*
X134418273Y-125881797D01*
G37*
G04 #@! TD.AperFunction*
M02*
