G04 #@! TF.GenerationSoftware,KiCad,Pcbnew,(6.0.1)*
G04 #@! TF.CreationDate,2022-03-01T20:17:54-08:00*
G04 #@! TF.ProjectId,ESP32-Lora,45535033-322d-44c6-9f72-612e6b696361,rev?*
G04 #@! TF.SameCoordinates,Original*
G04 #@! TF.FileFunction,Legend,Top*
G04 #@! TF.FilePolarity,Positive*
%FSLAX46Y46*%
G04 Gerber Fmt 4.6, Leading zero omitted, Abs format (unit mm)*
G04 Created by KiCad (PCBNEW (6.0.1)) date 2022-03-01 20:17:54*
%MOMM*%
%LPD*%
G01*
G04 APERTURE LIST*
%ADD10C,0.150000*%
%ADD11C,0.187500*%
%ADD12C,0.100000*%
%ADD13C,0.120000*%
%ADD14C,0.200000*%
%ADD15C,0.010000*%
G04 APERTURE END LIST*
D10*
X121158914Y-125268485D02*
X121587485Y-125268485D01*
X121373200Y-126018485D02*
X121373200Y-125268485D01*
X122266057Y-125947057D02*
X122230342Y-125982771D01*
X122123200Y-126018485D01*
X122051771Y-126018485D01*
X121944628Y-125982771D01*
X121873200Y-125911342D01*
X121837485Y-125839914D01*
X121801771Y-125697057D01*
X121801771Y-125589914D01*
X121837485Y-125447057D01*
X121873200Y-125375628D01*
X121944628Y-125304200D01*
X122051771Y-125268485D01*
X122123200Y-125268485D01*
X122230342Y-125304200D01*
X122266057Y-125339914D01*
X122587485Y-126018485D02*
X122587485Y-125268485D01*
X123016057Y-126018485D02*
X122694628Y-125589914D01*
X123016057Y-125268485D02*
X122587485Y-125697057D01*
X104625000Y-137321428D02*
X104589285Y-137392857D01*
X104589285Y-137500000D01*
X104625000Y-137607142D01*
X104696428Y-137678571D01*
X104767857Y-137714285D01*
X104910714Y-137750000D01*
X105017857Y-137750000D01*
X105160714Y-137714285D01*
X105232142Y-137678571D01*
X105303571Y-137607142D01*
X105339285Y-137500000D01*
X105339285Y-137428571D01*
X105303571Y-137321428D01*
X105267857Y-137285714D01*
X105017857Y-137285714D01*
X105017857Y-137428571D01*
X105339285Y-136964285D02*
X104589285Y-136964285D01*
X105339285Y-136535714D01*
X104589285Y-136535714D01*
X105339285Y-136178571D02*
X104589285Y-136178571D01*
X104589285Y-136000000D01*
X104625000Y-135892857D01*
X104696428Y-135821428D01*
X104767857Y-135785714D01*
X104910714Y-135750000D01*
X105017857Y-135750000D01*
X105160714Y-135785714D01*
X105232142Y-135821428D01*
X105303571Y-135892857D01*
X105339285Y-136000000D01*
X105339285Y-136178571D01*
X118662942Y-125319285D02*
X119091514Y-125319285D01*
X118877228Y-126069285D02*
X118877228Y-125319285D01*
X119341514Y-126069285D02*
X119341514Y-125319285D01*
X119520085Y-125319285D01*
X119627228Y-125355000D01*
X119698657Y-125426428D01*
X119734371Y-125497857D01*
X119770085Y-125640714D01*
X119770085Y-125747857D01*
X119734371Y-125890714D01*
X119698657Y-125962142D01*
X119627228Y-126033571D01*
X119520085Y-126069285D01*
X119341514Y-126069285D01*
X120091514Y-126069285D02*
X120091514Y-125319285D01*
X123714000Y-125268485D02*
X124142571Y-125268485D01*
X123928285Y-126018485D02*
X123928285Y-125268485D01*
X124392571Y-126018485D02*
X124392571Y-125268485D01*
X124642571Y-125804200D01*
X124892571Y-125268485D01*
X124892571Y-126018485D01*
X125214000Y-125982771D02*
X125321142Y-126018485D01*
X125499714Y-126018485D01*
X125571142Y-125982771D01*
X125606857Y-125947057D01*
X125642571Y-125875628D01*
X125642571Y-125804200D01*
X125606857Y-125732771D01*
X125571142Y-125697057D01*
X125499714Y-125661342D01*
X125356857Y-125625628D01*
X125285428Y-125589914D01*
X125249714Y-125554200D01*
X125214000Y-125482771D01*
X125214000Y-125411342D01*
X125249714Y-125339914D01*
X125285428Y-125304200D01*
X125356857Y-125268485D01*
X125535428Y-125268485D01*
X125642571Y-125304200D01*
D11*
X108142857Y-122589285D02*
X108142857Y-121839285D01*
X108642857Y-121839285D02*
X108785714Y-121839285D01*
X108857142Y-121875000D01*
X108928571Y-121946428D01*
X108964285Y-122089285D01*
X108964285Y-122339285D01*
X108928571Y-122482142D01*
X108857142Y-122553571D01*
X108785714Y-122589285D01*
X108642857Y-122589285D01*
X108571428Y-122553571D01*
X108500000Y-122482142D01*
X108464285Y-122339285D01*
X108464285Y-122089285D01*
X108500000Y-121946428D01*
X108571428Y-121875000D01*
X108642857Y-121839285D01*
X109250000Y-121910714D02*
X109285714Y-121875000D01*
X109357142Y-121839285D01*
X109535714Y-121839285D01*
X109607142Y-121875000D01*
X109642857Y-121910714D01*
X109678571Y-121982142D01*
X109678571Y-122053571D01*
X109642857Y-122160714D01*
X109214285Y-122589285D01*
X109678571Y-122589285D01*
X110321428Y-121839285D02*
X110178571Y-121839285D01*
X110107142Y-121875000D01*
X110071428Y-121910714D01*
X110000000Y-122017857D01*
X109964285Y-122160714D01*
X109964285Y-122446428D01*
X110000000Y-122517857D01*
X110035714Y-122553571D01*
X110107142Y-122589285D01*
X110250000Y-122589285D01*
X110321428Y-122553571D01*
X110357142Y-122517857D01*
X110392857Y-122446428D01*
X110392857Y-122267857D01*
X110357142Y-122196428D01*
X110321428Y-122160714D01*
X110250000Y-122125000D01*
X110107142Y-122125000D01*
X110035714Y-122160714D01*
X110000000Y-122196428D01*
X109964285Y-122267857D01*
D10*
X115908657Y-125319285D02*
X116337228Y-125319285D01*
X116122942Y-126069285D02*
X116122942Y-125319285D01*
X116587228Y-126069285D02*
X116587228Y-125319285D01*
X116765800Y-125319285D01*
X116872942Y-125355000D01*
X116944371Y-125426428D01*
X116980085Y-125497857D01*
X117015800Y-125640714D01*
X117015800Y-125747857D01*
X116980085Y-125890714D01*
X116944371Y-125962142D01*
X116872942Y-126033571D01*
X116765800Y-126069285D01*
X116587228Y-126069285D01*
X117480085Y-125319285D02*
X117622942Y-125319285D01*
X117694371Y-125355000D01*
X117765800Y-125426428D01*
X117801514Y-125569285D01*
X117801514Y-125819285D01*
X117765800Y-125962142D01*
X117694371Y-126033571D01*
X117622942Y-126069285D01*
X117480085Y-126069285D01*
X117408657Y-126033571D01*
X117337228Y-125962142D01*
X117301514Y-125819285D01*
X117301514Y-125569285D01*
X117337228Y-125426428D01*
X117408657Y-125355000D01*
X117480085Y-125319285D01*
X126733371Y-125253400D02*
X126661942Y-125217685D01*
X126554800Y-125217685D01*
X126447657Y-125253400D01*
X126376228Y-125324828D01*
X126340514Y-125396257D01*
X126304800Y-125539114D01*
X126304800Y-125646257D01*
X126340514Y-125789114D01*
X126376228Y-125860542D01*
X126447657Y-125931971D01*
X126554800Y-125967685D01*
X126626228Y-125967685D01*
X126733371Y-125931971D01*
X126769085Y-125896257D01*
X126769085Y-125646257D01*
X126626228Y-125646257D01*
X127090514Y-125967685D02*
X127090514Y-125217685D01*
X127519085Y-125967685D01*
X127519085Y-125217685D01*
X127876228Y-125967685D02*
X127876228Y-125217685D01*
X128054800Y-125217685D01*
X128161942Y-125253400D01*
X128233371Y-125324828D01*
X128269085Y-125396257D01*
X128304800Y-125539114D01*
X128304800Y-125646257D01*
X128269085Y-125789114D01*
X128233371Y-125860542D01*
X128161942Y-125931971D01*
X128054800Y-125967685D01*
X127876228Y-125967685D01*
D11*
X108142857Y-112839285D02*
X108142857Y-112089285D01*
X108642857Y-112089285D02*
X108785714Y-112089285D01*
X108857142Y-112125000D01*
X108928571Y-112196428D01*
X108964285Y-112339285D01*
X108964285Y-112589285D01*
X108928571Y-112732142D01*
X108857142Y-112803571D01*
X108785714Y-112839285D01*
X108642857Y-112839285D01*
X108571428Y-112803571D01*
X108500000Y-112732142D01*
X108464285Y-112589285D01*
X108464285Y-112339285D01*
X108500000Y-112196428D01*
X108571428Y-112125000D01*
X108642857Y-112089285D01*
X109214285Y-112089285D02*
X109678571Y-112089285D01*
X109428571Y-112375000D01*
X109535714Y-112375000D01*
X109607142Y-112410714D01*
X109642857Y-112446428D01*
X109678571Y-112517857D01*
X109678571Y-112696428D01*
X109642857Y-112767857D01*
X109607142Y-112803571D01*
X109535714Y-112839285D01*
X109321428Y-112839285D01*
X109250000Y-112803571D01*
X109214285Y-112767857D01*
X110321428Y-112339285D02*
X110321428Y-112839285D01*
X110142857Y-112053571D02*
X109964285Y-112589285D01*
X110428571Y-112589285D01*
X108142857Y-117589285D02*
X108142857Y-116839285D01*
X108642857Y-116839285D02*
X108785714Y-116839285D01*
X108857142Y-116875000D01*
X108928571Y-116946428D01*
X108964285Y-117089285D01*
X108964285Y-117339285D01*
X108928571Y-117482142D01*
X108857142Y-117553571D01*
X108785714Y-117589285D01*
X108642857Y-117589285D01*
X108571428Y-117553571D01*
X108500000Y-117482142D01*
X108464285Y-117339285D01*
X108464285Y-117089285D01*
X108500000Y-116946428D01*
X108571428Y-116875000D01*
X108642857Y-116839285D01*
X109214285Y-116839285D02*
X109678571Y-116839285D01*
X109428571Y-117125000D01*
X109535714Y-117125000D01*
X109607142Y-117160714D01*
X109642857Y-117196428D01*
X109678571Y-117267857D01*
X109678571Y-117446428D01*
X109642857Y-117517857D01*
X109607142Y-117553571D01*
X109535714Y-117589285D01*
X109321428Y-117589285D01*
X109250000Y-117553571D01*
X109214285Y-117517857D01*
X109964285Y-116910714D02*
X110000000Y-116875000D01*
X110071428Y-116839285D01*
X110250000Y-116839285D01*
X110321428Y-116875000D01*
X110357142Y-116910714D01*
X110392857Y-116982142D01*
X110392857Y-117053571D01*
X110357142Y-117160714D01*
X109928571Y-117589285D01*
X110392857Y-117589285D01*
X108142857Y-120089285D02*
X108142857Y-119339285D01*
X108642857Y-119339285D02*
X108785714Y-119339285D01*
X108857142Y-119375000D01*
X108928571Y-119446428D01*
X108964285Y-119589285D01*
X108964285Y-119839285D01*
X108928571Y-119982142D01*
X108857142Y-120053571D01*
X108785714Y-120089285D01*
X108642857Y-120089285D01*
X108571428Y-120053571D01*
X108500000Y-119982142D01*
X108464285Y-119839285D01*
X108464285Y-119589285D01*
X108500000Y-119446428D01*
X108571428Y-119375000D01*
X108642857Y-119339285D01*
X109250000Y-119410714D02*
X109285714Y-119375000D01*
X109357142Y-119339285D01*
X109535714Y-119339285D01*
X109607142Y-119375000D01*
X109642857Y-119410714D01*
X109678571Y-119482142D01*
X109678571Y-119553571D01*
X109642857Y-119660714D01*
X109214285Y-120089285D01*
X109678571Y-120089285D01*
X109928571Y-119339285D02*
X110428571Y-119339285D01*
X110107142Y-120089285D01*
X108142857Y-125339285D02*
X108142857Y-124589285D01*
X108642857Y-124589285D02*
X108785714Y-124589285D01*
X108857142Y-124625000D01*
X108928571Y-124696428D01*
X108964285Y-124839285D01*
X108964285Y-125089285D01*
X108928571Y-125232142D01*
X108857142Y-125303571D01*
X108785714Y-125339285D01*
X108642857Y-125339285D01*
X108571428Y-125303571D01*
X108500000Y-125232142D01*
X108464285Y-125089285D01*
X108464285Y-124839285D01*
X108500000Y-124696428D01*
X108571428Y-124625000D01*
X108642857Y-124589285D01*
X109250000Y-124660714D02*
X109285714Y-124625000D01*
X109357142Y-124589285D01*
X109535714Y-124589285D01*
X109607142Y-124625000D01*
X109642857Y-124660714D01*
X109678571Y-124732142D01*
X109678571Y-124803571D01*
X109642857Y-124910714D01*
X109214285Y-125339285D01*
X109678571Y-125339285D01*
X110357142Y-124589285D02*
X110000000Y-124589285D01*
X109964285Y-124946428D01*
X110000000Y-124910714D01*
X110071428Y-124875000D01*
X110250000Y-124875000D01*
X110321428Y-124910714D01*
X110357142Y-124946428D01*
X110392857Y-125017857D01*
X110392857Y-125196428D01*
X110357142Y-125267857D01*
X110321428Y-125303571D01*
X110250000Y-125339285D01*
X110071428Y-125339285D01*
X110000000Y-125303571D01*
X109964285Y-125267857D01*
X108142857Y-115089285D02*
X108142857Y-114339285D01*
X108642857Y-114339285D02*
X108785714Y-114339285D01*
X108857142Y-114375000D01*
X108928571Y-114446428D01*
X108964285Y-114589285D01*
X108964285Y-114839285D01*
X108928571Y-114982142D01*
X108857142Y-115053571D01*
X108785714Y-115089285D01*
X108642857Y-115089285D01*
X108571428Y-115053571D01*
X108500000Y-114982142D01*
X108464285Y-114839285D01*
X108464285Y-114589285D01*
X108500000Y-114446428D01*
X108571428Y-114375000D01*
X108642857Y-114339285D01*
X109214285Y-114339285D02*
X109678571Y-114339285D01*
X109428571Y-114625000D01*
X109535714Y-114625000D01*
X109607142Y-114660714D01*
X109642857Y-114696428D01*
X109678571Y-114767857D01*
X109678571Y-114946428D01*
X109642857Y-115017857D01*
X109607142Y-115053571D01*
X109535714Y-115089285D01*
X109321428Y-115089285D01*
X109250000Y-115053571D01*
X109214285Y-115017857D01*
X109928571Y-114339285D02*
X110392857Y-114339285D01*
X110142857Y-114625000D01*
X110250000Y-114625000D01*
X110321428Y-114660714D01*
X110357142Y-114696428D01*
X110392857Y-114767857D01*
X110392857Y-114946428D01*
X110357142Y-115017857D01*
X110321428Y-115053571D01*
X110250000Y-115089285D01*
X110035714Y-115089285D01*
X109964285Y-115053571D01*
X109928571Y-115017857D01*
D10*
X142402380Y-103595238D02*
X143211904Y-103595238D01*
X143307142Y-103547619D01*
X143354761Y-103500000D01*
X143402380Y-103404761D01*
X143402380Y-103214285D01*
X143354761Y-103119047D01*
X143307142Y-103071428D01*
X143211904Y-103023809D01*
X142402380Y-103023809D01*
X143116666Y-102595238D02*
X143116666Y-102119047D01*
X143402380Y-102690476D02*
X142402380Y-102357142D01*
X143402380Y-102023809D01*
X143402380Y-101119047D02*
X142926190Y-101452380D01*
X143402380Y-101690476D02*
X142402380Y-101690476D01*
X142402380Y-101309523D01*
X142450000Y-101214285D01*
X142497619Y-101166666D01*
X142592857Y-101119047D01*
X142735714Y-101119047D01*
X142830952Y-101166666D01*
X142878571Y-101214285D01*
X142926190Y-101309523D01*
X142926190Y-101690476D01*
X142402380Y-100833333D02*
X142402380Y-100261904D01*
X143402380Y-100547619D02*
X142402380Y-100547619D01*
X111589285Y-123869364D02*
X111589285Y-124297936D01*
X111589285Y-124083650D02*
X110839285Y-124083650D01*
X110946428Y-124155078D01*
X111017857Y-124226507D01*
X111053571Y-124297936D01*
X111517857Y-123547936D02*
X111553571Y-123512221D01*
X111589285Y-123547936D01*
X111553571Y-123583650D01*
X111517857Y-123547936D01*
X111589285Y-123547936D01*
X110839285Y-122833650D02*
X110839285Y-123190793D01*
X111196428Y-123226507D01*
X111160714Y-123190793D01*
X111125000Y-123119364D01*
X111125000Y-122940793D01*
X111160714Y-122869364D01*
X111196428Y-122833650D01*
X111267857Y-122797936D01*
X111446428Y-122797936D01*
X111517857Y-122833650D01*
X111553571Y-122869364D01*
X111589285Y-122940793D01*
X111589285Y-123119364D01*
X111553571Y-123190793D01*
X111517857Y-123226507D01*
X111589285Y-122476507D02*
X110839285Y-122476507D01*
X111589285Y-122047936D02*
X111160714Y-122369364D01*
X110839285Y-122047936D02*
X111267857Y-122476507D01*
X109732142Y-128089285D02*
X109375000Y-128089285D01*
X109375000Y-127339285D01*
X109982142Y-127696428D02*
X110232142Y-127696428D01*
X110339285Y-128089285D02*
X109982142Y-128089285D01*
X109982142Y-127339285D01*
X110339285Y-127339285D01*
X110660714Y-128089285D02*
X110660714Y-127339285D01*
X110839285Y-127339285D01*
X110946428Y-127375000D01*
X111017857Y-127446428D01*
X111053571Y-127517857D01*
X111089285Y-127660714D01*
X111089285Y-127767857D01*
X111053571Y-127910714D01*
X111017857Y-127982142D01*
X110946428Y-128053571D01*
X110839285Y-128089285D01*
X110660714Y-128089285D01*
X112816380Y-144808095D02*
X112340190Y-145141428D01*
X112816380Y-145379523D02*
X111816380Y-145379523D01*
X111816380Y-144998571D01*
X111864000Y-144903333D01*
X111911619Y-144855714D01*
X112006857Y-144808095D01*
X112149714Y-144808095D01*
X112244952Y-144855714D01*
X112292571Y-144903333D01*
X112340190Y-144998571D01*
X112340190Y-145379523D01*
X112768761Y-143998571D02*
X112816380Y-144093809D01*
X112816380Y-144284285D01*
X112768761Y-144379523D01*
X112673523Y-144427142D01*
X112292571Y-144427142D01*
X112197333Y-144379523D01*
X112149714Y-144284285D01*
X112149714Y-144093809D01*
X112197333Y-143998571D01*
X112292571Y-143950952D01*
X112387809Y-143950952D01*
X112483047Y-144427142D01*
X112768761Y-143570000D02*
X112816380Y-143474761D01*
X112816380Y-143284285D01*
X112768761Y-143189047D01*
X112673523Y-143141428D01*
X112625904Y-143141428D01*
X112530666Y-143189047D01*
X112483047Y-143284285D01*
X112483047Y-143427142D01*
X112435428Y-143522380D01*
X112340190Y-143570000D01*
X112292571Y-143570000D01*
X112197333Y-143522380D01*
X112149714Y-143427142D01*
X112149714Y-143284285D01*
X112197333Y-143189047D01*
X112768761Y-142331904D02*
X112816380Y-142427142D01*
X112816380Y-142617619D01*
X112768761Y-142712857D01*
X112673523Y-142760476D01*
X112292571Y-142760476D01*
X112197333Y-142712857D01*
X112149714Y-142617619D01*
X112149714Y-142427142D01*
X112197333Y-142331904D01*
X112292571Y-142284285D01*
X112387809Y-142284285D01*
X112483047Y-142760476D01*
X112149714Y-141998571D02*
X112149714Y-141617619D01*
X111816380Y-141855714D02*
X112673523Y-141855714D01*
X112768761Y-141808095D01*
X112816380Y-141712857D01*
X112816380Y-141617619D01*
X143200380Y-117054190D02*
X142200380Y-117054190D01*
X142295619Y-116625619D02*
X142248000Y-116578000D01*
X142200380Y-116482761D01*
X142200380Y-116244666D01*
X142248000Y-116149428D01*
X142295619Y-116101809D01*
X142390857Y-116054190D01*
X142486095Y-116054190D01*
X142628952Y-116101809D01*
X143200380Y-116673238D01*
X143200380Y-116054190D01*
X143105142Y-115054190D02*
X143152761Y-115101809D01*
X143200380Y-115244666D01*
X143200380Y-115339904D01*
X143152761Y-115482761D01*
X143057523Y-115578000D01*
X142962285Y-115625619D01*
X142771809Y-115673238D01*
X142628952Y-115673238D01*
X142438476Y-115625619D01*
X142343238Y-115578000D01*
X142248000Y-115482761D01*
X142200380Y-115339904D01*
X142200380Y-115244666D01*
X142248000Y-115101809D01*
X142295619Y-115054190D01*
X116327942Y-113196428D02*
X116577942Y-113196428D01*
X116685085Y-113589285D02*
X116327942Y-113589285D01*
X116327942Y-112839285D01*
X116685085Y-112839285D01*
X116970800Y-113553571D02*
X117077942Y-113589285D01*
X117256514Y-113589285D01*
X117327942Y-113553571D01*
X117363657Y-113517857D01*
X117399371Y-113446428D01*
X117399371Y-113375000D01*
X117363657Y-113303571D01*
X117327942Y-113267857D01*
X117256514Y-113232142D01*
X117113657Y-113196428D01*
X117042228Y-113160714D01*
X117006514Y-113125000D01*
X116970800Y-113053571D01*
X116970800Y-112982142D01*
X117006514Y-112910714D01*
X117042228Y-112875000D01*
X117113657Y-112839285D01*
X117292228Y-112839285D01*
X117399371Y-112875000D01*
X117720800Y-113589285D02*
X117720800Y-112839285D01*
X118006514Y-112839285D01*
X118077942Y-112875000D01*
X118113657Y-112910714D01*
X118149371Y-112982142D01*
X118149371Y-113089285D01*
X118113657Y-113160714D01*
X118077942Y-113196428D01*
X118006514Y-113232142D01*
X117720800Y-113232142D01*
X118399371Y-112839285D02*
X118863657Y-112839285D01*
X118613657Y-113125000D01*
X118720800Y-113125000D01*
X118792228Y-113160714D01*
X118827942Y-113196428D01*
X118863657Y-113267857D01*
X118863657Y-113446428D01*
X118827942Y-113517857D01*
X118792228Y-113553571D01*
X118720800Y-113589285D01*
X118506514Y-113589285D01*
X118435085Y-113553571D01*
X118399371Y-113517857D01*
X119149371Y-112910714D02*
X119185085Y-112875000D01*
X119256514Y-112839285D01*
X119435085Y-112839285D01*
X119506514Y-112875000D01*
X119542228Y-112910714D01*
X119577942Y-112982142D01*
X119577942Y-113053571D01*
X119542228Y-113160714D01*
X119113657Y-113589285D01*
X119577942Y-113589285D01*
X119899371Y-113303571D02*
X120470800Y-113303571D01*
X120756514Y-112839285D02*
X120935085Y-113589285D01*
X121077942Y-113053571D01*
X121220800Y-113589285D01*
X121399371Y-112839285D01*
X122113657Y-113589285D02*
X121863657Y-113232142D01*
X121685085Y-113589285D02*
X121685085Y-112839285D01*
X121970800Y-112839285D01*
X122042228Y-112875000D01*
X122077942Y-112910714D01*
X122113657Y-112982142D01*
X122113657Y-113089285D01*
X122077942Y-113160714D01*
X122042228Y-113196428D01*
X121970800Y-113232142D01*
X121685085Y-113232142D01*
X122577942Y-112839285D02*
X122720800Y-112839285D01*
X122792228Y-112875000D01*
X122863657Y-112946428D01*
X122899371Y-113089285D01*
X122899371Y-113339285D01*
X122863657Y-113482142D01*
X122792228Y-113553571D01*
X122720800Y-113589285D01*
X122577942Y-113589285D01*
X122506514Y-113553571D01*
X122435085Y-113482142D01*
X122399371Y-113339285D01*
X122399371Y-113089285D01*
X122435085Y-112946428D01*
X122506514Y-112875000D01*
X122577942Y-112839285D01*
X123363657Y-112839285D02*
X123506514Y-112839285D01*
X123577942Y-112875000D01*
X123649371Y-112946428D01*
X123685085Y-113089285D01*
X123685085Y-113339285D01*
X123649371Y-113482142D01*
X123577942Y-113553571D01*
X123506514Y-113589285D01*
X123363657Y-113589285D01*
X123292228Y-113553571D01*
X123220800Y-113482142D01*
X123185085Y-113339285D01*
X123185085Y-113089285D01*
X123220800Y-112946428D01*
X123292228Y-112875000D01*
X123363657Y-112839285D01*
X124006514Y-113589285D02*
X124006514Y-112839285D01*
X124256514Y-113375000D01*
X124506514Y-112839285D01*
X124506514Y-113589285D01*
X124863657Y-113303571D02*
X125435085Y-113303571D01*
X125720800Y-112839285D02*
X126185085Y-112839285D01*
X125935085Y-113125000D01*
X126042228Y-113125000D01*
X126113657Y-113160714D01*
X126149371Y-113196428D01*
X126185085Y-113267857D01*
X126185085Y-113446428D01*
X126149371Y-113517857D01*
X126113657Y-113553571D01*
X126042228Y-113589285D01*
X125827942Y-113589285D01*
X125756514Y-113553571D01*
X125720800Y-113517857D01*
X126470800Y-112910714D02*
X126506514Y-112875000D01*
X126577942Y-112839285D01*
X126756514Y-112839285D01*
X126827942Y-112875000D01*
X126863657Y-112910714D01*
X126899371Y-112982142D01*
X126899371Y-113053571D01*
X126863657Y-113160714D01*
X126435085Y-113589285D01*
X126899371Y-113589285D01*
X127220800Y-113589285D02*
X127220800Y-112839285D01*
X127399371Y-112839285D01*
X127506514Y-112875000D01*
X127577942Y-112946428D01*
X127613657Y-113017857D01*
X127649371Y-113160714D01*
X127649371Y-113267857D01*
X127613657Y-113410714D01*
X127577942Y-113482142D01*
X127506514Y-113553571D01*
X127399371Y-113589285D01*
X127220800Y-113589285D01*
X105589285Y-100409285D02*
X105160714Y-100409285D01*
X105375000Y-100409285D02*
X105375000Y-99659285D01*
X105303571Y-99766428D01*
X105232142Y-99837857D01*
X105160714Y-99873571D01*
X106053571Y-99659285D02*
X106125000Y-99659285D01*
X106196428Y-99695000D01*
X106232142Y-99730714D01*
X106267857Y-99802142D01*
X106303571Y-99945000D01*
X106303571Y-100123571D01*
X106267857Y-100266428D01*
X106232142Y-100337857D01*
X106196428Y-100373571D01*
X106125000Y-100409285D01*
X106053571Y-100409285D01*
X105982142Y-100373571D01*
X105946428Y-100337857D01*
X105910714Y-100266428D01*
X105875000Y-100123571D01*
X105875000Y-99945000D01*
X105910714Y-99802142D01*
X105946428Y-99730714D01*
X105982142Y-99695000D01*
X106053571Y-99659285D01*
X106767857Y-99659285D02*
X106839285Y-99659285D01*
X106910714Y-99695000D01*
X106946428Y-99730714D01*
X106982142Y-99802142D01*
X107017857Y-99945000D01*
X107017857Y-100123571D01*
X106982142Y-100266428D01*
X106946428Y-100337857D01*
X106910714Y-100373571D01*
X106839285Y-100409285D01*
X106767857Y-100409285D01*
X106696428Y-100373571D01*
X106660714Y-100337857D01*
X106625000Y-100266428D01*
X106589285Y-100123571D01*
X106589285Y-99945000D01*
X106625000Y-99802142D01*
X106660714Y-99730714D01*
X106696428Y-99695000D01*
X106767857Y-99659285D01*
X107339285Y-99909285D02*
X107339285Y-100409285D01*
X107339285Y-99980714D02*
X107375000Y-99945000D01*
X107446428Y-99909285D01*
X107553571Y-99909285D01*
X107625000Y-99945000D01*
X107660714Y-100016428D01*
X107660714Y-100409285D01*
X108267857Y-100016428D02*
X108017857Y-100016428D01*
X108017857Y-100409285D02*
X108017857Y-99659285D01*
X108375000Y-99659285D01*
X106162142Y-107339285D02*
X105733571Y-107339285D01*
X105947857Y-107339285D02*
X105947857Y-106589285D01*
X105876428Y-106696428D01*
X105805000Y-106767857D01*
X105733571Y-106803571D01*
X106626428Y-106589285D02*
X106697857Y-106589285D01*
X106769285Y-106625000D01*
X106805000Y-106660714D01*
X106840714Y-106732142D01*
X106876428Y-106875000D01*
X106876428Y-107053571D01*
X106840714Y-107196428D01*
X106805000Y-107267857D01*
X106769285Y-107303571D01*
X106697857Y-107339285D01*
X106626428Y-107339285D01*
X106555000Y-107303571D01*
X106519285Y-107267857D01*
X106483571Y-107196428D01*
X106447857Y-107053571D01*
X106447857Y-106875000D01*
X106483571Y-106732142D01*
X106519285Y-106660714D01*
X106555000Y-106625000D01*
X106626428Y-106589285D01*
X107197857Y-107339285D02*
X107197857Y-106589285D01*
X107626428Y-107339285D02*
X107305000Y-106910714D01*
X107626428Y-106589285D02*
X107197857Y-107017857D01*
X142772571Y-144943047D02*
X142820190Y-144800190D01*
X142867809Y-144752571D01*
X142963047Y-144704952D01*
X143105904Y-144704952D01*
X143201142Y-144752571D01*
X143248761Y-144800190D01*
X143296380Y-144895428D01*
X143296380Y-145276380D01*
X142296380Y-145276380D01*
X142296380Y-144943047D01*
X142344000Y-144847809D01*
X142391619Y-144800190D01*
X142486857Y-144752571D01*
X142582095Y-144752571D01*
X142677333Y-144800190D01*
X142724952Y-144847809D01*
X142772571Y-144943047D01*
X142772571Y-145276380D01*
X143296380Y-144133523D02*
X143248761Y-144228761D01*
X143201142Y-144276380D01*
X143105904Y-144324000D01*
X142820190Y-144324000D01*
X142724952Y-144276380D01*
X142677333Y-144228761D01*
X142629714Y-144133523D01*
X142629714Y-143990666D01*
X142677333Y-143895428D01*
X142724952Y-143847809D01*
X142820190Y-143800190D01*
X143105904Y-143800190D01*
X143201142Y-143847809D01*
X143248761Y-143895428D01*
X143296380Y-143990666D01*
X143296380Y-144133523D01*
X143296380Y-143228761D02*
X143248761Y-143324000D01*
X143201142Y-143371619D01*
X143105904Y-143419238D01*
X142820190Y-143419238D01*
X142724952Y-143371619D01*
X142677333Y-143324000D01*
X142629714Y-143228761D01*
X142629714Y-143085904D01*
X142677333Y-142990666D01*
X142724952Y-142943047D01*
X142820190Y-142895428D01*
X143105904Y-142895428D01*
X143201142Y-142943047D01*
X143248761Y-142990666D01*
X143296380Y-143085904D01*
X143296380Y-143228761D01*
X142629714Y-142609714D02*
X142629714Y-142228761D01*
X142296380Y-142466857D02*
X143153523Y-142466857D01*
X143248761Y-142419238D01*
X143296380Y-142324000D01*
X143296380Y-142228761D01*
X105053571Y-134500000D02*
X105053571Y-133928571D01*
X105339285Y-134214285D02*
X104767857Y-134214285D01*
X104589285Y-133642857D02*
X104589285Y-133178571D01*
X104875000Y-133428571D01*
X104875000Y-133321428D01*
X104910714Y-133250000D01*
X104946428Y-133214285D01*
X105017857Y-133178571D01*
X105196428Y-133178571D01*
X105267857Y-133214285D01*
X105303571Y-133250000D01*
X105339285Y-133321428D01*
X105339285Y-133535714D01*
X105303571Y-133607142D01*
X105267857Y-133642857D01*
X105267857Y-132857142D02*
X105303571Y-132821428D01*
X105339285Y-132857142D01*
X105303571Y-132892857D01*
X105267857Y-132857142D01*
X105339285Y-132857142D01*
X104589285Y-132571428D02*
X104589285Y-132107142D01*
X104875000Y-132357142D01*
X104875000Y-132250000D01*
X104910714Y-132178571D01*
X104946428Y-132142857D01*
X105017857Y-132107142D01*
X105196428Y-132107142D01*
X105267857Y-132142857D01*
X105303571Y-132178571D01*
X105339285Y-132250000D01*
X105339285Y-132464285D01*
X105303571Y-132535714D01*
X105267857Y-132571428D01*
X104589285Y-131892857D02*
X105339285Y-131642857D01*
X104589285Y-131392857D01*
X129452380Y-124356666D02*
X130166666Y-124356666D01*
X130309523Y-124404285D01*
X130404761Y-124499523D01*
X130452380Y-124642380D01*
X130452380Y-124737619D01*
X129452380Y-124023333D02*
X129452380Y-123451904D01*
X130452380Y-123737619D02*
X129452380Y-123737619D01*
X130166666Y-123166190D02*
X130166666Y-122690000D01*
X130452380Y-123261428D02*
X129452380Y-122928095D01*
X130452380Y-122594761D01*
X129500000Y-121737619D02*
X129452380Y-121832857D01*
X129452380Y-121975714D01*
X129500000Y-122118571D01*
X129595238Y-122213809D01*
X129690476Y-122261428D01*
X129880952Y-122309047D01*
X130023809Y-122309047D01*
X130214285Y-122261428D01*
X130309523Y-122213809D01*
X130404761Y-122118571D01*
X130452380Y-121975714D01*
X130452380Y-121880476D01*
X130404761Y-121737619D01*
X130357142Y-121690000D01*
X130023809Y-121690000D01*
X130023809Y-121880476D01*
X143152761Y-131833809D02*
X143200380Y-131690952D01*
X143200380Y-131452857D01*
X143152761Y-131357619D01*
X143105142Y-131310000D01*
X143009904Y-131262380D01*
X142914666Y-131262380D01*
X142819428Y-131310000D01*
X142771809Y-131357619D01*
X142724190Y-131452857D01*
X142676571Y-131643333D01*
X142628952Y-131738571D01*
X142581333Y-131786190D01*
X142486095Y-131833809D01*
X142390857Y-131833809D01*
X142295619Y-131786190D01*
X142248000Y-131738571D01*
X142200380Y-131643333D01*
X142200380Y-131405238D01*
X142248000Y-131262380D01*
X143200380Y-130833809D02*
X142200380Y-130833809D01*
X142200380Y-130452857D01*
X142248000Y-130357619D01*
X142295619Y-130310000D01*
X142390857Y-130262380D01*
X142533714Y-130262380D01*
X142628952Y-130310000D01*
X142676571Y-130357619D01*
X142724190Y-130452857D01*
X142724190Y-130833809D01*
X143200380Y-129833809D02*
X142200380Y-129833809D01*
X115282142Y-127789285D02*
X114853571Y-127789285D01*
X115067857Y-127789285D02*
X115067857Y-127039285D01*
X114996428Y-127146428D01*
X114925000Y-127217857D01*
X114853571Y-127253571D01*
X115746428Y-127039285D02*
X115817857Y-127039285D01*
X115889285Y-127075000D01*
X115925000Y-127110714D01*
X115960714Y-127182142D01*
X115996428Y-127325000D01*
X115996428Y-127503571D01*
X115960714Y-127646428D01*
X115925000Y-127717857D01*
X115889285Y-127753571D01*
X115817857Y-127789285D01*
X115746428Y-127789285D01*
X115675000Y-127753571D01*
X115639285Y-127717857D01*
X115603571Y-127646428D01*
X115567857Y-127503571D01*
X115567857Y-127325000D01*
X115603571Y-127182142D01*
X115639285Y-127110714D01*
X115675000Y-127075000D01*
X115746428Y-127039285D01*
X116317857Y-127789285D02*
X116317857Y-127039285D01*
X116746428Y-127789285D02*
X116425000Y-127360714D01*
X116746428Y-127039285D02*
X116317857Y-127467857D01*
X116768271Y-141677200D02*
X116434334Y-141200147D01*
X116195807Y-141677200D02*
X116195807Y-140675389D01*
X116577450Y-140675389D01*
X116672860Y-140723094D01*
X116720565Y-140770799D01*
X116768271Y-140866210D01*
X116768271Y-141009326D01*
X116720565Y-141104736D01*
X116672860Y-141152442D01*
X116577450Y-141200147D01*
X116195807Y-141200147D01*
X117531555Y-141152442D02*
X117197618Y-141152442D01*
X117197618Y-141677200D02*
X117197618Y-140675389D01*
X117674671Y-140675389D01*
X118056313Y-141677200D02*
X118056313Y-140675389D01*
X118390250Y-141390968D01*
X118724187Y-140675389D01*
X118724187Y-141677200D01*
X119248946Y-141677200D02*
X119439767Y-141677200D01*
X119535177Y-141629494D01*
X119582883Y-141581789D01*
X119678293Y-141438673D01*
X119725998Y-141247852D01*
X119725998Y-140866210D01*
X119678293Y-140770799D01*
X119630588Y-140723094D01*
X119535177Y-140675389D01*
X119344356Y-140675389D01*
X119248946Y-140723094D01*
X119201240Y-140770799D01*
X119153535Y-140866210D01*
X119153535Y-141104736D01*
X119201240Y-141200147D01*
X119248946Y-141247852D01*
X119344356Y-141295557D01*
X119535177Y-141295557D01*
X119630588Y-141247852D01*
X119678293Y-141200147D01*
X119725998Y-141104736D01*
X120632399Y-140675389D02*
X120155346Y-140675389D01*
X120107641Y-141152442D01*
X120155346Y-141104736D01*
X120250757Y-141057031D01*
X120489283Y-141057031D01*
X120584694Y-141104736D01*
X120632399Y-141152442D01*
X120680104Y-141247852D01*
X120680104Y-141486379D01*
X120632399Y-141581789D01*
X120584694Y-141629494D01*
X120489283Y-141677200D01*
X120250757Y-141677200D01*
X120155346Y-141629494D01*
X120107641Y-141581789D01*
X121014041Y-140675389D02*
X121252568Y-141677200D01*
X121443389Y-140961620D01*
X121634210Y-141677200D01*
X121872736Y-140675389D01*
X122254379Y-141295557D02*
X123017663Y-141295557D01*
X123542421Y-141677200D02*
X123733242Y-141677200D01*
X123828653Y-141629494D01*
X123876358Y-141581789D01*
X123971769Y-141438673D01*
X124019474Y-141247852D01*
X124019474Y-140866210D01*
X123971769Y-140770799D01*
X123924064Y-140723094D01*
X123828653Y-140675389D01*
X123637832Y-140675389D01*
X123542421Y-140723094D01*
X123494716Y-140770799D01*
X123447011Y-140866210D01*
X123447011Y-141104736D01*
X123494716Y-141200147D01*
X123542421Y-141247852D01*
X123637832Y-141295557D01*
X123828653Y-141295557D01*
X123924064Y-141247852D01*
X123971769Y-141200147D01*
X124019474Y-141104736D01*
X124973580Y-141677200D02*
X124401116Y-141677200D01*
X124687348Y-141677200D02*
X124687348Y-140675389D01*
X124591938Y-140818505D01*
X124496527Y-140913915D01*
X124401116Y-140961620D01*
X125879980Y-140675389D02*
X125402927Y-140675389D01*
X125355222Y-141152442D01*
X125402927Y-141104736D01*
X125498338Y-141057031D01*
X125736864Y-141057031D01*
X125832275Y-141104736D01*
X125879980Y-141152442D01*
X125927686Y-141247852D01*
X125927686Y-141486379D01*
X125879980Y-141581789D01*
X125832275Y-141629494D01*
X125736864Y-141677200D01*
X125498338Y-141677200D01*
X125402927Y-141629494D01*
X125355222Y-141581789D01*
X126309328Y-141629494D02*
X126452444Y-141677200D01*
X126690970Y-141677200D01*
X126786381Y-141629494D01*
X126834086Y-141581789D01*
X126881791Y-141486379D01*
X126881791Y-141390968D01*
X126834086Y-141295557D01*
X126786381Y-141247852D01*
X126690970Y-141200147D01*
X126500149Y-141152442D01*
X126404738Y-141104736D01*
X126357033Y-141057031D01*
X126309328Y-140961620D01*
X126309328Y-140866210D01*
X126357033Y-140770799D01*
X126404738Y-140723094D01*
X126500149Y-140675389D01*
X126738675Y-140675389D01*
X126881791Y-140723094D01*
X127263434Y-140770799D02*
X127311139Y-140723094D01*
X127406549Y-140675389D01*
X127645076Y-140675389D01*
X127740486Y-140723094D01*
X127788192Y-140770799D01*
X127835897Y-140866210D01*
X127835897Y-140961620D01*
X127788192Y-141104736D01*
X127215728Y-141677200D01*
X127835897Y-141677200D01*
D12*
X141650000Y-96900000D02*
X141150000Y-96900000D01*
X141650000Y-96900000D02*
X141650000Y-97400000D01*
X141650000Y-107100000D02*
X141150000Y-107100000D01*
X136850000Y-96900000D02*
X137350000Y-96900000D01*
X136850000Y-107100000D02*
X136850000Y-106600000D01*
X136850000Y-107100000D02*
X137350000Y-107100000D01*
X141650000Y-107100000D02*
X141650000Y-106600000D01*
X136850000Y-96900000D02*
X136850000Y-97400000D01*
D13*
X112265000Y-123627064D02*
X112265000Y-123172936D01*
X113735000Y-123627064D02*
X113735000Y-123172936D01*
D14*
X112050000Y-129900000D02*
X108950000Y-129900000D01*
X108950000Y-129900000D02*
X108950000Y-128600000D01*
X108950000Y-128600000D02*
X112050000Y-128600000D01*
X112050000Y-128600000D02*
X112050000Y-129900000D01*
D13*
X107164000Y-147570000D02*
X108664000Y-147570000D01*
X111164000Y-146320000D02*
X111164000Y-141820000D01*
X108664000Y-140570000D02*
X107164000Y-140570000D01*
X104664000Y-141820000D02*
X104664000Y-146320000D01*
D12*
X136850000Y-111150000D02*
X137350000Y-111150000D01*
X141650000Y-111150000D02*
X141150000Y-111150000D01*
X136850000Y-121350000D02*
X137350000Y-121350000D01*
X141650000Y-121350000D02*
X141150000Y-121350000D01*
X136850000Y-111150000D02*
X136850000Y-111650000D01*
X141650000Y-111150000D02*
X141650000Y-111650000D01*
X141650000Y-121350000D02*
X141650000Y-120850000D01*
X136850000Y-121350000D02*
X136850000Y-120850000D01*
D13*
X131090800Y-118000000D02*
X130090800Y-118000000D01*
X112850800Y-92255000D02*
X112850800Y-98675000D01*
X112850800Y-92255000D02*
X131090800Y-92255000D01*
X131090800Y-117220000D02*
X131090800Y-118000000D01*
X112850800Y-117220000D02*
X112850800Y-118000000D01*
X112850800Y-118000000D02*
X113850800Y-118000000D01*
X131090800Y-92255000D02*
X131090800Y-98675000D01*
X112850800Y-98675000D02*
X112470800Y-98675000D01*
X107011252Y-102485000D02*
X106488748Y-102485000D01*
X107011252Y-101015000D02*
X106488748Y-101015000D01*
X106907064Y-104421000D02*
X106452936Y-104421000D01*
X106907064Y-105891000D02*
X106452936Y-105891000D01*
X137644000Y-147824000D02*
X139144000Y-147824000D01*
X139144000Y-140824000D02*
X137644000Y-140824000D01*
X141644000Y-146574000D02*
X141644000Y-142074000D01*
X135144000Y-142074000D02*
X135144000Y-146574000D01*
D12*
X110650000Y-137850000D02*
X110150000Y-137850000D01*
X105850000Y-131650000D02*
X106350000Y-131650000D01*
X110650000Y-131650000D02*
X110150000Y-131650000D01*
X105850000Y-131650000D02*
X105850000Y-132150000D01*
X110650000Y-137850000D02*
X110650000Y-137350000D01*
X105850000Y-137850000D02*
X105850000Y-137350000D01*
X105850000Y-137850000D02*
X106350000Y-137850000D01*
X110650000Y-131650000D02*
X110650000Y-132150000D01*
D13*
X128410000Y-124520000D02*
X128410000Y-121860000D01*
X116920000Y-124520000D02*
X115590000Y-124520000D01*
X118190000Y-124520000D02*
X118190000Y-121860000D01*
X118190000Y-121860000D02*
X128410000Y-121860000D01*
X118190000Y-124520000D02*
X128410000Y-124520000D01*
X115590000Y-124520000D02*
X115590000Y-123190000D01*
D12*
X141650000Y-125900000D02*
X141150000Y-125900000D01*
X141650000Y-136100000D02*
X141650000Y-135600000D01*
X141650000Y-136100000D02*
X141150000Y-136100000D01*
X136850000Y-125900000D02*
X137350000Y-125900000D01*
X136850000Y-125900000D02*
X136850000Y-126400000D01*
X136850000Y-136100000D02*
X136850000Y-135600000D01*
X136850000Y-136100000D02*
X137350000Y-136100000D01*
X141650000Y-125900000D02*
X141650000Y-126400000D01*
X113150000Y-152020000D02*
X113650000Y-152020000D01*
X116350000Y-155320000D02*
X116350000Y-154820000D01*
X116350000Y-155320000D02*
X115850000Y-155320000D01*
X116350000Y-152020000D02*
X116350000Y-152520000D01*
X116350000Y-152020000D02*
X115850000Y-152020000D01*
X113150000Y-152020000D02*
X113150000Y-152520000D01*
X113150000Y-155320000D02*
X113650000Y-155320000D01*
X113150000Y-155320000D02*
X113150000Y-154820000D01*
D13*
X115572936Y-128465000D02*
X116027064Y-128465000D01*
X115572936Y-129935000D02*
X116027064Y-129935000D01*
G36*
X134612623Y-152236926D02*
G01*
X134619926Y-152328761D01*
X134615134Y-152343063D01*
X134557438Y-152400847D01*
X134472548Y-152417836D01*
X134403428Y-152392280D01*
X134387307Y-152352327D01*
X134421785Y-152267254D01*
X134462647Y-152222512D01*
X134549815Y-152193302D01*
X134612623Y-152236926D01*
G37*
G36*
X127136643Y-152859968D02*
G01*
X127187724Y-152815002D01*
X127340826Y-152743194D01*
X127538129Y-152712060D01*
X127733436Y-152725236D01*
X127845134Y-152763257D01*
X127921414Y-152852136D01*
X127933587Y-152978165D01*
X127880365Y-153103674D01*
X127857670Y-153129582D01*
X127775809Y-153187872D01*
X127631763Y-153269374D01*
X127453112Y-153358756D01*
X127405843Y-153380733D01*
X127035961Y-153549939D01*
X127157321Y-153649095D01*
X127307367Y-153715944D01*
X127490477Y-153722778D01*
X127664298Y-153671678D01*
X127739656Y-153620485D01*
X127846505Y-153551606D01*
X127916929Y-153563480D01*
X127939615Y-153643157D01*
X127902264Y-153730102D01*
X127782524Y-153813151D01*
X127732019Y-153837469D01*
X127469695Y-153919264D01*
X127227316Y-153912225D01*
X127079906Y-153864097D01*
X126966061Y-153795203D01*
X126898117Y-153718822D01*
X126896733Y-153715475D01*
X126864050Y-153508459D01*
X126899995Y-153275660D01*
X126909792Y-153252099D01*
X127088334Y-153252099D01*
X127098222Y-153290600D01*
X127171227Y-153279688D01*
X127315082Y-153219029D01*
X127454412Y-153150662D01*
X127625270Y-153052880D01*
X127703588Y-152979345D01*
X127689029Y-152931132D01*
X127581254Y-152909314D01*
X127530876Y-152908077D01*
X127370807Y-152933041D01*
X127243168Y-153019829D01*
X127133831Y-153164519D01*
X127088334Y-153252099D01*
X126909792Y-153252099D01*
X126994286Y-153048892D01*
X127136643Y-152859968D01*
G37*
G36*
X125915682Y-152069112D02*
G01*
X126105565Y-152090358D01*
X126217072Y-152133463D01*
X126256028Y-152199414D01*
X126246347Y-152252085D01*
X126209146Y-152289340D01*
X126121951Y-152304536D01*
X125964856Y-152300091D01*
X125895116Y-152294796D01*
X125702821Y-152286970D01*
X125529188Y-152293620D01*
X125427375Y-152309769D01*
X125343097Y-152345128D01*
X125290018Y-152407542D01*
X125251491Y-152523878D01*
X125228394Y-152630938D01*
X125172615Y-152910286D01*
X125603615Y-152877750D01*
X125809079Y-152863377D01*
X125936048Y-152860261D01*
X126003386Y-152871559D01*
X126029954Y-152900429D01*
X126034615Y-152949914D01*
X126010533Y-153034129D01*
X125973557Y-153057249D01*
X125828572Y-153067562D01*
X125649150Y-153085913D01*
X125462039Y-153108797D01*
X125293989Y-153132710D01*
X125171747Y-153154148D01*
X125122695Y-153168714D01*
X125106056Y-153229723D01*
X125093121Y-153357386D01*
X125087893Y-153480312D01*
X125082115Y-153762884D01*
X125488874Y-153747768D01*
X125687183Y-153741505D01*
X125806613Y-153743972D01*
X125865892Y-153759852D01*
X125883750Y-153793826D01*
X125879643Y-153845461D01*
X125865808Y-153899908D01*
X125829929Y-153934285D01*
X125752222Y-153954278D01*
X125612899Y-153965572D01*
X125438124Y-153972355D01*
X125226234Y-153976634D01*
X125087772Y-153969880D01*
X124998738Y-153948183D01*
X124935128Y-153907637D01*
X124913028Y-153886874D01*
X124863537Y-153830447D01*
X124832823Y-153767763D01*
X124821253Y-153682446D01*
X124829195Y-153558121D01*
X124857016Y-153378412D01*
X124905085Y-153126945D01*
X124933229Y-152986950D01*
X124981185Y-152744042D01*
X125022582Y-152523279D01*
X125052923Y-152349380D01*
X125067556Y-152248654D01*
X125087103Y-152153294D01*
X125140397Y-152108001D01*
X125257586Y-152089742D01*
X125277500Y-152088265D01*
X125641602Y-152068743D01*
X125915682Y-152069112D01*
G37*
G36*
X122174506Y-152301450D02*
G01*
X122214515Y-152397131D01*
X122224615Y-152521121D01*
X122230251Y-152644096D01*
X122257443Y-152693091D01*
X122321615Y-152691628D01*
X122334519Y-152688714D01*
X122459219Y-152687517D01*
X122540681Y-152737621D01*
X122553382Y-152822367D01*
X122550766Y-152829878D01*
X122475845Y-152891306D01*
X122347054Y-152908077D01*
X122231276Y-152925739D01*
X122150258Y-152988846D01*
X122095106Y-153112583D01*
X122056926Y-153312130D01*
X122043355Y-153426493D01*
X122038175Y-153609119D01*
X122072919Y-153704997D01*
X122150915Y-153717953D01*
X122252566Y-153667372D01*
X122372592Y-153616111D01*
X122448355Y-153641428D01*
X122468846Y-153715667D01*
X122427059Y-153785042D01*
X122324637Y-153857506D01*
X122195990Y-153913552D01*
X122083991Y-153933846D01*
X121973131Y-153900615D01*
X121905573Y-153852057D01*
X121860520Y-153784792D01*
X121840986Y-153683407D01*
X121843173Y-153521270D01*
X121848076Y-153449076D01*
X121866086Y-153264246D01*
X121888605Y-153105203D01*
X121907650Y-153017981D01*
X121920702Y-152941762D01*
X121876268Y-152912294D01*
X121790697Y-152908077D01*
X121680908Y-152893970D01*
X121640756Y-152840799D01*
X121638461Y-152810384D01*
X121653796Y-152738910D01*
X121715382Y-152708452D01*
X121846589Y-152708818D01*
X121867680Y-152710414D01*
X121942404Y-152698310D01*
X121985990Y-152630395D01*
X122009053Y-152532648D01*
X122057383Y-152369979D01*
X122117331Y-152292656D01*
X122174506Y-152301450D01*
G37*
G36*
X129941044Y-152301450D02*
G01*
X129981054Y-152397131D01*
X129991154Y-152521121D01*
X129996790Y-152644096D01*
X130023982Y-152693091D01*
X130088153Y-152691628D01*
X130101057Y-152688714D01*
X130225758Y-152687517D01*
X130307220Y-152737621D01*
X130319921Y-152822367D01*
X130317304Y-152829878D01*
X130242383Y-152891306D01*
X130113593Y-152908077D01*
X129997815Y-152925739D01*
X129916797Y-152988846D01*
X129861645Y-153112583D01*
X129823464Y-153312130D01*
X129809894Y-153426493D01*
X129804713Y-153609119D01*
X129839458Y-153704997D01*
X129917453Y-153717953D01*
X130019104Y-153667372D01*
X130139131Y-153616111D01*
X130214893Y-153641428D01*
X130235384Y-153715667D01*
X130193597Y-153785042D01*
X130091176Y-153857506D01*
X129962528Y-153913552D01*
X129850530Y-153933846D01*
X129739670Y-153900615D01*
X129672112Y-153852057D01*
X129627058Y-153784792D01*
X129607524Y-153683407D01*
X129609712Y-153521270D01*
X129614614Y-153449076D01*
X129632624Y-153264246D01*
X129655143Y-153105203D01*
X129674188Y-153017981D01*
X129687240Y-152941762D01*
X129642807Y-152912294D01*
X129557235Y-152908077D01*
X129447446Y-152893970D01*
X129407295Y-152840799D01*
X129405000Y-152810384D01*
X129420335Y-152738910D01*
X129481920Y-152708452D01*
X129613127Y-152708818D01*
X129634219Y-152710414D01*
X129708943Y-152698310D01*
X129752528Y-152630395D01*
X129775591Y-152532648D01*
X129823921Y-152369979D01*
X129883870Y-152292656D01*
X129941044Y-152301450D01*
G37*
G36*
X133811001Y-152730158D02*
G01*
X133824595Y-152743111D01*
X133861281Y-152794754D01*
X133881135Y-152872229D01*
X133885886Y-152996396D01*
X133877264Y-153188112D01*
X133870153Y-153292630D01*
X133851273Y-153509414D01*
X133828704Y-153699276D01*
X133806057Y-153834112D01*
X133795586Y-153872788D01*
X133735786Y-153965135D01*
X133669301Y-153971532D01*
X133621955Y-153905572D01*
X133611960Y-153819416D01*
X133614869Y-153669970D01*
X133628765Y-153502591D01*
X133654776Y-153260960D01*
X133667872Y-153099331D01*
X133666925Y-153000728D01*
X133650809Y-152948174D01*
X133618397Y-152924692D01*
X133589923Y-152917348D01*
X133470551Y-152939806D01*
X133347489Y-153040437D01*
X133233421Y-153201105D01*
X133141034Y-153403672D01*
X133083012Y-153630002D01*
X133080686Y-153645425D01*
X133052109Y-153801390D01*
X133016760Y-153881760D01*
X132963391Y-153908528D01*
X132945673Y-153909423D01*
X132885957Y-153896839D01*
X132861619Y-153842175D01*
X132863117Y-153720065D01*
X132864944Y-153694833D01*
X132891289Y-153462219D01*
X132932642Y-153227056D01*
X132983602Y-153009917D01*
X133038770Y-152831372D01*
X133092746Y-152711994D01*
X133133293Y-152672476D01*
X133196656Y-152689180D01*
X133215000Y-152780908D01*
X133215000Y-152905133D01*
X133392778Y-152784489D01*
X133565915Y-152689128D01*
X133699548Y-152671571D01*
X133811001Y-152730158D01*
G37*
G36*
X128875016Y-152678172D02*
G01*
X129052871Y-152721612D01*
X129162032Y-152789627D01*
X129191493Y-152872665D01*
X129163871Y-152928762D01*
X129109527Y-152975061D01*
X129041180Y-152967988D01*
X128962897Y-152931213D01*
X128841903Y-152876011D01*
X128756694Y-152871856D01*
X128670873Y-152926641D01*
X128581510Y-153013918D01*
X128428460Y-153211390D01*
X128358711Y-153400238D01*
X128375566Y-153569163D01*
X128403476Y-153622931D01*
X128475954Y-153706472D01*
X128567568Y-153731794D01*
X128664320Y-153724311D01*
X128819437Y-153697809D01*
X128951989Y-153665674D01*
X128958100Y-153663752D01*
X129041083Y-153648352D01*
X129059570Y-153689646D01*
X129055359Y-153718038D01*
X128990742Y-153820029D01*
X128860466Y-153891821D01*
X128693087Y-153929049D01*
X128517162Y-153927348D01*
X128361244Y-153882354D01*
X128291340Y-153834802D01*
X128200876Y-153718302D01*
X128154187Y-153612875D01*
X128154986Y-153453456D01*
X128214832Y-153256385D01*
X128321306Y-153050615D01*
X128461988Y-152865101D01*
X128485415Y-152840669D01*
X128602457Y-152730715D01*
X128692241Y-152678782D01*
X128791869Y-152669393D01*
X128875016Y-152678172D01*
G37*
G36*
X131434168Y-152694189D02*
G01*
X131513587Y-152771397D01*
X131526574Y-152913273D01*
X131511839Y-152986153D01*
X131459158Y-153096986D01*
X131392007Y-153145495D01*
X131334313Y-153126034D01*
X131310000Y-153033774D01*
X131280436Y-152934464D01*
X131198940Y-152909640D01*
X131076306Y-152958891D01*
X130960627Y-153047042D01*
X130875335Y-153135442D01*
X130819487Y-153234637D01*
X130780307Y-153375124D01*
X130750876Y-153547715D01*
X130719508Y-153735143D01*
X130689022Y-153846362D01*
X130650278Y-153902340D01*
X130594137Y-153924047D01*
X130586290Y-153925273D01*
X130506840Y-153922453D01*
X130494744Y-153862860D01*
X130501615Y-153827581D01*
X130520275Y-153730219D01*
X130548694Y-153564744D01*
X130582054Y-153359641D01*
X130598460Y-153255133D01*
X130645174Y-152992048D01*
X130691042Y-152820388D01*
X130739257Y-152733969D01*
X130793016Y-152726608D01*
X130845191Y-152777535D01*
X130902760Y-152836395D01*
X130966807Y-152828472D01*
X131025076Y-152794542D01*
X131158673Y-152731130D01*
X131294392Y-152689929D01*
X131434168Y-152694189D01*
G37*
G36*
X135469247Y-152678172D02*
G01*
X135647101Y-152721612D01*
X135756263Y-152789627D01*
X135785724Y-152872665D01*
X135758102Y-152928762D01*
X135703758Y-152975061D01*
X135635410Y-152967988D01*
X135557127Y-152931213D01*
X135436133Y-152876011D01*
X135350924Y-152871856D01*
X135265104Y-152926641D01*
X135175740Y-153013918D01*
X135022691Y-153211390D01*
X134952942Y-153400238D01*
X134969797Y-153569163D01*
X134997707Y-153622931D01*
X135070185Y-153706472D01*
X135161799Y-153731794D01*
X135258550Y-153724311D01*
X135413668Y-153697809D01*
X135546220Y-153665674D01*
X135552330Y-153663752D01*
X135635313Y-153648352D01*
X135653801Y-153689646D01*
X135649590Y-153718038D01*
X135584973Y-153820029D01*
X135454697Y-153891821D01*
X135287318Y-153929049D01*
X135111392Y-153927348D01*
X134955475Y-153882354D01*
X134885571Y-153834802D01*
X134795107Y-153718302D01*
X134748418Y-153612875D01*
X134749217Y-153453456D01*
X134809063Y-153256385D01*
X134915537Y-153050615D01*
X135056219Y-152865101D01*
X135079646Y-152840669D01*
X135196688Y-152730715D01*
X135286472Y-152678782D01*
X135386100Y-152669393D01*
X135469247Y-152678172D01*
G37*
G36*
X126784257Y-152079340D02*
G01*
X126796009Y-152177631D01*
X126793574Y-152190590D01*
X126777253Y-152274941D01*
X126747665Y-152435643D01*
X126708417Y-152652824D01*
X126663114Y-152906609D01*
X126641230Y-153030192D01*
X126593075Y-153292103D01*
X126546829Y-153524361D01*
X126506585Y-153707757D01*
X126476438Y-153823079D01*
X126466886Y-153848365D01*
X126397409Y-153925298D01*
X126327292Y-153915003D01*
X126305414Y-153888471D01*
X126302674Y-153823195D01*
X126317749Y-153681619D01*
X126347033Y-153482760D01*
X126386925Y-153245635D01*
X126433820Y-152989259D01*
X126484117Y-152732649D01*
X126534210Y-152494821D01*
X126580498Y-152294791D01*
X126619376Y-152151577D01*
X126647242Y-152084193D01*
X126647306Y-152084124D01*
X126726313Y-152042074D01*
X126784257Y-152079340D01*
G37*
G36*
X134446584Y-152721912D02*
G01*
X134473838Y-152753518D01*
X134481442Y-152830250D01*
X134469561Y-152965943D01*
X134438358Y-153174431D01*
X134407042Y-153359882D01*
X134366354Y-153590259D01*
X134335316Y-153741057D01*
X134307727Y-153829096D01*
X134277387Y-153871195D01*
X134238095Y-153884174D01*
X134213463Y-153885000D01*
X134163567Y-153848961D01*
X134146949Y-153733138D01*
X134147193Y-153701827D01*
X134159341Y-153564689D01*
X134187639Y-153370904D01*
X134226344Y-153159029D01*
X134232674Y-153128159D01*
X134281989Y-152918737D01*
X134327602Y-152791371D01*
X134375724Y-152730931D01*
X134399519Y-152721597D01*
X134446584Y-152721912D01*
G37*
G36*
X131660234Y-153202524D02*
G01*
X131768938Y-153005989D01*
X131921611Y-152845575D01*
X132107614Y-152741652D01*
X132274711Y-152712875D01*
X132453144Y-152751330D01*
X132570780Y-152865265D01*
X132625184Y-153051812D01*
X132628846Y-153129453D01*
X132594562Y-153409414D01*
X132498221Y-153642055D01*
X132349585Y-153814588D01*
X132158418Y-153914227D01*
X132014681Y-153933846D01*
X131860739Y-153919463D01*
X131758317Y-153864293D01*
X131704314Y-153805143D01*
X131617284Y-153622473D01*
X131608344Y-153455930D01*
X131817146Y-153455930D01*
X131836507Y-153560594D01*
X131869886Y-153620386D01*
X131976735Y-153719148D01*
X132106071Y-153723082D01*
X132258416Y-153632197D01*
X132264581Y-153626946D01*
X132362980Y-153495502D01*
X132419169Y-153326967D01*
X132427923Y-153156153D01*
X132384016Y-153017868D01*
X132360401Y-152988533D01*
X132244402Y-152929727D01*
X132114741Y-152951709D01*
X131989830Y-153042991D01*
X131888082Y-153192084D01*
X131844131Y-153310643D01*
X131817146Y-153455930D01*
X131608344Y-153455930D01*
X131606137Y-153414809D01*
X131660234Y-153202524D01*
G37*
G36*
X136854327Y-152610717D02*
G01*
X136892331Y-152663468D01*
X136902740Y-152763750D01*
X136902884Y-152785292D01*
X136890697Y-152921811D01*
X136848026Y-152985625D01*
X136817404Y-152996470D01*
X136744699Y-152977808D01*
X136731923Y-152936081D01*
X136699644Y-152872442D01*
X136599685Y-152868453D01*
X136427359Y-152924052D01*
X136408552Y-152931805D01*
X136287836Y-153002421D01*
X136264253Y-153070069D01*
X136337247Y-153130873D01*
X136442168Y-153166436D01*
X136582823Y-153218016D01*
X136692289Y-153283526D01*
X136695288Y-153286155D01*
X136768464Y-153411119D01*
X136776895Y-153571563D01*
X136722902Y-153731928D01*
X136660874Y-153813951D01*
X136573447Y-153884421D01*
X136469720Y-153920806D01*
X136314827Y-153933258D01*
X136249170Y-153933846D01*
X136040512Y-153920988D01*
X135911613Y-153880318D01*
X135878423Y-153854907D01*
X135823566Y-153770987D01*
X135818820Y-153720580D01*
X135838753Y-153692431D01*
X135886482Y-153680574D01*
X135981933Y-153684973D01*
X136145030Y-153705592D01*
X136243461Y-153719809D01*
X136424220Y-153713038D01*
X136512115Y-153671280D01*
X136575074Y-153584720D01*
X136546364Y-153496844D01*
X136431612Y-153415110D01*
X136275107Y-153357290D01*
X136100024Y-153277614D01*
X136011778Y-153170232D01*
X136007768Y-153046733D01*
X136085392Y-152918709D01*
X136242048Y-152797750D01*
X136419273Y-152715073D01*
X136633346Y-152638777D01*
X136773182Y-152603239D01*
X136854327Y-152610717D01*
G37*
G36*
X120012914Y-152159474D02*
G01*
X120036638Y-152220033D01*
X120053719Y-152329049D01*
X120065898Y-152498378D01*
X120074918Y-152739872D01*
X120082521Y-153065384D01*
X120083673Y-153123499D01*
X120088098Y-153451184D01*
X120085602Y-153690696D01*
X120074493Y-153851411D01*
X120053080Y-153942709D01*
X120019673Y-153973967D01*
X119972581Y-153954563D01*
X119939226Y-153924687D01*
X119909456Y-153844007D01*
X119889466Y-153670252D01*
X119879100Y-153401717D01*
X119877544Y-153252442D01*
X119875089Y-152639423D01*
X119593152Y-153225577D01*
X119447396Y-153518448D01*
X119331325Y-153726881D01*
X119239895Y-153857747D01*
X119168064Y-153917920D01*
X119110789Y-153914273D01*
X119096466Y-153902543D01*
X119074036Y-153837483D01*
X119048793Y-153696600D01*
X119024036Y-153501571D01*
X119005502Y-153305207D01*
X118986260Y-153084277D01*
X118967586Y-152902034D01*
X118951749Y-152778798D01*
X118941869Y-152735202D01*
X118918968Y-152770867D01*
X118869995Y-152882169D01*
X118801701Y-153052735D01*
X118720840Y-153266191D01*
X118703893Y-153312208D01*
X118595804Y-153593187D01*
X118509638Y-153785256D01*
X118442622Y-153894023D01*
X118401105Y-153924797D01*
X118343685Y-153917618D01*
X118321536Y-153861440D01*
X118336217Y-153747364D01*
X118389288Y-153566490D01*
X118482310Y-153309920D01*
X118530840Y-153184649D01*
X118621940Y-152950876D01*
X118706123Y-152732024D01*
X118773280Y-152554540D01*
X118810011Y-152454303D01*
X118885233Y-152292333D01*
X118971758Y-152182860D01*
X119054611Y-152140920D01*
X119102883Y-152160268D01*
X119123978Y-152225908D01*
X119145444Y-152369208D01*
X119164986Y-152570174D01*
X119180307Y-152808811D01*
X119182374Y-152852729D01*
X119195156Y-153090185D01*
X119210030Y-153287913D01*
X119225321Y-153427884D01*
X119239352Y-153492068D01*
X119242004Y-153494231D01*
X119271748Y-153451900D01*
X119330110Y-153336488D01*
X119408803Y-153165364D01*
X119499536Y-152955900D01*
X119504249Y-152944711D01*
X119625233Y-152658963D01*
X119716076Y-152450966D01*
X119783591Y-152308040D01*
X119834593Y-152217501D01*
X119875894Y-152166668D01*
X119914307Y-152142860D01*
X119938563Y-152136318D01*
X119980803Y-152135520D01*
X120012914Y-152159474D01*
G37*
G36*
X120743327Y-152684672D02*
G01*
X120749322Y-152762886D01*
X120739562Y-152822596D01*
X120719619Y-152953228D01*
X120697522Y-153139686D01*
X120679083Y-153330257D01*
X120666116Y-153513533D01*
X120668513Y-153622256D01*
X120689948Y-153678862D01*
X120734093Y-153705789D01*
X120740931Y-153708040D01*
X120854033Y-153716740D01*
X120977066Y-153698066D01*
X121045638Y-153674696D01*
X121092872Y-153635546D01*
X121127839Y-153560735D01*
X121159609Y-153430383D01*
X121197255Y-153224611D01*
X121199822Y-153209872D01*
X121253241Y-152943588D01*
X121305914Y-152769491D01*
X121360475Y-152682133D01*
X121419562Y-152676069D01*
X121447698Y-152697775D01*
X121461154Y-152764499D01*
X121457945Y-152903273D01*
X121441183Y-153090474D01*
X121413979Y-153302484D01*
X121379446Y-153515681D01*
X121340695Y-153706445D01*
X121300839Y-153851155D01*
X121292893Y-153872788D01*
X121232054Y-153965031D01*
X121164730Y-153975979D01*
X121130534Y-153941867D01*
X121071667Y-153922696D01*
X120947701Y-153917403D01*
X120846708Y-153922486D01*
X120684072Y-153929029D01*
X120582751Y-153909222D01*
X120508070Y-153854875D01*
X120493121Y-153838965D01*
X120448504Y-153781617D01*
X120424690Y-153716723D01*
X120419917Y-153620677D01*
X120432420Y-153469872D01*
X120452871Y-153300304D01*
X120494967Y-153021854D01*
X120541727Y-152830550D01*
X120597132Y-152715851D01*
X120665165Y-152667214D01*
X120693224Y-152663846D01*
X120743327Y-152684672D01*
G37*
G36*
X123151159Y-152077692D02*
G01*
X123207189Y-152085922D01*
X123237654Y-152121728D01*
X123243614Y-152201789D01*
X123226128Y-152342783D01*
X123186256Y-152561385D01*
X123182975Y-152578365D01*
X123154127Y-152741996D01*
X123138710Y-152859987D01*
X123139873Y-152907954D01*
X123140432Y-152908077D01*
X123189462Y-152881037D01*
X123279438Y-152815446D01*
X123285902Y-152810384D01*
X123426308Y-152739539D01*
X123584674Y-152715294D01*
X123723237Y-152739650D01*
X123785963Y-152783878D01*
X123812623Y-152850787D01*
X123824399Y-152977713D01*
X123821811Y-153177859D01*
X123810083Y-153394455D01*
X123793391Y-153630616D01*
X123777162Y-153785894D01*
X123757304Y-153876995D01*
X123729721Y-153920623D01*
X123690322Y-153933481D01*
X123677899Y-153933846D01*
X123634364Y-153927941D01*
X123607226Y-153898565D01*
X123593718Y-153828227D01*
X123591075Y-153699434D01*
X123596528Y-153494695D01*
X123598703Y-153433173D01*
X123616730Y-152932500D01*
X123494615Y-152944421D01*
X123347784Y-153004289D01*
X123209715Y-153142511D01*
X123094713Y-153339908D01*
X123017081Y-153577298D01*
X123014871Y-153587761D01*
X122975227Y-153754664D01*
X122936169Y-153845530D01*
X122886213Y-153881265D01*
X122851594Y-153885000D01*
X122780811Y-153868911D01*
X122767733Y-153801856D01*
X122775826Y-153750673D01*
X122792443Y-153655047D01*
X122820223Y-153484253D01*
X122855753Y-153259717D01*
X122895614Y-153002871D01*
X122910145Y-152908077D01*
X122956141Y-152607033D01*
X122990680Y-152389087D01*
X123017647Y-152240854D01*
X123040925Y-152148953D01*
X123064398Y-152100000D01*
X123091952Y-152080612D01*
X123127470Y-152077406D01*
X123151159Y-152077692D01*
G37*
D14*
X114500000Y-149224000D02*
X114500000Y-133224000D01*
X130500000Y-133224000D02*
X130500000Y-149224000D01*
X129791547Y-131474000D02*
G75*
G03*
X129791547Y-131474000I-291547J0D01*
G01*
D15*
X129700000Y-131212500D02*
X129700000Y-131724000D01*
X129700000Y-131724000D02*
X129307800Y-131724000D01*
X129307800Y-131724000D02*
X129307800Y-131212500D01*
X129307800Y-131212500D02*
X129700000Y-131212500D01*
G36*
X129700000Y-131724000D02*
G01*
X129307800Y-131724000D01*
X129307800Y-131212500D01*
X129700000Y-131212500D01*
X129700000Y-131724000D01*
G37*
X129700000Y-131724000D02*
X129307800Y-131724000D01*
X129307800Y-131212500D01*
X129700000Y-131212500D01*
X129700000Y-131724000D01*
D13*
X107502000Y-124968000D02*
X107502000Y-126298000D01*
X107502000Y-110938000D02*
X104842000Y-110938000D01*
X104842000Y-123698000D02*
X104842000Y-110938000D01*
X107502000Y-126298000D02*
X106172000Y-126298000D01*
X107502000Y-123698000D02*
X104842000Y-123698000D01*
X107502000Y-123698000D02*
X107502000Y-110938000D01*
M02*
