G04 #@! TF.GenerationSoftware,KiCad,Pcbnew,(6.0.1)*
G04 #@! TF.CreationDate,2022-03-01T20:17:54-08:00*
G04 #@! TF.ProjectId,ESP32-Lora,45535033-322d-44c6-9f72-612e6b696361,rev?*
G04 #@! TF.SameCoordinates,Original*
G04 #@! TF.FileFunction,Legend,Bot*
G04 #@! TF.FilePolarity,Positive*
%FSLAX46Y46*%
G04 Gerber Fmt 4.6, Leading zero omitted, Abs format (unit mm)*
G04 Created by KiCad (PCBNEW (6.0.1)) date 2022-03-01 20:17:54*
%MOMM*%
%LPD*%
G01*
G04 APERTURE LIST*
%ADD10C,0.187500*%
G04 APERTURE END LIST*
D10*
X136648000Y-102510085D02*
X136148000Y-103260085D01*
X136148000Y-102510085D02*
X136648000Y-103260085D01*
X135902628Y-112909000D02*
X135974057Y-112873285D01*
X136081200Y-112873285D01*
X136188342Y-112909000D01*
X136259771Y-112980428D01*
X136295485Y-113051857D01*
X136331200Y-113194714D01*
X136331200Y-113301857D01*
X136295485Y-113444714D01*
X136259771Y-113516142D01*
X136188342Y-113587571D01*
X136081200Y-113623285D01*
X136009771Y-113623285D01*
X135902628Y-113587571D01*
X135866914Y-113551857D01*
X135866914Y-113301857D01*
X136009771Y-113301857D01*
X135545485Y-113623285D02*
X135545485Y-112873285D01*
X135116914Y-113623285D01*
X135116914Y-112873285D01*
X134759771Y-113623285D02*
X134759771Y-112873285D01*
X134581200Y-112873285D01*
X134474057Y-112909000D01*
X134402628Y-112980428D01*
X134366914Y-113051857D01*
X134331200Y-113194714D01*
X134331200Y-113301857D01*
X134366914Y-113444714D01*
X134402628Y-113516142D01*
X134474057Y-113587571D01*
X134581200Y-113623285D01*
X134759771Y-113623285D01*
X136103371Y-128202885D02*
X136103371Y-127452885D01*
X135853371Y-127988600D01*
X135603371Y-127452885D01*
X135603371Y-128202885D01*
X135103371Y-127452885D02*
X134960514Y-127452885D01*
X134889085Y-127488600D01*
X134817657Y-127560028D01*
X134781942Y-127702885D01*
X134781942Y-127952885D01*
X134817657Y-128095742D01*
X134889085Y-128167171D01*
X134960514Y-128202885D01*
X135103371Y-128202885D01*
X135174800Y-128167171D01*
X135246228Y-128095742D01*
X135281942Y-127952885D01*
X135281942Y-127702885D01*
X135246228Y-127560028D01*
X135174800Y-127488600D01*
X135103371Y-127452885D01*
X134496228Y-128167171D02*
X134389085Y-128202885D01*
X134210514Y-128202885D01*
X134139085Y-128167171D01*
X134103371Y-128131457D01*
X134067657Y-128060028D01*
X134067657Y-127988600D01*
X134103371Y-127917171D01*
X134139085Y-127881457D01*
X134210514Y-127845742D01*
X134353371Y-127810028D01*
X134424800Y-127774314D01*
X134460514Y-127738600D01*
X134496228Y-127667171D01*
X134496228Y-127595742D01*
X134460514Y-127524314D01*
X134424800Y-127488600D01*
X134353371Y-127452885D01*
X134174800Y-127452885D01*
X134067657Y-127488600D01*
X133746228Y-128202885D02*
X133746228Y-127452885D01*
X136255771Y-130234885D02*
X136255771Y-129484885D01*
X136005771Y-130020600D01*
X135755771Y-129484885D01*
X135755771Y-130234885D01*
X135398628Y-130234885D02*
X135398628Y-129484885D01*
X135077200Y-130199171D02*
X134970057Y-130234885D01*
X134791485Y-130234885D01*
X134720057Y-130199171D01*
X134684342Y-130163457D01*
X134648628Y-130092028D01*
X134648628Y-130020600D01*
X134684342Y-129949171D01*
X134720057Y-129913457D01*
X134791485Y-129877742D01*
X134934342Y-129842028D01*
X135005771Y-129806314D01*
X135041485Y-129770600D01*
X135077200Y-129699171D01*
X135077200Y-129627742D01*
X135041485Y-129556314D01*
X135005771Y-129520600D01*
X134934342Y-129484885D01*
X134755771Y-129484885D01*
X134648628Y-129520600D01*
X134184342Y-129484885D02*
X134041485Y-129484885D01*
X133970057Y-129520600D01*
X133898628Y-129592028D01*
X133862914Y-129734885D01*
X133862914Y-129984885D01*
X133898628Y-130127742D01*
X133970057Y-130199171D01*
X134041485Y-130234885D01*
X134184342Y-130234885D01*
X134255771Y-130199171D01*
X134327200Y-130127742D01*
X134362914Y-129984885D01*
X134362914Y-129734885D01*
X134327200Y-129592028D01*
X134255771Y-129520600D01*
X134184342Y-129484885D01*
X136085200Y-99297685D02*
X136335200Y-98940542D01*
X136513771Y-99297685D02*
X136513771Y-98547685D01*
X136228057Y-98547685D01*
X136156628Y-98583400D01*
X136120914Y-98619114D01*
X136085200Y-98690542D01*
X136085200Y-98797685D01*
X136120914Y-98869114D01*
X136156628Y-98904828D01*
X136228057Y-98940542D01*
X136513771Y-98940542D01*
X135835200Y-98547685D02*
X135335200Y-99297685D01*
X135335200Y-98547685D02*
X135835200Y-99297685D01*
X135049485Y-99297685D02*
X135049485Y-98547685D01*
X134870914Y-98547685D01*
X134763771Y-98583400D01*
X134692342Y-98654828D01*
X134656628Y-98726257D01*
X134620914Y-98869114D01*
X134620914Y-98976257D01*
X134656628Y-99119114D01*
X134692342Y-99190542D01*
X134763771Y-99261971D01*
X134870914Y-99297685D01*
X135049485Y-99297685D01*
X135761000Y-132144657D02*
X135796714Y-132180371D01*
X135903857Y-132216085D01*
X135975285Y-132216085D01*
X136082428Y-132180371D01*
X136153857Y-132108942D01*
X136189571Y-132037514D01*
X136225285Y-131894657D01*
X136225285Y-131787514D01*
X136189571Y-131644657D01*
X136153857Y-131573228D01*
X136082428Y-131501800D01*
X135975285Y-131466085D01*
X135903857Y-131466085D01*
X135796714Y-131501800D01*
X135761000Y-131537514D01*
X135475285Y-132180371D02*
X135368142Y-132216085D01*
X135189571Y-132216085D01*
X135118142Y-132180371D01*
X135082428Y-132144657D01*
X135046714Y-132073228D01*
X135046714Y-132001800D01*
X135082428Y-131930371D01*
X135118142Y-131894657D01*
X135189571Y-131858942D01*
X135332428Y-131823228D01*
X135403857Y-131787514D01*
X135439571Y-131751800D01*
X135475285Y-131680371D01*
X135475285Y-131608942D01*
X135439571Y-131537514D01*
X135403857Y-131501800D01*
X135332428Y-131466085D01*
X135153857Y-131466085D01*
X135046714Y-131501800D01*
X136345057Y-134110771D02*
X136237914Y-134146485D01*
X136059342Y-134146485D01*
X135987914Y-134110771D01*
X135952200Y-134075057D01*
X135916485Y-134003628D01*
X135916485Y-133932200D01*
X135952200Y-133860771D01*
X135987914Y-133825057D01*
X136059342Y-133789342D01*
X136202200Y-133753628D01*
X136273628Y-133717914D01*
X136309342Y-133682200D01*
X136345057Y-133610771D01*
X136345057Y-133539342D01*
X136309342Y-133467914D01*
X136273628Y-133432200D01*
X136202200Y-133396485D01*
X136023628Y-133396485D01*
X135916485Y-133432200D01*
X135166485Y-134075057D02*
X135202200Y-134110771D01*
X135309342Y-134146485D01*
X135380771Y-134146485D01*
X135487914Y-134110771D01*
X135559342Y-134039342D01*
X135595057Y-133967914D01*
X135630771Y-133825057D01*
X135630771Y-133717914D01*
X135595057Y-133575057D01*
X135559342Y-133503628D01*
X135487914Y-133432200D01*
X135380771Y-133396485D01*
X135309342Y-133396485D01*
X135202200Y-133432200D01*
X135166485Y-133467914D01*
X134487914Y-134146485D02*
X134845057Y-134146485D01*
X134845057Y-133396485D01*
X134237914Y-134146485D02*
X134237914Y-133396485D01*
X133809342Y-134146485D02*
X134130771Y-133717914D01*
X133809342Y-133396485D02*
X134237914Y-133825057D01*
X136336742Y-114752885D02*
X135872457Y-114752885D01*
X136122457Y-115038600D01*
X136015314Y-115038600D01*
X135943885Y-115074314D01*
X135908171Y-115110028D01*
X135872457Y-115181457D01*
X135872457Y-115360028D01*
X135908171Y-115431457D01*
X135943885Y-115467171D01*
X136015314Y-115502885D01*
X136229600Y-115502885D01*
X136301028Y-115467171D01*
X136336742Y-115431457D01*
X135551028Y-115431457D02*
X135515314Y-115467171D01*
X135551028Y-115502885D01*
X135586742Y-115467171D01*
X135551028Y-115431457D01*
X135551028Y-115502885D01*
X135265314Y-114752885D02*
X134801028Y-114752885D01*
X135051028Y-115038600D01*
X134943885Y-115038600D01*
X134872457Y-115074314D01*
X134836742Y-115110028D01*
X134801028Y-115181457D01*
X134801028Y-115360028D01*
X134836742Y-115431457D01*
X134872457Y-115467171D01*
X134943885Y-115502885D01*
X135158171Y-115502885D01*
X135229600Y-115467171D01*
X135265314Y-115431457D01*
X134586742Y-114752885D02*
X134336742Y-115502885D01*
X134086742Y-114752885D01*
X136684028Y-100681285D02*
X136255457Y-100681285D01*
X136469742Y-101431285D02*
X136469742Y-100681285D01*
X136076885Y-100681285D02*
X135576885Y-101431285D01*
X135576885Y-100681285D02*
X136076885Y-101431285D01*
X135291171Y-101431285D02*
X135291171Y-100681285D01*
X135112600Y-100681285D01*
X135005457Y-100717000D01*
X134934028Y-100788428D01*
X134898314Y-100859857D01*
X134862600Y-101002714D01*
X134862600Y-101109857D01*
X134898314Y-101252714D01*
X134934028Y-101324142D01*
X135005457Y-101395571D01*
X135112600Y-101431285D01*
X135291171Y-101431285D01*
X136325657Y-119531171D02*
X136218514Y-119566885D01*
X136039942Y-119566885D01*
X135968514Y-119531171D01*
X135932800Y-119495457D01*
X135897085Y-119424028D01*
X135897085Y-119352600D01*
X135932800Y-119281171D01*
X135968514Y-119245457D01*
X136039942Y-119209742D01*
X136182800Y-119174028D01*
X136254228Y-119138314D01*
X136289942Y-119102600D01*
X136325657Y-119031171D01*
X136325657Y-118959742D01*
X136289942Y-118888314D01*
X136254228Y-118852600D01*
X136182800Y-118816885D01*
X136004228Y-118816885D01*
X135897085Y-118852600D01*
X135147085Y-119495457D02*
X135182800Y-119531171D01*
X135289942Y-119566885D01*
X135361371Y-119566885D01*
X135468514Y-119531171D01*
X135539942Y-119459742D01*
X135575657Y-119388314D01*
X135611371Y-119245457D01*
X135611371Y-119138314D01*
X135575657Y-118995457D01*
X135539942Y-118924028D01*
X135468514Y-118852600D01*
X135361371Y-118816885D01*
X135289942Y-118816885D01*
X135182800Y-118852600D01*
X135147085Y-118888314D01*
X134468514Y-119566885D02*
X134825657Y-119566885D01*
X134825657Y-118816885D01*
X136292714Y-117499171D02*
X136185571Y-117534885D01*
X136007000Y-117534885D01*
X135935571Y-117499171D01*
X135899857Y-117463457D01*
X135864142Y-117392028D01*
X135864142Y-117320600D01*
X135899857Y-117249171D01*
X135935571Y-117213457D01*
X136007000Y-117177742D01*
X136149857Y-117142028D01*
X136221285Y-117106314D01*
X136257000Y-117070600D01*
X136292714Y-116999171D01*
X136292714Y-116927742D01*
X136257000Y-116856314D01*
X136221285Y-116820600D01*
X136149857Y-116784885D01*
X135971285Y-116784885D01*
X135864142Y-116820600D01*
X135542714Y-117534885D02*
X135542714Y-116784885D01*
X135364142Y-116784885D01*
X135257000Y-116820600D01*
X135185571Y-116892028D01*
X135149857Y-116963457D01*
X135114142Y-117106314D01*
X135114142Y-117213457D01*
X135149857Y-117356314D01*
X135185571Y-117427742D01*
X135257000Y-117499171D01*
X135364142Y-117534885D01*
X135542714Y-117534885D01*
X134828428Y-117320600D02*
X134471285Y-117320600D01*
X134899857Y-117534885D02*
X134649857Y-116784885D01*
X134399857Y-117534885D01*
X136105828Y-104577800D02*
X136177257Y-104542085D01*
X136284400Y-104542085D01*
X136391542Y-104577800D01*
X136462971Y-104649228D01*
X136498685Y-104720657D01*
X136534400Y-104863514D01*
X136534400Y-104970657D01*
X136498685Y-105113514D01*
X136462971Y-105184942D01*
X136391542Y-105256371D01*
X136284400Y-105292085D01*
X136212971Y-105292085D01*
X136105828Y-105256371D01*
X136070114Y-105220657D01*
X136070114Y-104970657D01*
X136212971Y-104970657D01*
X135748685Y-105292085D02*
X135748685Y-104542085D01*
X135320114Y-105292085D01*
X135320114Y-104542085D01*
X134962971Y-105292085D02*
X134962971Y-104542085D01*
X134784400Y-104542085D01*
X134677257Y-104577800D01*
X134605828Y-104649228D01*
X134570114Y-104720657D01*
X134534400Y-104863514D01*
X134534400Y-104970657D01*
X134570114Y-105113514D01*
X134605828Y-105184942D01*
X134677257Y-105256371D01*
X134784400Y-105292085D01*
X134962971Y-105292085D01*
M02*
