G04 #@! TF.GenerationSoftware,KiCad,Pcbnew,(6.0.1)*
G04 #@! TF.CreationDate,2022-03-01T20:17:54-08:00*
G04 #@! TF.ProjectId,ESP32-Lora,45535033-322d-44c6-9f72-612e6b696361,rev?*
G04 #@! TF.SameCoordinates,Original*
G04 #@! TF.FileFunction,Paste,Top*
G04 #@! TF.FilePolarity,Positive*
%FSLAX46Y46*%
G04 Gerber Fmt 4.6, Leading zero omitted, Abs format (unit mm)*
G04 Created by KiCad (PCBNEW (6.0.1)) date 2022-03-01 20:17:54*
%MOMM*%
%LPD*%
G01*
G04 APERTURE LIST*
G04 Aperture macros list*
%AMRoundRect*
0 Rectangle with rounded corners*
0 $1 Rounding radius*
0 $2 $3 $4 $5 $6 $7 $8 $9 X,Y pos of 4 corners*
0 Add a 4 corners polygon primitive as box body*
4,1,4,$2,$3,$4,$5,$6,$7,$8,$9,$2,$3,0*
0 Add four circle primitives for the rounded corners*
1,1,$1+$1,$2,$3*
1,1,$1+$1,$4,$5*
1,1,$1+$1,$6,$7*
1,1,$1+$1,$8,$9*
0 Add four rect primitives between the rounded corners*
20,1,$1+$1,$2,$3,$4,$5,0*
20,1,$1+$1,$4,$5,$6,$7,0*
20,1,$1+$1,$6,$7,$8,$9,0*
20,1,$1+$1,$8,$9,$2,$3,0*%
G04 Aperture macros list end*
%ADD10RoundRect,0.250000X0.450000X-0.350000X0.450000X0.350000X-0.450000X0.350000X-0.450000X-0.350000X0*%
%ADD11R,0.800000X0.800000*%
%ADD12R,2.000000X0.900000*%
%ADD13R,0.900000X2.000000*%
%ADD14R,5.000000X5.000000*%
%ADD15RoundRect,0.250000X0.337500X0.475000X-0.337500X0.475000X-0.337500X-0.475000X0.337500X-0.475000X0*%
%ADD16RoundRect,0.250000X0.350000X0.450000X-0.350000X0.450000X-0.350000X-0.450000X0.350000X-0.450000X0*%
%ADD17R,1.050000X2.200000*%
%ADD18R,1.000000X1.050000*%
%ADD19RoundRect,0.250000X-0.350000X-0.450000X0.350000X-0.450000X0.350000X0.450000X-0.350000X0.450000X0*%
%ADD20R,1.050000X1.950000*%
G04 APERTURE END LIST*
D10*
X113000000Y-124400000D03*
X113000000Y-122400000D03*
D11*
X111300000Y-129250000D03*
X109650000Y-129250000D03*
D12*
X113470800Y-99865000D03*
X113470800Y-101135000D03*
X113470800Y-102405000D03*
X113470800Y-103675000D03*
X113470800Y-104945000D03*
X113470800Y-106215000D03*
X113470800Y-107485000D03*
X113470800Y-108755000D03*
X113470800Y-110025000D03*
X113470800Y-111295000D03*
X113470800Y-112565000D03*
X113470800Y-113835000D03*
X113470800Y-115105000D03*
X113470800Y-116375000D03*
D13*
X116255800Y-117375000D03*
X117525800Y-117375000D03*
X118795800Y-117375000D03*
X120065800Y-117375000D03*
X121335800Y-117375000D03*
X122605800Y-117375000D03*
X123875800Y-117375000D03*
X125145800Y-117375000D03*
X126415800Y-117375000D03*
X127685800Y-117375000D03*
D12*
X130470800Y-116375000D03*
X130470800Y-115105000D03*
X130470800Y-113835000D03*
X130470800Y-112565000D03*
X130470800Y-111295000D03*
X130470800Y-110025000D03*
X130470800Y-108755000D03*
X130470800Y-107485000D03*
X130470800Y-106215000D03*
X130470800Y-104945000D03*
X130470800Y-103675000D03*
X130470800Y-102405000D03*
X130470800Y-101135000D03*
X130470800Y-99865000D03*
D14*
X120970800Y-107365000D03*
D15*
X107787500Y-101750000D03*
X105712500Y-101750000D03*
D16*
X107680000Y-105156000D03*
X105680000Y-105156000D03*
D17*
X113275000Y-153670000D03*
X116225000Y-153670000D03*
D18*
X114750000Y-152170000D03*
D19*
X114800000Y-129200000D03*
X116800000Y-129200000D03*
D20*
X129500000Y-133824000D03*
X127500000Y-133824000D03*
X125500000Y-133824000D03*
X123500000Y-133824000D03*
X121500000Y-133824000D03*
X119500000Y-133824000D03*
X117500000Y-133824000D03*
X115500000Y-133824000D03*
X115500000Y-148624000D03*
X117500000Y-148624000D03*
X119500000Y-148624000D03*
X121500000Y-148624000D03*
X123500000Y-148624000D03*
X125500000Y-148624000D03*
X127500000Y-148624000D03*
X129500000Y-148624000D03*
M02*
